<svg width="132" height="32" viewBox="0 0 132 32" fill="none" xmlns="http://www.w3.org/2000/svg">
<g clip-path="url(#clip0_2_12195)">
<path d="M113.581 0C111.511 0 109.818 1.6718 109.824 3.74189C109.818 5.82247 111.527 7.48903 113.602 7.48379C115.672 7.48903 117.328 5.82247 117.328 3.74189C117.323 1.67704 115.651 0 113.581 0ZM45.6506 0.062889C43.57 0.062889 41.893 1.71897 41.893 3.78906C41.893 5.86964 43.5753 7.5624 45.6506 7.56764C47.7154 7.56764 49.3925 5.86964 49.3925 3.78906C49.3977 1.71897 47.7154 0.062889 45.6506 0.062889ZM101.548 4.26597C99.4835 4.26597 97.7908 5.93777 97.7908 8.00786C97.7908 10.078 99.4783 11.7655 101.548 11.7655C103.624 11.7655 105.29 10.0832 105.29 8.00786C105.296 5.94301 103.624 4.26597 101.548 4.26597ZM125.687 4.26597C123.622 4.26597 121.93 5.93777 121.93 8.00786C121.93 10.078 123.622 11.7655 125.687 11.7655C127.768 11.7655 129.413 10.078 129.413 8.00786C129.413 5.93777 127.768 4.26073 125.687 4.26597ZM57.4894 4.32886C55.4246 4.32886 53.7318 6.02162 53.7318 8.08647C53.7318 10.1618 55.4193 11.8284 57.4894 11.8284C59.5491 11.8284 61.2313 10.1566 61.2313 8.08647C61.2313 6.02162 59.5543 4.32886 57.4894 4.32886ZM33.5916 4.42843C31.5268 4.42319 29.8497 6.09499 29.8497 8.15984V8.17557C29.8497 10.2509 31.5163 11.9384 33.5916 11.9332C35.6512 11.9332 37.3335 10.2457 37.3335 8.17557C37.3335 6.10023 35.6512 4.42843 33.5916 4.42843ZM114.865 13.17C114.865 13.17 107.418 13.2172 107.329 13.2172C106.061 13.2172 104.986 14.2968 104.986 15.5598L104.971 29.1019H104.986C105.044 30.7055 106.386 32 108 32C109.63 32 110.971 30.7055 111.029 29.1019V24.3957C111.029 24.3957 114.006 24.38 114.105 24.38C115.253 24.38 116.207 23.4681 116.207 22.3151C116.207 21.1569 115.258 20.2136 114.105 20.2136H111.029V18.961H114.87C116.464 18.961 117.742 17.6875 117.737 16.0943C117.732 14.5169 116.458 13.17 114.865 13.17ZM128.57 13.17C128.57 13.17 121.123 13.2172 121.033 13.2172C119.755 13.2172 118.691 14.2915 118.691 15.5598V29.1019H118.707C118.759 30.7055 120.08 32 121.704 32C123.339 32 124.65 30.7108 124.702 29.1019H124.718V24.3957C124.718 24.3957 127.689 24.38 127.794 24.38C128.942 24.38 129.896 23.4681 129.896 22.3151C129.896 21.1569 128.942 20.2136 127.794 20.2136H124.712V18.961H128.554C130.137 18.961 131.421 17.6875 131.421 16.0943C131.421 14.5169 130.152 13.1648 128.57 13.17ZM61.1632 13.2014C59.5753 13.2014 58.2965 14.4802 58.2965 16.0524C58.2965 16.1572 58.3175 16.2673 58.328 16.3773L58.3122 29.0757L58.328 29.2224C58.4066 30.7213 59.6486 31.9266 61.1789 31.9266C62.7669 31.9266 64.0456 30.6531 64.0456 29.0757C64.0456 28.8922 64.0299 28.7193 63.9984 28.5568V24.7887L68.2644 30.5169C68.3273 30.6112 68.3954 30.7055 68.4583 30.8104L68.474 30.8418C69.0243 31.4812 69.8576 31.8847 70.7695 31.8847C72.4308 31.8847 73.7672 30.5431 73.7672 28.887C73.7724 28.3105 73.61 27.7445 73.2955 27.2571L73.2484 27.1942C73.2064 27.1261 73.1697 27.058 73.1173 27.0003L69.2602 21.8225L72.3994 18.0282H72.3836C72.7924 17.5303 73.0492 16.8962 73.0492 16.1887C73.044 14.5745 71.7338 13.2434 70.1196 13.2434C69.061 13.2434 68.1439 13.8041 67.6303 14.6426L63.9984 19.0239V16.4821C64.0142 16.3406 64.0299 16.1887 64.0299 16.0419C64.0299 14.4802 62.7459 13.2014 61.1632 13.2014ZM2.94375 13.2172C1.54447 13.2172 0.422949 14.3596 0.422949 15.738C0.422949 15.738 0.407227 29.1857 0.407227 29.4111C0.407227 30.8418 1.4973 31.9161 2.92803 31.9161L9.43703 31.9319C12.6339 31.9319 15.2333 29.3482 15.2333 26.1513C15.2333 24.3433 14.4262 22.7344 13.1318 21.6757C13.8917 20.7743 14.3686 19.6056 14.3686 18.3217C14.3738 15.5126 12.0417 13.2067 9.20644 13.2119H2.94375V13.2172ZM46.8926 13.301C41.7777 13.301 37.6165 17.4569 37.6165 22.5771C37.6165 27.6973 41.7777 31.869 46.8926 31.869C52.0129 31.869 56.174 27.6973 56.1688 22.5771C56.1688 17.4569 52.0129 13.301 46.8926 13.301ZM25.9087 13.3325C20.7832 13.3325 16.6431 17.4989 16.6483 22.6295C16.6483 27.7445 20.778 31.8952 25.9087 31.8899C31.0394 31.8899 35.1848 27.7445 35.1848 22.6295C35.1848 17.5041 31.0394 13.3325 25.9087 13.3325ZM94.2061 13.3325C89.0649 13.3325 84.8933 17.5146 84.8933 22.661C84.8933 27.7969 89.0597 31.9738 94.2061 31.9738C99.342 31.9738 103.519 27.7969 103.519 22.661C103.519 17.5146 99.3473 13.3325 94.2061 13.3325ZM5.46455 17.4307H7.79144C8.56707 17.4307 9.19072 18.0439 9.19072 18.83C9.19072 19.5952 8.56183 20.1978 7.79144 20.1978C7.71807 20.1978 5.46455 20.2136 5.46455 20.2136V17.4307ZM78.6987 18.6518C76.6286 18.6518 74.9621 20.3393 74.9568 22.4094C74.9621 24.4795 76.6286 26.167 78.6987 26.167C80.7741 26.167 82.4563 24.4795 82.4563 22.4094C82.4511 20.3446 80.7636 18.6518 78.6987 18.6518ZM46.8926 18.7357C49.0204 18.7357 50.7498 20.4599 50.7498 22.5929C50.7498 24.7154 49.0204 26.4343 46.8926 26.4343C44.7649 26.4343 43.0512 24.7049 43.0512 22.5771C43.0459 20.4599 44.7597 18.7409 46.8769 18.7357H46.8926ZM25.9087 18.7671C28.0312 18.7671 29.7659 20.4913 29.7659 22.6243C29.7659 24.752 28.0364 26.471 25.9087 26.4658C23.8019 26.471 22.0725 24.752 22.0672 22.6243C22.0672 20.4913 23.7967 18.7671 25.9087 18.7671ZM94.2061 18.7986C96.3391 18.7986 98.0633 20.5123 98.0633 22.6557C98.0633 24.7835 96.3338 26.5129 94.2061 26.5129C92.0731 26.5129 90.3437 24.7835 90.3489 22.6557C90.3437 20.528 92.0626 18.8038 94.1904 18.7986H94.2061ZM5.46455 24.1703L8.42557 24.186C9.23264 24.186 9.89298 24.8254 9.89298 25.6325C9.88774 26.4501 9.23788 27.0999 8.42557 27.0999H5.48027L5.46455 24.1703ZM128.439 27.0999C127.087 27.0999 126.012 28.1847 126.012 29.5421C126.017 30.9047 127.081 31.9843 128.439 31.9843C129.791 31.9843 130.881 30.8994 130.881 29.5421C130.886 28.1952 129.796 27.1051 128.449 27.0999C128.449 27.0999 128.444 27.0999 128.439 27.0999ZM128.439 27.3462C129.644 27.3462 130.635 28.3262 130.635 29.5421C130.635 30.7527 129.644 31.738 128.439 31.738C127.228 31.738 126.258 30.7475 126.258 29.5421C126.258 28.3262 127.228 27.3462 128.439 27.3462ZM127.333 28.0956V30.9256H127.92V29.8199H128.523C128.695 29.8199 128.821 29.8408 128.879 29.9037C128.942 29.9561 128.978 30.0819 128.978 30.2601V30.5221C128.978 30.6112 128.989 30.6846 128.994 30.7684C129.005 30.8156 129.026 30.8732 129.041 30.9309H129.691V30.868C129.634 30.8366 129.592 30.7632 129.576 30.6898C129.565 30.6426 129.56 30.5588 129.56 30.4278V30.2496C129.56 30.0504 129.534 29.9037 129.476 29.8094C129.424 29.7098 129.319 29.6364 129.199 29.584C129.345 29.5316 129.476 29.4373 129.539 29.3063C129.607 29.1805 129.634 29.0495 129.639 28.9132C129.639 28.7979 129.623 28.7088 129.592 28.6197C129.55 28.5306 129.492 28.452 129.429 28.3734C129.361 28.2843 129.267 28.2214 129.167 28.1795C129.057 28.1323 128.921 28.1061 128.727 28.0956H127.333ZM127.92 28.5988H128.601C128.732 28.5988 128.816 28.6145 128.879 28.6459C128.994 28.7036 129.057 28.8136 129.057 28.9866C129.057 29.1386 128.989 29.2434 128.879 29.2958C128.811 29.3272 128.722 29.3429 128.585 29.3429H127.92V28.5988Z" fill="#CCCCCC"/>
</g>
<defs>
<clipPath id="clip0_2_12195">
<rect width="131.019" height="32" fill="white" transform="translate(0.402344)"/>
</clipPath>
</defs>
</svg>
