<svg width="61" height="32" viewBox="0 0 61 32" fill="none" xmlns="http://www.w3.org/2000/svg">
<path fill-rule="evenodd" clip-rule="evenodd" d="M26.3014 27.7551C23.7173 29.8774 20.3028 31.1692 16.7036 31.1692C8.21338 31.1692 1.40739 24.3399 1.40739 15.9653C1.40739 7.56744 8.21338 0.738103 16.7036 0.738103C22.3331 0.738103 27.2245 3.78355 29.9005 8.39789C30.2696 8.49024 30.5466 8.58259 30.9154 8.67494C28.2396 3.50685 22.8869 0 16.7036 0C7.84399 0 0.668945 7.10604 0.668945 15.9653C0.668945 24.802 7.84433 32 16.7036 32C20.8566 32 24.6401 30.3391 27.5012 27.7551H26.3014Z" fill="#CCCCCC"/>
<path fill-rule="evenodd" clip-rule="evenodd" d="M18.7344 27.0168H60.6088V20.7412H18.7344V27.0168Z" fill="#CCCCCC"/>
<path fill-rule="evenodd" clip-rule="evenodd" d="M20.8558 9.5046L20.6711 10.3354H18.6408C18.0871 16.2419 17.718 21.0173 17.349 23.2326C16.5185 27.2009 12.827 29.4155 10.4276 29.4155C9.59718 29.4155 8.58203 29.0468 8.58203 28.0317C8.58203 27.4779 9.04343 27.0165 9.59718 27.0165C10.4276 27.0165 11.0737 27.6623 11.5351 28.4004C12.8273 27.6623 13.0117 27.0165 13.5654 24.4321C13.8425 23.2326 14.5806 14.6727 14.9496 10.3354H13.2884L13.4731 9.5046H15.1343L15.319 8.02839C16.2418 2.5836 20.2101 1.9375 21.687 1.9375C22.4251 1.9375 23.9016 2.30655 23.9016 3.3217C23.9016 3.96745 23.3479 4.2445 22.7941 4.2445C21.779 4.2445 21.3176 3.69075 20.8558 2.85996C19.1946 3.5984 18.9179 7.659 18.7332 9.50425H20.8558V9.5046ZM20.6715 17.072C20.6715 12.7351 23.4402 8.95119 28.1466 8.95119C31.1 8.95119 32.7606 10.2434 32.7606 13.1041C32.7606 17.4414 29.9922 21.11 25.2855 21.11C22.3327 21.11 20.6715 19.8178 20.6715 17.072ZM28.9773 13.7502C28.9773 12.6427 28.885 9.96668 27.2241 9.96668C24.8247 9.96668 24.4554 14.673 24.4554 16.4266C24.4554 17.4418 24.5477 20.1875 26.2086 20.1875C28.608 20.1872 28.9773 15.5035 28.9773 13.7502ZM33.776 17.072C33.776 12.7351 36.6371 8.95119 41.3435 8.95119C44.2046 8.95119 45.9345 10.2434 45.9345 13.1041C45.9345 17.4414 43.0967 21.11 38.3904 21.11C35.5293 21.11 33.776 19.8178 33.776 17.072ZM42.1739 13.7502C42.1739 12.6427 42.0819 9.96668 40.4207 9.96668C37.929 9.96668 37.6523 14.673 37.6523 16.4266C37.6523 17.4418 37.6523 20.1875 39.3132 20.1875C41.8045 20.1872 42.1739 15.5035 42.1739 13.7502ZM60.2393 19.7258C58.5777 20.4639 56.5474 21.1096 55.1635 21.1096C54.4254 21.1096 54.5171 20.0018 54.5171 19.5407C54.5171 18.9877 54.5171 18.2485 54.7021 16.7957L54.6094 16.703C53.6866 18.6179 51.841 21.1096 49.4417 21.1096C47.5957 21.1096 46.7649 19.1717 46.7649 17.5338C46.7649 13.4728 49.9947 9.13589 54.6094 9.13589H55.5322C55.9016 6.2748 55.9016 5.07529 55.9016 4.15215C55.9016 3.87545 55.9016 3.5984 55.6246 3.5984C55.3475 3.5984 54.9788 3.69075 54.0557 3.96745L53.8713 3.22935C55.7173 2.5836 57.7476 2.2142 59.5928 2.12185C59.7779 2.12185 59.8699 2.12185 59.8699 2.49091C59.8699 4.89025 58.0239 17.4411 58.0239 18.7106C58.0239 18.9877 58.0239 19.4487 58.3933 19.4487C58.5777 19.4487 59.2241 19.2637 59.9622 18.9873L60.2393 19.7258ZM54.24 15.7805C54.8865 14.2116 55.0708 12.6427 55.4402 10.2434C55.2552 10.1507 55.0708 10.1507 54.9788 10.1507C52.1177 10.1507 50.7332 14.396 50.7332 16.703C50.7332 17.2567 50.8259 18.6179 51.6563 18.6179C52.8562 18.6183 53.8713 16.7033 54.24 15.7805Z" fill="#CCCCCC"/>
<path fill-rule="evenodd" clip-rule="evenodd" d="M21.2256 22.2173H22.2407L23.5326 24.1553V22.2173H24.3634V25.9085H23.6249L22.056 23.7866V25.9085H21.2256V22.2173ZM26.7624 22.2173H29.6235V22.9558H27.8699V23.6012H28.9777V24.432H27.8699V25.0778H29.6235V25.9085H26.7624V22.2173ZM32.6693 22.9558H31.6541V22.2173H34.7916V22.9558H33.7764V25.9085H32.6693V22.9558ZM36.6375 22.2173H37.7443L38.2064 24.1553H38.2981L38.7595 22.2173H39.683L40.144 24.1553H40.2367L40.6981 22.2173H41.5282L40.6054 25.9085H39.683L39.1289 23.8783L38.5751 25.9085H37.6527L36.6375 22.2173ZM45.2891 26.0012C44.2049 26.0012 43.4665 25.2631 43.4665 24.0629C43.4665 22.8634 44.2046 22.125 45.2891 22.125C46.3969 22.125 47.0424 22.8631 47.0424 24.0629C47.0424 25.2628 46.3966 26.0012 45.2891 26.0012ZM44.6433 24.0626C44.6433 25.0778 44.9204 25.2628 45.2891 25.2628C45.6585 25.2628 45.9349 25.0778 45.9349 24.0626C45.9349 23.0481 45.6585 22.8631 45.2891 22.8631C44.8277 22.8631 44.6433 23.1401 44.6433 24.0626ZM49.257 22.2173H51.1029C52.3025 22.2173 52.5795 22.7704 52.5795 23.2325C52.5795 23.6939 52.3025 24.0626 51.8414 24.1553L52.5795 25.9085H51.38L50.8262 24.3396H50.3648V25.9085H49.257V22.2173ZM50.3648 23.6939H50.9186C51.195 23.6939 51.4723 23.5089 51.4723 23.3245C51.4723 23.0481 51.2873 22.8631 50.9186 22.8631H50.3648V23.6939ZM54.8868 22.2173H55.9943V23.6939L57.1015 22.2173H58.1166L57.1938 23.4169L58.301 25.9085H57.1938L56.4557 24.3396L55.9943 24.9861V25.9085H54.8868V22.2173Z" fill="white"/>
</svg>
