<svg width="84" height="32" viewBox="0 0 84 32" fill="none" xmlns="http://www.w3.org/2000/svg">
<g clip-path="url(#clip0_2_12187)">
<path d="M73.342 18.3893C73.0181 18.3893 72.7752 18.3083 72.5863 18.1194C72.4243 17.9574 72.3164 17.6875 72.3164 17.3636V7.40416C72.3164 7.08028 72.3973 6.81037 72.5863 6.64843C72.7752 6.48649 73.0181 6.40552 73.342 6.40552H75.1503C75.5552 6.40552 75.9061 6.43251 76.203 6.4595C76.4999 6.51348 76.7698 6.59445 76.9587 6.75639C77.1746 6.91833 77.3096 7.13426 77.4175 7.45814C77.5255 7.75504 77.5795 8.18688 77.5795 8.6997V16.0951C77.5795 16.7698 77.4985 17.2557 77.3096 17.5795C77.1206 17.9034 76.8507 18.1194 76.4999 18.2273C76.149 18.3353 75.6902 18.3893 75.1503 18.3623L73.342 18.3893ZM67.5391 0.602578C67.2152 0.629568 66.9453 0.71054 66.7833 0.872482C66.6214 1.03442 66.5404 1.30433 66.5404 1.62821V23.1666C66.5404 23.4904 66.6214 23.7334 66.8103 23.9223C66.9723 24.0842 67.2422 24.1922 67.566 24.1922H75.0694C76.6348 24.1922 77.9843 24.0303 79.0639 23.7064C80.1436 23.3825 81.0073 22.8697 81.655 22.2219C82.3028 21.5741 82.7886 20.7104 83.0585 19.6848C83.3554 18.6592 83.4904 17.4716 83.4904 16.0951V8.6997C83.4904 7.32319 83.3554 6.13561 83.0585 5.10998C82.7616 4.08434 82.3028 3.24764 81.655 2.59987C81.0073 1.92511 80.1436 1.43928 79.0639 1.1154C77.9843 0.791511 76.6618 0.629568 75.0694 0.629568L67.5391 0.602578ZM57.7145 14.8265C57.7145 15.4743 57.6876 16.0681 57.6606 16.5809C57.6066 17.0937 57.4986 17.5256 57.3367 17.9034C57.1747 18.2813 56.9048 18.5512 56.527 18.7401C56.1761 18.9291 55.6903 19.037 55.0695 19.037C54.4487 19.037 53.9629 18.9291 53.612 18.7401C53.2341 18.5512 52.9912 18.2813 52.8023 17.9034C52.6404 17.5526 52.5324 17.0937 52.4784 16.5809C52.4244 16.0681 52.3974 15.4743 52.4244 14.8265V9.96825C52.4244 9.32048 52.4514 8.72669 52.4784 8.21387C52.5324 7.70106 52.6404 7.26921 52.8023 6.89134C52.9642 6.51348 53.2341 6.24357 53.612 6.05464C53.9629 5.86571 54.4487 5.75775 55.0695 5.75775C55.6903 5.75775 56.1761 5.86571 56.527 6.05464C56.9048 6.24357 57.1477 6.51348 57.3367 6.89134C57.4986 7.24222 57.6066 7.70106 57.6606 8.21387C57.7145 8.72669 57.7145 9.32048 57.7145 9.96825V14.8265ZM63.4905 8.18688C63.4905 7.80902 63.4635 7.35018 63.4095 6.81037C63.3555 6.27056 63.2476 5.70376 63.0586 5.08299C62.8697 4.46221 62.5998 3.86842 62.2489 3.27463C61.8711 2.68084 61.3852 2.14103 60.7645 1.6552C60.1437 1.16938 59.361 0.764521 58.4163 0.467626C57.4716 0.170732 56.338 0.0357795 55.0155 0.00878906C53.693 0.00878906 52.5594 0.170732 51.6147 0.467626C50.67 0.764521 49.8873 1.16938 49.2665 1.6552C48.6458 2.14103 48.1599 2.68084 47.7821 3.27463C47.4042 3.86842 47.1343 4.4892 46.9724 5.08299C46.7834 5.70376 46.6755 6.27056 46.6215 6.81037C46.5675 7.35018 46.5405 7.80902 46.5405 8.18688V16.6079C46.5405 16.9858 46.5675 17.4446 46.6215 17.9844C46.6755 18.5242 46.7834 19.091 46.9724 19.7118C47.1343 20.3326 47.4312 20.9264 47.7821 21.5201C48.1599 22.1139 48.6458 22.6537 49.2665 23.1666C49.8873 23.6524 50.67 24.0572 51.6147 24.3271C52.5594 24.624 53.693 24.786 55.0155 24.786C56.338 24.786 57.4716 24.624 58.4163 24.3271C59.361 24.0303 60.1437 23.6524 60.7645 23.1666C61.3852 22.6807 61.8711 22.1409 62.2489 21.5201C62.6268 20.9264 62.8967 20.3056 63.0586 19.7118C63.2206 19.091 63.3555 18.5242 63.4095 17.9844C63.4635 17.4446 63.4905 16.9858 63.4905 16.6079V8.18688ZM38.0925 14.8265C38.0925 15.4743 38.0655 16.0681 38.0385 16.5809C37.9846 17.0937 37.8766 17.5256 37.7147 17.9034C37.5527 18.2813 37.2828 18.5512 36.9049 18.7401C36.5541 18.9291 36.0682 19.037 35.4475 19.037C34.8267 19.037 34.3409 18.9291 33.99 18.7401C33.6121 18.5512 33.3692 18.2813 33.1803 17.9034C33.0183 17.5526 32.9104 17.0937 32.8564 16.5809C32.8024 16.0681 32.7754 15.4743 32.8024 14.8265V9.96825C32.8024 9.32048 32.8294 8.72669 32.8564 8.21387C32.9104 7.70106 33.0183 7.26921 33.1803 6.89134C33.3422 6.51348 33.6121 6.24357 33.99 6.05464C34.3409 5.86571 34.8267 5.75775 35.4475 5.75775C36.0682 5.75775 36.5541 5.86571 36.9049 6.05464C37.2828 6.24357 37.5257 6.51348 37.7147 6.89134C37.8766 7.24222 37.9846 7.70106 38.0385 8.21387C38.0925 8.72669 38.0925 9.32048 38.0925 9.96825V14.8265ZM43.8955 8.18688C43.8955 7.80902 43.8685 7.35018 43.8145 6.81037C43.7605 6.27056 43.6525 5.70376 43.4636 5.08299C43.2747 4.46221 43.0048 3.86842 42.6539 3.27463C42.276 2.68084 41.7902 2.14103 41.1694 1.6552C40.5486 1.16938 39.7659 0.764521 38.8213 0.467626C37.8766 0.170732 36.743 0.0357795 35.4205 0.00878906C34.0979 0.00878906 32.9643 0.170732 32.0197 0.467626C31.075 0.764521 30.2923 1.16938 29.6715 1.6552C29.0507 2.14103 28.5649 2.68084 28.187 3.27463C27.8092 3.86842 27.5393 4.4892 27.3773 5.08299C27.1884 5.70376 27.0804 6.27056 27.0264 6.81037C26.9725 7.35018 26.9455 7.80902 26.9455 8.18688V16.6079C26.9455 16.9858 26.9725 17.4446 27.0264 17.9844C27.0804 18.5242 27.1884 19.091 27.3773 19.7118C27.5393 20.3326 27.8362 20.9264 28.187 21.5201C28.5649 22.1139 29.0507 22.6537 29.6715 23.1666C30.2923 23.6524 31.075 24.0572 32.0197 24.3271C32.9643 24.624 34.0979 24.786 35.4205 24.786C36.743 24.786 37.8766 24.624 38.8213 24.3271C39.7659 24.0303 40.5486 23.6524 41.1694 23.1666C41.7902 22.6807 42.276 22.1409 42.6539 21.5201C43.0318 20.9264 43.3017 20.3056 43.4636 19.7118C43.6256 19.091 43.7605 18.5242 43.8145 17.9844C43.8685 17.4446 43.8955 16.9858 43.8955 16.6079V8.18688ZM23.9765 0.602578C24.6513 0.602578 24.9752 0.953453 24.9752 1.60122V5.37988C24.9752 5.70376 24.8942 5.94668 24.7323 6.13561C24.5703 6.32454 24.3004 6.40552 23.9765 6.40552H15.1777C14.8538 6.40552 14.6109 6.48649 14.4219 6.64843C14.233 6.81037 14.152 7.08028 14.152 7.40416V23.1936C14.152 23.5174 14.0711 23.7603 13.9091 23.9493C13.7472 24.1112 13.4773 24.2192 13.1534 24.2192H9.18579C8.86191 24.2192 8.61899 24.1382 8.43006 23.9493C8.26812 23.7603 8.16016 23.5174 8.16016 23.1936V1.62821C8.16016 1.30433 8.24113 1.03442 8.43006 0.872482C8.61899 0.71054 8.86191 0.629568 9.18579 0.629568L23.9765 0.602578Z" fill="#CCCCCC"/>
<path d="M81.9518 29.454C81.9518 29.427 81.9248 29.427 81.9248 29.4C81.9248 29.373 81.9248 29.373 81.9518 29.346L83.3013 27.5107C83.3553 27.4297 83.3553 27.3757 83.3283 27.3487C83.3013 27.3217 83.2474 27.2678 83.1664 27.2678H82.1947C82.1408 27.2678 82.0868 27.2678 82.0598 27.2948C82.0328 27.3217 81.9788 27.3487 81.9518 27.4027L80.8992 28.8332C80.8722 28.8602 80.8722 28.8602 80.8452 28.8602C80.8182 28.8602 80.8182 28.8332 80.8182 28.8062V27.4837C80.8182 27.3487 80.7642 27.2948 80.6293 27.2948H79.8736C79.8196 27.2948 79.7656 27.3217 79.7386 27.3487C79.7116 27.3757 79.6846 27.4297 79.6846 27.5107V31.7752C79.6846 31.8291 79.7116 31.8831 79.7386 31.9101C79.7656 31.9371 79.8196 31.9641 79.8736 31.9641H80.6293C80.6833 31.9641 80.7373 31.9371 80.7912 31.9101C80.8452 31.8831 80.8452 31.8291 80.8452 31.7752V31.0464V30.9924C80.8452 30.9654 80.8452 30.9654 80.8722 30.9385L81.1421 30.5606C81.1421 30.5336 81.1691 30.5336 81.1961 30.5336C81.2231 30.5336 81.2231 30.5336 81.2501 30.5606L82.0868 31.8291C82.1138 31.8831 82.1408 31.9101 82.1947 31.9371C82.2217 31.9641 82.2757 31.9641 82.3297 31.9641H83.3283C83.4093 31.9641 83.4633 31.9371 83.4903 31.8831C83.5173 31.8291 83.5173 31.7752 83.4633 31.7212L81.9518 29.454ZM75.906 27.2678C75.852 27.2678 75.798 27.2948 75.771 27.3217C75.744 27.3487 75.717 27.4027 75.717 27.4837V30.4526C75.717 30.5336 75.717 30.6146 75.744 30.7225C75.744 30.8305 75.771 30.9385 75.825 31.0734C75.852 31.1814 75.906 31.3163 75.987 31.4243C76.0679 31.5322 76.1489 31.6402 76.2838 31.7482C76.4188 31.8561 76.5537 31.9101 76.7427 31.9911C76.9316 32.0451 77.1475 32.0721 77.4174 32.0721C77.6873 32.0721 77.9033 32.0451 78.0922 31.9911C78.2811 31.9371 78.4431 31.8561 78.551 31.7482C78.686 31.6402 78.767 31.5322 78.8479 31.4243C78.9289 31.3163 78.9829 31.1814 79.0099 31.0734C79.0369 30.9654 79.0639 30.8305 79.0639 30.7225C79.0639 30.6146 79.0908 30.5336 79.0908 30.4526V27.4837C79.0908 27.3487 79.0369 27.2948 78.9019 27.2948H78.1462C78.0922 27.2948 78.0382 27.3217 78.0112 27.3487C77.9842 27.3757 77.9572 27.4297 77.9572 27.5107V30.4796C77.9572 30.5876 77.9303 30.6686 77.9033 30.7495C77.8763 30.8305 77.8223 30.8845 77.7413 30.9115C77.6604 30.9385 77.5794 30.9654 77.4444 30.9654C77.3095 30.9654 77.2285 30.9385 77.1475 30.9115C77.0666 30.8845 77.0126 30.8305 76.9856 30.7495C76.9586 30.6686 76.9316 30.5876 76.9316 30.4796C76.9316 30.3717 76.9046 30.2637 76.9316 30.1287V27.5107C76.9316 27.3757 76.8776 27.3217 76.7427 27.3217L75.906 27.2678ZM75.0423 30.7765C75.1772 30.7765 75.2312 30.8305 75.2312 30.9654V31.7212C75.2312 31.7752 75.2042 31.8291 75.1772 31.8561C75.1502 31.8831 75.0963 31.9101 75.0153 31.9101H74.2596C74.2056 31.9101 74.1516 31.8831 74.1246 31.8561C74.0976 31.8291 74.0706 31.7752 74.0706 31.7212V30.9654C74.0706 30.9115 74.0976 30.8575 74.1246 30.8035C74.1516 30.7765 74.2056 30.7495 74.2596 30.7495L75.0423 30.7765ZM72.4242 30.0748V30.4256C72.4242 30.5336 72.3972 30.6146 72.3702 30.6955C72.3433 30.7765 72.2893 30.8305 72.2083 30.8575C72.1273 30.8845 72.0464 30.9115 71.9114 30.9115C71.7765 30.9115 71.6955 30.8845 71.6145 30.8575C71.5335 30.8305 71.4796 30.7765 71.4526 30.6955C71.4256 30.6146 71.3986 30.5336 71.3986 30.4256C71.3986 30.3177 71.3716 30.2097 71.3986 30.0748V29.1301V28.7792C71.3986 28.6713 71.4256 28.5903 71.4526 28.5093C71.4796 28.4284 71.5335 28.3744 71.6145 28.3474C71.6955 28.3204 71.7765 28.2934 71.9114 28.2934C72.0464 28.2934 72.1273 28.3204 72.2083 28.3474C72.2893 28.3744 72.3433 28.4284 72.3702 28.5093C72.3972 28.5903 72.4242 28.6713 72.4242 28.7792V30.0748ZM73.5848 28.7522C73.5848 28.6713 73.5848 28.5903 73.5578 28.4823C73.5578 28.3744 73.5308 28.2664 73.5038 28.1315C73.4768 28.0235 73.4229 27.8885 73.3419 27.7806C73.2609 27.6726 73.18 27.5647 73.045 27.4567C72.9101 27.3487 72.7751 27.2948 72.5862 27.2138C72.3972 27.1598 72.1813 27.1328 71.9114 27.1328C71.6415 27.1328 71.4256 27.1598 71.2366 27.2138C71.0477 27.2678 70.8858 27.3487 70.7778 27.4567C70.6429 27.5647 70.5619 27.6726 70.4809 27.7806C70.3999 27.8885 70.346 28.0235 70.319 28.1315C70.292 28.2394 70.265 28.3744 70.238 28.4823C70.238 28.5903 70.211 28.6713 70.211 28.7522V30.4256C70.211 30.5066 70.211 30.5876 70.238 30.6955C70.238 30.8035 70.265 30.9115 70.319 31.0464C70.346 31.1544 70.3999 31.2893 70.4809 31.3973C70.5619 31.5053 70.6429 31.6132 70.7778 31.7212C70.9128 31.8291 71.0477 31.8831 71.2366 31.9641C71.4256 32.0181 71.6415 32.0451 71.9114 32.0451C72.1813 32.0451 72.3972 32.0181 72.5862 31.9641C72.7751 31.9101 72.937 31.8291 73.045 31.7212C73.18 31.6132 73.2609 31.5053 73.3419 31.3973C73.4229 31.2893 73.4768 31.1544 73.5038 31.0464C73.5308 30.9385 73.5578 30.8035 73.5578 30.6955C73.5578 30.5876 73.5848 30.5066 73.5848 30.4256V28.7522ZM66.5133 30.4256C66.5133 30.5066 66.5133 30.5876 66.5403 30.6955C66.5403 30.8035 66.5673 30.9115 66.6213 31.0464C66.6483 31.1544 66.7023 31.2893 66.7832 31.3973C66.8642 31.5053 66.9452 31.6132 67.0801 31.7212C67.2151 31.8291 67.35 31.8831 67.539 31.9641C67.7279 32.0181 67.9438 32.0451 68.2137 32.0451C68.4566 32.0451 68.6456 32.0181 68.8345 31.9641C68.9964 31.9101 69.1584 31.8561 69.2663 31.7752C69.3743 31.6942 69.4823 31.6132 69.5632 31.5053C69.6442 31.3973 69.6982 31.2893 69.7522 31.1814C69.8062 31.0734 69.8331 30.9654 69.8331 30.8575C69.8601 30.7495 69.8601 30.6686 69.8601 30.5606C69.8601 30.5066 69.8601 30.4796 69.8331 30.4256C69.8062 30.3986 69.7792 30.3717 69.7252 30.3717L68.9695 30.2097C68.9155 30.1827 68.8345 30.2097 68.8075 30.2367C68.7535 30.2637 68.7265 30.3177 68.7265 30.3986C68.7265 30.5066 68.6996 30.5876 68.6456 30.6686C68.6186 30.7495 68.5646 30.8035 68.4836 30.8305C68.4027 30.8575 68.3217 30.8845 68.1867 30.8845C68.0518 30.8845 67.9708 30.8575 67.8898 30.8305C67.8089 30.8035 67.7549 30.7495 67.7279 30.6686C67.7009 30.5876 67.6739 30.5066 67.6739 30.3986C67.6739 30.2907 67.6469 30.1827 67.6739 30.0478V29.1031V28.7522C67.6739 28.6443 67.7009 28.5633 67.7279 28.4823C67.7549 28.4014 67.8089 28.3474 67.8898 28.3204C67.9708 28.2934 68.0518 28.2664 68.1867 28.2664C68.2947 28.2664 68.4027 28.2934 68.4836 28.3204C68.5646 28.3474 68.6186 28.4014 68.6456 28.4823C68.6726 28.5633 68.6996 28.6443 68.6996 28.7252C68.6996 28.8062 68.7265 28.8602 68.7805 28.8872C68.8345 28.9142 68.8885 28.9412 68.9695 28.9412L69.6982 28.7792C69.7522 28.7792 69.7792 28.7522 69.8062 28.7252C69.8331 28.6983 69.8331 28.6443 69.8331 28.6173C69.8331 28.5363 69.8062 28.4284 69.8062 28.3204L69.7252 27.9965C69.6712 27.8885 69.6172 27.7806 69.5363 27.6726C69.4553 27.5647 69.3473 27.4837 69.2394 27.4027C69.1044 27.3217 68.9695 27.2678 68.8075 27.2138C68.6456 27.1598 68.4296 27.1328 68.1867 27.1328C67.9168 27.1328 67.7009 27.1598 67.512 27.2138C67.323 27.2678 67.1611 27.3487 67.0531 27.4567C66.9182 27.5647 66.8372 27.6726 66.7562 27.7806C66.6753 27.8885 66.6213 28.0235 66.5943 28.1315C66.5673 28.2394 66.5403 28.3744 66.5133 28.4823C66.5133 28.5903 66.4863 28.6713 66.4863 28.7522V30.4256H66.5133ZM65.8926 30.7765C66.0275 30.7765 66.0815 30.8305 66.0815 30.9654V31.7212C66.0815 31.7752 66.0545 31.8291 66.0275 31.8561C66.0005 31.8831 65.9465 31.9101 65.8656 31.9101H65.1098C65.0558 31.9101 65.0019 31.8831 64.9749 31.8561C64.9479 31.8291 64.9209 31.7752 64.9209 31.7212V30.9654C64.9209 30.9115 64.9479 30.8575 64.9749 30.8035C65.0019 30.7765 65.0558 30.7495 65.1098 30.7495L65.8926 30.7765Z" fill="#CCCCCC"/>
<path d="M16.4728 13.4227C13.9627 13.2068 1.70909 15.204 0.791416 13.0448C-0.747037 9.45508 12.1274 11.4794 13.8548 11.5333C14.7185 11.5603 15.7981 11.7223 16.4189 11.5603C16.8507 11.4254 17.1476 10.7236 17.6334 10.4537C18.713 9.80596 20.4674 10.1568 21.9789 10.2918C23.0045 10.3728 24.0032 10.4807 25.0828 10.5617C23.5443 10.7776 21.8979 10.9935 20.2785 11.2095C20.0896 11.2365 19.7927 11.1555 19.6577 11.3714C21.3041 11.6413 23.1665 11.6953 24.9478 11.8302C23.1935 12.1001 21.2232 12.1541 19.4958 12.478C19.6037 12.6669 19.9276 12.613 20.1166 12.64C21.655 12.7479 23.3554 12.8829 24.9748 12.9638C23.3014 13.2337 21.3581 13.2877 19.6847 13.6116C19.7387 13.8815 20.0896 13.8005 20.2515 13.8005C21.79 13.9895 23.5173 14.2054 25.1098 14.3404C23.3554 14.4753 21.1962 14.8802 19.3878 14.9881C17.9843 15.0691 17.1476 14.2594 16.4728 13.4227Z" fill="#CCCCCC"/>
<path d="M12.128 13.6387C14.0713 13.4767 15.7177 13.3418 16.4735 13.3958C16.8243 13.8276 17.1752 14.2325 17.661 14.5294C18.1199 14.8263 18.6597 15.0152 19.3614 14.9612C20.3601 14.9072 21.4667 14.7453 22.5463 14.6103C23.329 14.5024 24.0848 14.3944 24.7865 14.3404C24.0848 14.2865 23.383 14.2055 22.6543 14.1245C21.8176 14.0435 21.0078 13.9356 20.2521 13.8276H20.1172C19.9282 13.8276 19.6853 13.8276 19.6583 13.6117V13.5847H19.6853C20.603 13.3958 21.6286 13.2878 22.6543 13.2068C23.356 13.1529 24.0578 13.0719 24.7055 12.9909C23.491 12.9099 22.2224 12.829 21.0348 12.748C20.7379 12.721 20.441 12.694 20.1442 12.694H20.0092C19.8203 12.694 19.6043 12.694 19.4964 12.5321L19.4694 12.5051H19.4964C20.468 12.3162 21.5207 12.2082 22.5733 12.1272C23.275 12.0732 24.0038 11.9923 24.6785 11.9113C24.3277 11.8843 23.9498 11.8573 23.5989 11.8303C22.2494 11.7494 20.8729 11.6684 19.6583 11.4795H19.6043L19.6313 11.4525C19.7393 11.2905 19.9282 11.2905 20.0902 11.2905H20.2521L21.5477 11.1286C22.6273 10.9936 23.7339 10.8317 24.7595 10.6967C24.1387 10.6428 23.518 10.5888 22.9242 10.5348C22.6003 10.5078 22.3034 10.4808 21.9525 10.4538L21.1428 10.3728C19.8473 10.2379 18.4977 10.076 17.634 10.6158C17.4181 10.7507 17.2292 10.9666 17.0672 11.1826C16.8513 11.4255 16.6624 11.6684 16.4195 11.7494C15.9876 11.8573 15.3399 11.8303 14.6921 11.7763C14.3952 11.7494 14.0983 11.7224 13.8284 11.7224C13.5315 11.7224 12.9107 11.6414 12.101 11.5604C9.18605 11.1016 3.70699 10.5348 1.57475 11.4525C0.81902 11.7763 0.495135 12.2622 0.81902 13.0449C1.4398 14.5294 7.59361 14.0166 12.128 13.6387ZM16.4735 13.4498C15.7177 13.3958 14.0713 13.5307 12.128 13.6927C7.59361 14.0705 1.41281 14.5834 0.765039 13.0449C0.414164 12.2352 0.765039 11.7224 1.54776 11.3715C3.70699 10.4538 9.18605 11.0206 12.128 11.3175C12.9377 11.3985 13.5585 11.4795 13.8554 11.4795C14.1253 11.4795 14.4222 11.5064 14.7191 11.5334C15.3668 11.5874 15.9876 11.6144 16.4195 11.5064C16.6354 11.4525 16.8243 11.2095 17.0403 10.9666C17.2292 10.7507 17.3911 10.5348 17.634 10.3998C18.5247 9.86003 19.8742 10.022 21.1968 10.1569L22.0065 10.2379C22.3034 10.2649 22.6543 10.2919 22.9781 10.3189C23.6799 10.3728 24.3816 10.4538 25.1104 10.4808L25.4073 10.5078L25.1374 10.5618C24.0308 10.7237 22.8432 10.8857 21.6556 11.0476L20.3601 11.2096H20.1981C20.0632 11.2096 19.9012 11.2096 19.7933 11.3175C21.0078 11.5064 22.3574 11.5874 23.7069 11.6684C24.1657 11.6954 24.5976 11.7224 25.0564 11.7494L25.3263 11.7763L25.0564 11.8033C24.3007 11.9113 23.491 11.9923 22.6812 12.0732C21.6556 12.1812 20.603 12.2622 19.6583 12.4511C19.7393 12.5591 19.9282 12.5591 20.0902 12.5591H20.2251C20.522 12.5861 20.8189 12.6131 21.1158 12.6131C22.4113 12.721 23.7609 12.802 25.0564 12.883L25.3263 12.9099L25.0564 12.9639C24.3007 13.0719 23.518 13.1529 22.7352 13.2338C21.7366 13.3418 20.7379 13.4228 19.8203 13.6117C19.8742 13.7736 20.0632 13.7466 20.2251 13.7466H20.3601C21.1428 13.8276 21.9525 13.9356 22.7622 14.0435C23.5719 14.1245 24.4086 14.2325 25.1914 14.2865V14.3404C24.4086 14.3944 23.518 14.5294 22.6273 14.6373C21.5477 14.7723 20.441 14.9342 19.4424 14.9882C18.7407 15.0422 18.1739 14.8533 17.715 14.5564C17.1752 14.2865 16.7973 13.8816 16.4735 13.4498Z" fill="#CCCCCC"/>
</g>
<defs>
<clipPath id="clip0_2_12187">
<rect width="82.6446" height="32" fill="white" transform="translate(0.683594)"/>
</clipPath>
</defs>
</svg>
