<svg width="68" height="32" viewBox="0 0 68 32" fill="none" xmlns="http://www.w3.org/2000/svg">
<path fill-rule="evenodd" clip-rule="evenodd" d="M2.10438 4.43062H6.31029C5.93354 4.17376 5.22428 3.84668 4.05679 3.84668C3.21173 3.84668 2.5789 4.08258 2.10438 4.43062ZM7.01644 4.43062H11.4156C10.8972 4.08258 10.1716 3.84668 9.1582 3.84668C8.08809 3.84668 7.39552 4.17376 7.01644 4.43062ZM1.51074 5.01456H12.0441C11.8673 4.78747 11.655 4.5903 11.4156 4.43062H7.01644C6.77162 4.59629 6.65754 4.73248 6.65754 4.73248C6.65754 4.73248 6.55278 4.59629 6.31029 4.43062H2.10438C1.88003 4.59638 1.68018 4.79296 1.51074 5.01456Z" fill="#CCCCCC"/>
<path fill-rule="evenodd" clip-rule="evenodd" d="M1.15918 5.57841H12.3867C12.2948 5.37795 12.1801 5.18878 12.0449 5.01465H1.51109C1.37141 5.19623 1.2554 5.38751 1.15918 5.57841Z" fill="#CCCCCC"/>
<path fill-rule="evenodd" clip-rule="evenodd" d="M0.918108 6.16206H12.5903C12.5401 5.96153 12.4715 5.76606 12.3854 5.57812H1.15828C1.05818 5.77678 0.9798 5.97505 0.918108 6.16206ZM0.765625 6.74639H3.45213C3.62518 6.54541 3.91035 6.36382 4.37634 6.36382C4.84271 6.36382 5.10811 6.54579 5.25865 6.74639H8.23615C8.41191 6.54541 8.70214 6.36382 9.17705 6.36382C9.62557 6.36382 9.8929 6.54579 10.052 6.74639H12.6888C12.6709 6.54949 12.6378 6.35426 12.5899 6.16245H0.918108C0.855343 6.35378 0.804419 6.5488 0.765625 6.74639Z" fill="#CCCCCC"/>
<path fill-rule="evenodd" clip-rule="evenodd" d="M0.6955 7.30986H3.19615V7.2695C3.19615 7.2695 3.23883 6.99364 3.45223 6.74609H0.765728C0.704424 7.06076 0.6955 7.2695 0.6955 7.2695V7.30986ZM5.45702 7.30986H7.97785V7.2695C7.97785 7.2695 8.02091 6.99364 8.23703 6.74609H5.25953C5.37207 6.89921 5.44051 7.08023 5.45741 7.2695V7.30986H5.45702ZM10.2779 7.30986H12.6986V7.2695C12.6986 7.2695 12.718 7.06037 12.6893 6.74609H10.0525C10.2473 6.99364 10.2779 7.2695 10.2779 7.2695V7.30986ZM0.694336 7.89379H3.19615V7.30986H0.6955L0.694336 7.89379ZM5.45702 7.89379H7.97785V7.30986H5.45702V7.89379ZM10.2779 7.89379H12.6986V7.30986H10.2779V7.89379Z" fill="#CCCCCC"/>
<path fill-rule="evenodd" clip-rule="evenodd" d="M0.693935 8.47847H3.1973V7.89453H0.695487L0.693935 8.47847ZM5.45778 8.47847H7.97861V7.89453H5.45778V8.47847ZM10.2787 8.47847H12.6994V7.89453H10.2787V8.47847ZM0.692383 9.04223H3.19691V8.47847H0.693547L0.692383 9.04223ZM5.45778 9.04223H7.97861V8.47847H5.45778V9.04223ZM10.2787 9.04223H12.6994V8.47847H10.2787V9.04223Z" fill="#CCCCCC"/>
<path fill-rule="evenodd" clip-rule="evenodd" d="M0.691594 9.62593H3.19729V9.04199H0.69237L0.691594 9.62593ZM5.45777 9.62593H7.9786V9.04199H5.45777V9.62593ZM10.2787 9.62593H12.6994V9.04199H10.2787V9.62593ZM0.69043 10.1897H3.19729V9.62593H0.691594L0.69043 10.1897ZM5.45777 10.1897H7.9786V9.62593H5.45777V10.1897ZM10.2787 10.1897H12.6994V9.62593H10.2787V10.1897Z" fill="#CCCCCC"/>
<path fill-rule="evenodd" clip-rule="evenodd" d="M0.688664 10.7748H3.19669V10.1904H0.689828L0.688664 10.7748ZM5.45755 10.7748H7.97838V10.1904H5.45755V10.7748ZM10.2784 10.7748H12.6992V10.1904H10.2784V10.7748ZM0.6875 11.3587H3.19707V10.7748H0.689052L0.6875 11.3587ZM5.45755 11.3587H7.97838V10.7748H5.45755V11.3587ZM10.2784 11.3587H12.6992V10.7748H10.2784V11.3587Z" fill="#CCCCCC"/>
<path fill-rule="evenodd" clip-rule="evenodd" d="M0.686523 11.9222H3.19726V11.3584H0.687688L0.686523 11.9222ZM5.45774 11.9222H7.97857V11.3584H5.45774V11.9222ZM10.2786 11.9222H12.6993V11.3584H10.2786V11.9222Z" fill="#CCCCCC"/>
<path fill-rule="evenodd" clip-rule="evenodd" d="M0.68457 12.5062H3.19647V11.9219H0.685734L0.68457 12.5062ZM5.45695 12.5062H7.97778V11.9219H5.45695V12.5062ZM10.2778 12.5062H12.6986V11.9219H10.2778V12.5062Z" fill="#CCCCCC"/>
<path fill-rule="evenodd" clip-rule="evenodd" d="M0.683594 13.0898H3.19705V12.5059H0.685146L0.683594 13.0898ZM5.45753 13.0898H7.97836V12.5059H5.45753V13.0898ZM10.2784 13.0898H12.6991V12.5059H10.2784V13.0898Z" fill="#CCCCCC"/>
<path fill-rule="evenodd" clip-rule="evenodd" d="M0.682791 13.6536H3.19702V13.0898H0.683567L0.682791 13.6536ZM5.4575 13.6536H7.97833V13.0898H5.4575V13.6536ZM10.2784 13.6536H12.6991V13.0898H10.2784V13.6536ZM0.681239 14.2375H3.19663V13.6536H0.682403L0.681239 14.2375ZM5.4575 14.2375H7.97833V13.6536H5.4575V14.2375ZM10.2784 14.2375H12.6991V13.6536H10.2784V14.2375ZM0.679688 14.8219H3.19663V14.2379H0.681239L0.679688 14.8219ZM5.4575 14.8219H7.97833V14.2379H5.4575V14.8219ZM10.2784 14.8219H12.6991V14.2379H10.2784V14.8219Z" fill="#CCCCCC"/>
<path fill-rule="evenodd" clip-rule="evenodd" d="M0.677922 15.386H3.19603V14.8223H0.679086L0.677922 15.386ZM5.4569 15.386H7.97773V14.8223H5.4569V15.386ZM10.2778 15.386H12.6985V14.8223H10.2778V15.386ZM0.676758 15.97H3.19603V15.386H0.677922L0.676758 15.97ZM5.4569 15.97H7.97773V15.386H5.4569V15.97ZM10.2778 15.97H12.6985V15.386H10.2778V15.97Z" fill="#CCCCCC"/>
<path fill-rule="evenodd" clip-rule="evenodd" d="M0.675781 16.5537H3.19661V15.9697H0.677334L0.675781 16.5537ZM5.45709 16.5537H7.97791V15.9697H5.45709V16.5537ZM10.278 16.5537H12.6987V15.9697H10.278V16.5537Z" fill="#CCCCCC"/>
<path fill-rule="evenodd" clip-rule="evenodd" d="M0.674992 17.1175H3.19698V16.5537H0.676156L0.674992 17.1175ZM5.45746 17.1175H7.97829V16.5537H5.45746V17.1175ZM10.2783 17.1175H12.6991V16.5537H10.2783V17.1175ZM0.673828 17.7018H3.19698V17.1175H0.674992L0.673828 17.7018ZM5.45746 17.7018H7.97829V17.1175H5.45746V17.7018ZM10.2783 17.7018H12.6991V17.1175H10.2783V17.7018Z" fill="#CCCCCC"/>
<path fill-rule="evenodd" clip-rule="evenodd" d="M0.67225 18.2649H3.19657V17.7012H0.673414L0.67225 18.2649ZM5.45744 18.2649H7.97826V17.7012H5.45744V18.2649ZM10.2783 18.2649H12.699V17.7012H10.2783V18.2649ZM0.671086 18.8493H3.19696V18.2649H0.672638L0.671086 18.8493ZM5.45744 18.8493H7.97826V18.2649H5.45744V18.8493ZM10.2783 18.8493H12.699V18.2649H10.2783V18.8493ZM0.669922 19.4328H3.19696V18.8493H0.671086L0.669922 19.4328ZM5.45744 19.4328H7.97826V18.8493H5.45744V19.4328ZM10.2783 19.4328H12.699V18.8493H10.2783V19.4328Z" fill="#CCCCCC"/>
<path fill-rule="evenodd" clip-rule="evenodd" d="M0.668156 19.9981H3.19674V19.4336H0.669708L0.668156 19.9981ZM5.45722 19.9981H7.97805V19.4336H5.45722V19.9981ZM10.2781 19.9981H12.6988V19.4336H10.2781V19.9981ZM0.666992 20.5817H3.19636V19.9981H0.667768L0.666992 20.5817ZM5.45722 20.5817H7.97805V19.9981H5.45722V20.5817ZM10.2781 20.5817H12.6988V19.9981H10.2781V20.5817Z" fill="#CCCCCC"/>
<path fill-rule="evenodd" clip-rule="evenodd" d="M0.665614 21.1654H3.19614V20.5811H0.666778L0.665614 21.1654ZM5.45701 21.1654H7.97784V20.5811H5.45701V21.1654ZM10.2779 21.1654H12.6986V20.5811H10.2779V21.1654ZM0.664062 21.7295H3.19614V21.1658H0.665614L0.664062 21.7295ZM5.45701 21.7295H7.97784V21.1658H5.45701V21.7295ZM10.2779 21.7295H12.6986V21.1658H10.2779V21.7295Z" fill="#CCCCCC"/>
<path fill-rule="evenodd" clip-rule="evenodd" d="M0.664062 22.3138H3.19731V21.7295H0.665227L0.664062 22.3138ZM5.45779 22.3138H7.97861V21.7295H5.45779V22.3138ZM10.2787 22.3138H12.6994V21.7295H10.2787V22.3138Z" fill="#CCCCCC"/>
<path fill-rule="evenodd" clip-rule="evenodd" d="M0.662297 22.897H3.1967V22.3135H0.663461L0.662297 22.897ZM5.45757 22.897H7.9784V22.3135H5.45757V22.897ZM10.2785 22.897H12.6992V22.3135H10.2785V22.897ZM0.661133 23.4608H3.1967V22.897H0.662297L0.661133 23.4608ZM5.45757 23.4608H7.9784V22.897H5.45757V23.4608ZM10.2785 23.4608H12.6992V22.897H10.2785V23.4608Z" fill="#CCCCCC"/>
<path fill-rule="evenodd" clip-rule="evenodd" d="M0.659554 24.0453H3.19629V23.4609H0.660718L0.659554 24.0453ZM5.45716 24.0453H7.97798V23.4609H5.45716V24.0453ZM10.278 24.0453H12.6988V23.4609H10.278V24.0453ZM0.658778 24.6296H3.19668V24.0453H0.659943L0.658778 24.6296ZM5.45716 24.6296H7.97798V24.0453H5.45716V24.6296ZM10.278 24.6296H12.6988V24.0453H10.278V24.6296ZM0.657227 25.1933H3.19668V24.6296H0.658778L0.657227 25.1933ZM5.45716 25.1933H7.97798V24.6296H5.45716V25.1933ZM10.278 25.1933H12.6988V24.6296H10.278V25.1933Z" fill="#CCCCCC"/>
<path fill-rule="evenodd" clip-rule="evenodd" d="M0.65625 25.7769H3.19687V25.1934H0.657414L0.65625 25.7769ZM5.45735 25.7769H7.97817V25.1934H5.45735V25.7769ZM10.2782 25.7769H12.699V25.1934H10.2782V25.7769Z" fill="#CCCCCC"/>
<path fill-rule="evenodd" clip-rule="evenodd" d="M31.3242 3.60445H31.6544L31.3242 3.02051V3.60445ZM31.3242 4.20856H31.9966L31.6544 3.60445H31.3242V4.20856Z" fill="#CCCCCC"/>
<path fill-rule="evenodd" clip-rule="evenodd" d="M31.3242 4.8131H32.3384L31.9966 4.20898H31.3242V4.8131ZM36.2254 4.8131H38.586V4.22916H36.2254V4.8131Z" fill="#CCCCCC"/>
<path fill-rule="evenodd" clip-rule="evenodd" d="M31.3242 5.41798H32.6807L32.3384 4.81348H31.3242V5.41798ZM36.2254 5.41798H38.586V4.81348H36.2254V5.41798Z" fill="#CCCCCC"/>
<path fill-rule="evenodd" clip-rule="evenodd" d="M31.3242 6.00191H33.0108L32.6807 5.41797H31.3242V6.00191ZM36.2254 6.00191H38.586V5.41797H36.2254V6.00191Z" fill="#CCCCCC"/>
<path fill-rule="evenodd" clip-rule="evenodd" d="M31.3242 6.60607H33.3531L33.0108 6.00195H31.3242V6.60607ZM36.2254 6.60607H38.586V6.00195H36.2254V6.60607ZM31.3242 7.21018H33.6949L33.3531 6.60607H31.3242V7.21018ZM36.2254 7.21018H38.586V6.60607H36.2254V7.21018Z" fill="#CCCCCC"/>
<path fill-rule="evenodd" clip-rule="evenodd" d="M31.3236 7.81369H34.0365L33.6943 7.20996H31.3236V7.81369ZM36.2248 7.81369H38.5854V7.20996H36.2248V7.81369ZM31.3236 8.39801H34.3667L34.0361 7.81369H31.3232V8.39801H31.3236ZM36.2248 8.39801H38.5854V7.81369H36.2248V8.39801Z" fill="#CCCCCC"/>
<path fill-rule="evenodd" clip-rule="evenodd" d="M31.3242 9.00255H34.7091L34.3673 8.39844H31.3242V9.00255ZM36.2254 9.00255H38.586V8.39844H36.2254V9.00255ZM31.3242 9.60666H35.0517L34.7091 9.00255H31.3242V9.60666ZM36.2254 9.60666H38.586V9.00255H36.2254V9.60666Z" fill="#CCCCCC"/>
<path fill-rule="evenodd" clip-rule="evenodd" d="M31.3242 10.21H35.3936L35.0517 9.60547H31.3242V10.21ZM36.2254 10.21H38.586V9.60547H36.2254V10.21Z" fill="#CCCCCC"/>
<path fill-rule="evenodd" clip-rule="evenodd" d="M31.3242 10.7939H35.7237L35.3932 10.21H31.3242V10.7939ZM36.2254 10.7939H38.586V10.21H36.2254V10.7939ZM31.3242 11.398H36.0656L35.7237 10.7939H31.3242V11.398ZM36.2254 11.398H38.586V10.7939H36.2254V11.398Z" fill="#CCCCCC"/>
<path fill-rule="evenodd" clip-rule="evenodd" d="M31.3242 12.0026H38.586V11.3984H36.2254V11.6809L36.0656 11.3984H31.3242V12.0026ZM31.3242 12.6067H33.6445V12.0631L33.9944 12.6067H38.586V12.0026H31.3242V12.6067Z" fill="#CCCCCC"/>
<path fill-rule="evenodd" clip-rule="evenodd" d="M31.3242 13.1904H33.6445V12.6064H31.3242V13.1904ZM34.3696 13.1904H38.586V12.6064H33.9944L34.3696 13.1904Z" fill="#CCCCCC"/>
<path fill-rule="evenodd" clip-rule="evenodd" d="M31.3242 13.7945H33.6445V13.1904H31.3242V13.7945ZM34.7584 13.7945H38.586V13.1904H34.3696L34.7584 13.7945Z" fill="#CCCCCC"/>
<path fill-rule="evenodd" clip-rule="evenodd" d="M31.3242 14.399H33.6445V13.7949H31.3242V14.399ZM35.1472 14.399H38.586V13.7949H34.7584L35.1472 14.399Z" fill="#CCCCCC"/>
<path fill-rule="evenodd" clip-rule="evenodd" d="M31.3242 14.9828H33.6445V14.3984H31.3242V14.9828ZM35.5224 14.9828H38.586V14.3984H35.1472L35.5224 14.9828Z" fill="#CCCCCC"/>
<path fill-rule="evenodd" clip-rule="evenodd" d="M31.3242 15.5875H33.6445V14.9834H31.3242V15.5875ZM35.9108 15.5875H38.586V14.9834H35.5224L35.9108 15.5875Z" fill="#CCCCCC"/>
<path fill-rule="evenodd" clip-rule="evenodd" d="M31.3242 16.191H33.6445V15.5869H31.3242V16.191ZM36.2995 16.191H38.586V15.5869H35.9108L36.2995 16.191ZM31.3242 16.7951H33.6445V16.191H31.3242V16.7951ZM36.3255 16.7951H38.586V16.191H36.2995L36.3251 16.2314V16.7951H36.3255ZM31.3242 17.3795H33.6445V16.7951H31.3242V17.3795ZM36.3255 17.3795H38.586V16.7951H36.3255V17.3795Z" fill="#CCCCCC"/>
<path fill-rule="evenodd" clip-rule="evenodd" d="M31.3242 17.983H33.6445V17.3789H31.3242V17.983ZM36.3255 17.983H38.586V17.3789H36.3255V17.983ZM31.3242 18.5871H33.6445V17.983H31.3242V18.5871ZM36.3255 18.5871H38.586V17.983H36.3255V18.5871Z" fill="#CCCCCC"/>
<path fill-rule="evenodd" clip-rule="evenodd" d="M31.3242 19.1918H33.6445V18.5869H31.3242V19.1918ZM36.3255 19.1918H38.586V18.5869H36.3255V19.1918Z" fill="#CCCCCC"/>
<path fill-rule="evenodd" clip-rule="evenodd" d="M31.3242 19.7759H33.6445V19.1924H31.3242V19.7759ZM36.3255 19.7759H38.586V19.1924H36.3255V19.7759ZM31.3242 20.3808H33.6445V19.7759H31.3242V20.3808ZM36.3255 20.3808H38.586V19.7759H36.3255V20.3808Z" fill="#CCCCCC"/>
<path fill-rule="evenodd" clip-rule="evenodd" d="M31.3242 20.985H33.6445V20.3809H31.3242V20.985ZM36.3255 20.985H38.586V20.3809H36.3255V20.985Z" fill="#CCCCCC"/>
<path fill-rule="evenodd" clip-rule="evenodd" d="M31.3242 21.5885H33.6445V20.9844H31.3242V21.5885ZM36.3255 21.5885H38.586V20.9844H36.3255V21.5885ZM31.3242 22.1728H33.6445V21.5885H31.3242V22.1728ZM36.3255 22.1728H38.586V21.5885H36.3255V22.1728Z" fill="#CCCCCC"/>
<path fill-rule="evenodd" clip-rule="evenodd" d="M31.3242 22.777H33.6445V22.1729H31.3242V22.777ZM36.3255 22.777H38.586V22.1729H36.3255V22.777Z" fill="#CCCCCC"/>
<path fill-rule="evenodd" clip-rule="evenodd" d="M31.3242 23.3805H33.6445V22.7764H31.3242V23.3805ZM36.3255 23.3805H38.586V22.7764H36.3255V23.3805Z" fill="#CCCCCC"/>
<path fill-rule="evenodd" clip-rule="evenodd" d="M31.3242 23.985H33.6445V23.3809H31.3242V23.985ZM36.3255 23.985H38.586V23.3809H36.3255V23.985Z" fill="#CCCCCC"/>
<path fill-rule="evenodd" clip-rule="evenodd" d="M31.3242 24.5687H33.6445V23.9844H31.3242V24.5687ZM36.3255 24.5687H38.586V23.9844H36.3255V24.5687ZM31.3242 25.1728H33.6445V24.5687H31.3242V25.1728ZM36.3255 25.1728H38.586V24.5687H36.3255V25.1728Z" fill="#CCCCCC"/>
<path fill-rule="evenodd" clip-rule="evenodd" d="M31.3242 25.777H33.6445V25.1729H31.3242V25.777ZM36.3255 25.777H38.586V25.1729H36.3255V25.777Z" fill="#CCCCCC"/>
<path fill-rule="evenodd" clip-rule="evenodd" d="M52.5566 0.846225H54.4093V0C54.4093 0 53.6636 0.255303 52.5566 0.846225Z" fill="#CCCCCC"/>
<path fill-rule="evenodd" clip-rule="evenodd" d="M51.124 1.69213H54.4092V0.84668H52.5565C52.0671 1.10775 51.5891 1.38983 51.124 1.69213Z" fill="#CCCCCC"/>
<path fill-rule="evenodd" clip-rule="evenodd" d="M49.951 2.51707H54.4098V1.69141H51.1247C50.7235 1.95226 50.332 2.22767 49.951 2.51707ZM48.9158 3.3629H54.4098V2.51707H49.951C49.5962 2.78691 49.2509 3.06902 48.9158 3.3629ZM48.0156 4.20874H53.519C54.0653 3.95227 54.4102 3.84635 54.4102 3.84635V3.3629H48.9162C48.6063 3.6344 48.306 3.91651 48.0156 4.20874Z" fill="#CCCCCC"/>
<path fill-rule="evenodd" clip-rule="evenodd" d="M47.2278 5.05423H52.0164C52.4962 4.73651 52.9981 4.45371 53.5184 4.20801H48.015C47.7434 4.48142 47.4809 4.76364 47.2278 5.05423ZM46.5391 5.90007H50.8812C51.2433 5.597 51.6223 5.31473 52.0164 5.05462H47.2278C46.9891 5.32888 46.7594 5.61085 46.5391 5.90007Z" fill="#CCCCCC"/>
<path fill-rule="evenodd" clip-rule="evenodd" d="M45.9338 6.74623H49.9674C50.2572 6.4488 50.562 6.16648 50.8808 5.90039H46.5387C46.3281 6.17579 46.1263 6.45788 45.9338 6.74623ZM45.417 7.57189H49.2341C49.4659 7.28553 49.7107 7.01002 49.9678 6.74623H45.9342C45.7557 7.01201 45.5838 7.2871 45.417 7.57189Z" fill="#CCCCCC"/>
<path fill-rule="evenodd" clip-rule="evenodd" d="M44.9561 8.4181H48.6079C48.8044 8.1272 49.0135 7.84499 49.2346 7.57227H45.4174C45.2555 7.84967 45.1016 8.13173 44.9561 8.4181ZM44.5576 9.26433H48.0884C48.2552 8.9679 48.4287 8.68621 48.6083 8.41849H44.9565C44.8168 8.69242 44.6833 8.9741 44.5576 9.26433Z" fill="#CCCCCC"/>
<path fill-rule="evenodd" clip-rule="evenodd" d="M44.2168 10.1095H47.658C47.7907 9.82225 47.9342 9.5401 48.0882 9.26367H44.5575C44.4362 9.54245 44.3226 9.8245 44.2168 10.1095Z" fill="#CCCCCC"/>
<path fill-rule="evenodd" clip-rule="evenodd" d="M43.9299 10.9552H47.3059C47.4149 10.6627 47.5324 10.3802 47.6574 10.1094H44.2162C44.115 10.3849 44.0195 10.6669 43.9299 10.9552ZM43.6982 11.7809H47.0265C47.113 11.4965 47.2061 11.2214 47.3062 10.9552H43.9303C43.8457 11.2283 43.7683 11.5037 43.6982 11.7809Z" fill="#CCCCCC"/>
<path fill-rule="evenodd" clip-rule="evenodd" d="M43.5053 12.6261H46.8032C46.8707 12.3355 46.9449 12.0534 47.0267 11.7803H43.6985C43.627 12.0605 43.5625 12.3426 43.5053 12.6261ZM43.3574 13.4719H46.6333C46.6826 13.1817 46.7392 12.9 46.8032 12.6261H43.5053C43.4498 12.9028 43.4005 13.1848 43.3574 13.4719Z" fill="#CCCCCC"/>
<path fill-rule="evenodd" clip-rule="evenodd" d="M43.2503 14.3175H46.5134C46.546 14.0281 46.5863 13.746 46.6325 13.4717H43.3566C43.3146 13.7528 43.2792 14.0348 43.2503 14.3175ZM43.1801 15.1634H46.4408C46.4583 14.8747 46.4823 14.5926 46.5138 14.3175H43.2507C43.221 14.5989 43.1975 14.8809 43.1801 15.1634ZM43.1514 15.989H46.4106C46.4144 15.7081 46.4241 15.4326 46.4408 15.1637H43.1801C43.1649 15.4386 43.1553 15.7138 43.1514 15.989Z" fill="#CCCCCC"/>
<path fill-rule="evenodd" clip-rule="evenodd" d="M43.1541 16.8351H46.4202C46.4123 16.6338 46.4083 16.4324 46.4082 16.231C46.4082 16.1499 46.4098 16.07 46.4113 15.9893H43.1521C43.1506 16.1029 43.1475 16.2166 43.1475 16.3319C43.1475 16.5018 43.1506 16.6694 43.1541 16.8351ZM51.1492 16.8351H54.4099V16.3319H51.1492V16.8351Z" fill="#CCCCCC"/>
<path fill-rule="evenodd" clip-rule="evenodd" d="M43.1974 17.6816H46.4794C46.4518 17.4 46.4321 17.1177 46.4205 16.835H43.1543C43.1624 17.1221 43.1768 17.4042 43.1974 17.6816ZM51.149 17.6816H54.4097V16.835H51.149V17.6816Z" fill="#CCCCCC"/>
<path fill-rule="evenodd" clip-rule="evenodd" d="M43.276 18.5285H46.5891C46.5438 18.2477 46.5072 17.9656 46.4793 17.6826H43.1973C43.2174 17.969 43.2434 18.2518 43.276 18.5285ZM51.1489 18.5285H54.4096V17.6826H51.1489V18.5285Z" fill="#CCCCCC"/>
<path fill-rule="evenodd" clip-rule="evenodd" d="M43.4013 19.3732H46.7532C46.6898 19.093 46.6352 18.8109 46.5895 18.5273H43.2764C43.3113 18.8149 43.3536 19.0965 43.4013 19.3732ZM51.1492 19.3732H54.41V18.5273H51.1492V19.3732Z" fill="#CCCCCC"/>
<path fill-rule="evenodd" clip-rule="evenodd" d="M43.5705 20.2189H46.976C46.8925 19.9395 46.8182 19.6574 46.7533 19.373H43.4014C43.4514 19.6609 43.5077 19.943 43.5705 20.2189ZM51.1493 20.2189H54.4101V19.373H51.1493V20.2189Z" fill="#CCCCCC"/>
<path fill-rule="evenodd" clip-rule="evenodd" d="M43.7802 21.044H47.2532C47.1513 20.7722 47.0587 20.497 46.9758 20.2188H43.5703C43.6339 20.5 43.7034 20.7751 43.7802 21.044ZM51.1491 21.044H54.4098V20.2188H51.1491V21.044ZM44.046 21.8906H47.6055C47.4782 21.6127 47.3607 21.3303 47.2532 21.044H43.7802C43.8621 21.3327 43.9506 21.6155 44.046 21.8906ZM51.1491 21.8906H54.4098V21.044H51.1491V21.8906Z" fill="#CCCCCC"/>
<path fill-rule="evenodd" clip-rule="evenodd" d="M44.3673 22.7365H48.0328C47.8795 22.46 47.7366 22.1778 47.6044 21.8906H44.0449C44.1462 22.1797 44.2537 22.4614 44.3673 22.7365ZM51.1484 22.7365H54.4091V21.8906H51.1484V22.7365Z" fill="#CCCCCC"/>
<path fill-rule="evenodd" clip-rule="evenodd" d="M44.7507 23.5822H48.5473C48.3651 23.307 48.1938 23.0248 48.0336 22.7363H44.3682C44.4884 23.0258 44.6165 23.3079 44.7507 23.5822ZM51.1488 23.5822H54.4096V22.7363H51.1488V23.5822Z" fill="#CCCCCC"/>
<path fill-rule="evenodd" clip-rule="evenodd" d="M45.1987 24.4279H49.1614C48.9448 24.1548 48.74 23.8726 48.5475 23.582H44.751C44.8934 23.873 45.0435 24.1543 45.1987 24.4279ZM51.1491 24.4279H54.4098V23.582H51.1491V24.4279Z" fill="#CCCCCC"/>
<path fill-rule="evenodd" clip-rule="evenodd" d="M45.7046 25.253H49.8771C49.626 24.9889 49.387 24.7135 49.1609 24.4277H45.1982C45.3579 24.7083 45.5267 24.9836 45.7046 25.253ZM51.1486 25.253H54.4093V24.4277H51.1486V25.253Z" fill="#CCCCCC"/>
<path fill-rule="evenodd" clip-rule="evenodd" d="M46.303 26.0995H50.7817C50.4637 25.8356 50.1618 25.5529 49.8776 25.2529H45.7051C45.895 25.5417 46.0944 25.824 46.303 26.0995ZM51.1491 26.0995H54.4098V25.2529H51.1491V26.0995Z" fill="#CCCCCC"/>
<path fill-rule="evenodd" clip-rule="evenodd" d="M46.9899 26.9454H54.4096V26.0996H51.1488V26.3817C51.1488 26.3817 51.0111 26.2886 50.7814 26.0996H46.3027C46.5222 26.3892 46.7513 26.6713 46.9899 26.9454Z" fill="#CCCCCC"/>
<path fill-rule="evenodd" clip-rule="evenodd" d="M47.7806 27.7911H54.4099V26.9453H46.9902C47.2486 27.2425 47.5133 27.5234 47.7806 27.7911Z" fill="#CCCCCC"/>
<path fill-rule="evenodd" clip-rule="evenodd" d="M48.6921 28.6369H54.4096V27.791H47.7803C48.0741 28.0837 48.3782 28.3658 48.6921 28.6369Z" fill="#CCCCCC"/>
<path fill-rule="evenodd" clip-rule="evenodd" d="M49.7485 29.4826H54.4099V28.6367H48.6924C49.0336 28.9319 49.3859 29.214 49.7485 29.4826ZM50.9564 30.3086H54.4095V29.4826H49.7481C50.1402 29.7732 50.5432 30.0487 50.9564 30.3086ZM52.4463 31.1544H54.4099V30.3086H50.9567C51.4922 30.6442 51.9966 30.9255 52.4463 31.1544Z" fill="#CCCCCC"/>
<path fill-rule="evenodd" clip-rule="evenodd" d="M54.41 32.0001V31.1543H52.4463C53.6149 31.7495 54.41 32.0001 54.41 32.0001Z" fill="#CCCCCC"/>
<path fill-rule="evenodd" clip-rule="evenodd" d="M59.9512 17.1575H62.3315V16.9961H59.9512V17.1575ZM65.1127 17.1575H67.5932V16.9961H65.1127V17.1575ZM59.9512 17.7411H62.3315V17.1575H59.9512V17.7411ZM65.1127 17.7411H67.5932V17.1575H65.1127V17.7411Z" fill="#CCCCCC"/>
<path fill-rule="evenodd" clip-rule="evenodd" d="M59.9512 18.3265H62.3315V17.7422H59.9512V18.3265ZM65.1127 18.3265H67.5932V17.7422H65.1127V18.3265Z" fill="#CCCCCC"/>
<path fill-rule="evenodd" clip-rule="evenodd" d="M59.9512 18.9097H62.3315V18.3262H59.9512V18.9097ZM65.1127 18.9097H67.5932V18.3262H65.1127V18.9097ZM59.9512 19.494H62.3315V18.9097H59.9512V19.494ZM65.1127 19.494H67.5932V18.9097H65.1127V19.494Z" fill="#CCCCCC"/>
<path fill-rule="evenodd" clip-rule="evenodd" d="M59.9512 20.0785H62.3315V19.4941H59.9512V20.0785ZM65.1127 20.0785H67.5932V19.4941H65.1127V20.0785ZM59.9512 20.6628H62.3315V20.0785H59.9512V20.6628ZM65.1127 20.6628H67.5932V20.0785H65.1127V20.6628Z" fill="#CCCCCC"/>
<path fill-rule="evenodd" clip-rule="evenodd" d="M59.9512 21.2457H62.3315V20.6621H59.9512V21.2457ZM65.1127 21.2457H67.5932V20.6621H65.1127V21.2457ZM59.9512 21.8498H62.3315V21.2457H59.9512V21.8498ZM65.1127 21.8498H67.5932V21.2457H65.1127V21.8498ZM59.9512 22.4341H62.3315V21.8498H59.9512V22.4341ZM65.1127 22.4341H67.5932V21.8498H65.1127V22.4341Z" fill="#CCCCCC"/>
<path fill-rule="evenodd" clip-rule="evenodd" d="M60.0098 23.0179H62.5923C62.3809 22.7238 62.3316 22.4336 62.3316 22.4336H59.9512C59.9512 22.4336 59.9477 22.6691 60.0098 23.0179ZM65.0068 23.0179H67.5517C67.5804 22.8239 67.5905 22.6648 67.5932 22.5624V22.4336H65.1128C65.1128 22.4336 65.1415 22.7238 65.0068 23.0179ZM60.16 23.6015H63.5837C63.0812 23.5293 62.7758 23.2724 62.5923 23.0179H60.0098C60.0408 23.1898 60.0878 23.3892 60.16 23.6015ZM64.1602 23.6015H67.4186C67.4846 23.3892 67.5253 23.1898 67.5513 23.0179H65.0064C64.89 23.2724 64.6499 23.5293 64.1602 23.6015Z" fill="#CCCCCC"/>
<path fill-rule="evenodd" clip-rule="evenodd" d="M60.4139 24.1869H67.1833C67.285 23.989 67.3614 23.7907 67.4188 23.6025H64.1604C63.9692 23.6304 63.775 23.6304 63.5839 23.6025H60.1602C60.2238 23.7903 60.306 23.989 60.4139 24.1869Z" fill="#CCCCCC"/>
<path fill-rule="evenodd" clip-rule="evenodd" d="M60.8203 24.7709H66.7963C66.9468 24.5912 67.0767 24.3952 67.1835 24.1865H60.4141C60.5275 24.3957 60.6638 24.5916 60.8203 24.7709ZM61.5051 25.3544H66.1308C66.3807 25.1944 66.605 24.9976 66.7963 24.7709H60.8203C61.0188 24.9978 61.2496 25.1944 61.5051 25.3544Z" fill="#CCCCCC"/>
<path fill-rule="evenodd" clip-rule="evenodd" d="M66.1306 25.3535H61.5049C62.0597 25.7019 62.8113 25.9378 63.8321 25.9378C64.8479 25.9378 65.5897 25.7023 66.1306 25.3535Z" fill="#CCCCCC"/>
<path fill-rule="evenodd" clip-rule="evenodd" d="M61.4928 4.26948H66.0692C65.5151 3.92029 64.7605 3.68555 63.7323 3.68555C62.7545 3.68516 62.0301 3.92029 61.4928 4.26948ZM60.8281 4.85342H66.7505C66.5536 4.6261 66.324 4.4293 66.0692 4.26948H61.4928C61.2439 4.43066 61.02 4.6274 60.8281 4.85342Z" fill="#CCCCCC"/>
<path fill-rule="evenodd" clip-rule="evenodd" d="M60.4304 5.43745H67.149C67.0381 5.22875 66.9044 5.03292 66.7506 4.85352H60.8281C60.6752 5.03345 60.5418 5.2292 60.4304 5.43745ZM60.1771 6.02139H67.3958C67.3308 5.81983 67.2481 5.62442 67.1486 5.43745H60.4301C60.3299 5.62487 60.2453 5.82017 60.1771 6.02139ZM60.0234 6.60572H62.5485C62.7344 6.33373 63.0766 6.08192 63.7118 6.08192C64.3574 6.08192 64.7054 6.33334 64.8924 6.60572H67.5394C67.5064 6.40775 67.4585 6.21255 67.3962 6.02178H60.1775C60.1126 6.21261 60.0612 6.40773 60.0234 6.60572Z" fill="#CCCCCC"/>
<path fill-rule="evenodd" clip-rule="evenodd" d="M59.9529 7.18979H62.3371C62.36 6.98106 62.4325 6.78083 62.5486 6.60586H60.0235C59.9726 6.87164 59.9575 7.08154 59.9529 7.18979ZM65.107 7.18979H67.5933V7.14362C67.5876 6.96322 67.5696 6.78342 67.5394 6.60547H64.8925C65.0477 6.83012 65.0931 7.06874 65.107 7.18979ZM59.9513 7.79391H62.3317V7.27011C62.3317 7.27011 62.3317 7.23985 62.3371 7.18979H59.9529C59.9505 7.2414 59.9513 7.27011 59.9513 7.27011V7.79391ZM65.1128 7.79391H67.5933V7.18979H65.107C65.1132 7.23985 65.1132 7.27011 65.1132 7.27011V7.79391H65.1128Z" fill="#CCCCCC"/>
<path fill-rule="evenodd" clip-rule="evenodd" d="M59.9512 8.3773H62.3315V7.79297H59.9512V8.3773ZM65.1127 8.3773H67.5932V7.79297H65.1127V8.3773ZM59.9512 8.96123H62.3315V8.3773H59.9512V8.96123ZM65.1127 8.96123H67.5932V8.3773H65.1127V8.96123Z" fill="#CCCCCC"/>
<path fill-rule="evenodd" clip-rule="evenodd" d="M59.9512 9.54585H62.3315V8.96191H59.9512V9.54585ZM65.1127 9.54585H67.5932V8.96191H65.1127V9.54585ZM59.9512 10.1302H62.3315V9.54624H59.9512V10.1302ZM65.1127 10.1302H67.5932V9.54624H65.1127V10.1302Z" fill="#CCCCCC"/>
<path fill-rule="evenodd" clip-rule="evenodd" d="M59.9512 10.7138H62.3315V10.1299H59.9512V10.7138ZM65.1127 10.7138H67.5932V10.1299H65.1127V10.7138ZM59.9512 11.2978H62.3315V10.7138H59.9512V11.2978ZM65.1127 11.2978H67.5932V10.7138H65.1127V11.2978ZM59.9512 11.8817H62.3315V11.2978H59.9512V11.8817ZM65.1127 11.8817H67.5932V11.2978H65.1127V11.8817Z" fill="#CCCCCC"/>
<path fill-rule="evenodd" clip-rule="evenodd" d="M59.9512 12.4658H62.3315V11.8818H59.9512V12.4658ZM65.1127 12.4658H67.5932V11.8818H65.1127V12.4658Z" fill="#CCCCCC"/>
<path fill-rule="evenodd" clip-rule="evenodd" d="M59.9512 13.0492H62.3315V12.4648H59.9512V13.0492ZM65.1127 13.0492H67.5932V12.4648H65.1127V13.0492Z" fill="#CCCCCC"/>
<path fill-rule="evenodd" clip-rule="evenodd" d="M59.9512 13.6337H62.3315V13.0498H59.9512V13.6337ZM65.1127 13.6337H67.5932V13.0498H65.1127V13.6337ZM59.9512 14.2181H62.3315V13.6341H59.9512V14.2181ZM65.1127 14.2181H67.5932V13.6341H65.1127V14.2181ZM59.9512 14.8222H62.3315V14.2181H59.9512V14.8222ZM65.1127 14.8222H67.5932V14.2181H65.1127V14.8222Z" fill="#CCCCCC"/>
<path fill-rule="evenodd" clip-rule="evenodd" d="M59.9512 15.4062H62.3315V14.8223H59.9512V15.4062ZM65.1127 15.4062H67.5932V14.8223H65.1127V15.4062ZM59.9512 15.9901H62.3315V15.4062H59.9512V15.9901ZM65.1127 15.9901H67.5932V15.4062H65.1127V15.9901Z" fill="#CCCCCC"/>
<path fill-rule="evenodd" clip-rule="evenodd" d="M59.9512 16.5736H62.3315V15.9893H59.9512V16.5736ZM65.1127 16.5736H67.5932V15.9893H65.1127V16.5736ZM67.5932 16.9965V16.5736H65.1127V16.9965H67.5932ZM62.3315 16.5736H59.9512V16.9965H62.3315V16.5736Z" fill="#CCCCCC"/>
<path fill-rule="evenodd" clip-rule="evenodd" d="M20.0387 4.43062H24.6508C24.1099 4.08258 23.3661 3.84668 22.3422 3.84668C21.3229 3.84668 20.5803 4.08258 20.0387 4.43062ZM19.3721 5.01456H25.3135C25.1235 4.78723 24.8999 4.5903 24.6504 4.43062H20.0387C19.7883 4.59059 19.5636 4.78746 19.3721 5.01456Z" fill="#CCCCCC"/>
<path fill-rule="evenodd" clip-rule="evenodd" d="M18.9951 5.57841H25.685C25.5822 5.3774 25.4575 5.18833 25.3133 5.01465H19.3715C19.2259 5.18829 19.0996 5.37733 18.9951 5.57841Z" fill="#CCCCCC"/>
<path fill-rule="evenodd" clip-rule="evenodd" d="M18.7553 6.16206H25.9201C25.8597 5.96074 25.7811 5.76529 25.6854 5.57812H18.9955C18.8984 5.76531 18.818 5.96072 18.7553 6.16206ZM18.6211 6.74639H21.2537C21.4349 6.50156 21.7685 6.26294 22.382 6.26294C23.0148 6.26294 23.3496 6.50156 23.5258 6.74639H26.0486C26.0211 6.54871 25.9783 6.35348 25.9205 6.16245H18.7553C18.6882 6.37702 18.6467 6.57683 18.6211 6.74639Z" fill="#CCCCCC"/>
<path fill-rule="evenodd" clip-rule="evenodd" d="M18.5805 7.30986H21.0412V7.2695C21.0412 7.2695 21.0625 7.00411 21.2534 6.74609H18.6208C18.5731 7.06076 18.5805 7.2695 18.5805 7.2695V7.30986ZM23.7219 7.30986H26.0824V7.14379C26.0784 7.01068 26.0669 6.87791 26.0479 6.74609H23.5251C23.7114 7.00411 23.7219 7.2695 23.7219 7.2695V7.30986ZM18.5805 7.89379H21.0412V7.30986H18.5805V7.89379ZM23.7219 7.89379H26.0824V7.30986H23.7219V7.89379Z" fill="#CCCCCC"/>
<path fill-rule="evenodd" clip-rule="evenodd" d="M18.5811 8.47847H21.0417V7.89453H18.5811V8.47847ZM23.7224 8.47847H26.083V7.89453H23.7224V8.47847ZM18.5811 9.04223H21.0417V8.47847H18.5811V9.04223ZM23.7224 9.04223H26.083V8.47847H23.7224V9.04223Z" fill="#CCCCCC"/>
<path fill-rule="evenodd" clip-rule="evenodd" d="M18.5811 9.62593H21.0417V9.04199H18.5811V9.62593ZM23.7224 9.62593H26.083V9.04199H23.7224V9.62593ZM18.5811 10.1897H21.0417V9.62593H18.5811V10.1897ZM23.7224 10.1897H26.083V9.62593H23.7224V10.1897Z" fill="#CCCCCC"/>
<path fill-rule="evenodd" clip-rule="evenodd" d="M18.5811 10.7748H21.0417V10.1904H18.5811V10.7748ZM23.7224 10.7748H26.083V10.1904H23.7224V10.7748ZM18.5811 11.3587H21.0417V10.7748H18.5811V11.3587ZM23.7224 11.3587H26.083V10.7748H23.7224V11.3587Z" fill="#CCCCCC"/>
<path fill-rule="evenodd" clip-rule="evenodd" d="M18.5811 11.9222H21.0417V11.3584H18.5811V11.9222ZM23.7224 11.9222H26.083V11.3584H23.7224V11.9222Z" fill="#CCCCCC"/>
<path fill-rule="evenodd" clip-rule="evenodd" d="M18.5811 12.5062H21.0417V11.9219H18.5811V12.5062ZM23.7224 12.5062H26.083V11.9219H23.7224V12.5062Z" fill="#CCCCCC"/>
<path fill-rule="evenodd" clip-rule="evenodd" d="M18.5811 13.0898H21.0417V12.5059H18.5811V13.0898ZM23.7224 13.0898H26.083V12.5059H23.7224V13.0898Z" fill="#CCCCCC"/>
<path fill-rule="evenodd" clip-rule="evenodd" d="M18.5811 13.6536H21.0417V13.0898H18.5811V13.6536ZM23.7224 13.6536H26.083V13.0898H23.7224V13.6536ZM18.5811 14.2375H21.0417V13.6536H18.5811V14.2375ZM23.7224 14.2375H26.083V13.6536H23.7224V14.2375ZM18.5811 14.8219H21.0417V14.2379H18.5811V14.8219ZM23.7224 14.8219H26.083V14.2379H23.7224V14.8219Z" fill="#CCCCCC"/>
<path fill-rule="evenodd" clip-rule="evenodd" d="M18.5811 15.386H21.0417V14.8223H18.5811V15.386ZM23.7224 15.386H26.083V14.8223H23.7224V15.386ZM18.5811 15.97H21.0417V15.386H18.5811V15.97ZM23.7224 15.97H26.083V15.386H23.7224V15.97Z" fill="#CCCCCC"/>
<path fill-rule="evenodd" clip-rule="evenodd" d="M18.5811 16.5537H21.0417V15.9697H18.5811V16.5537ZM23.7224 16.5537H26.083V15.9697H23.7224V16.5537Z" fill="#CCCCCC"/>
<path fill-rule="evenodd" clip-rule="evenodd" d="M18.5811 17.1175H21.0417V16.5537H18.5811V17.1175ZM23.7224 17.1175H26.083V16.5537H23.7224V17.1175ZM18.5811 17.7018H21.0417V17.1175H18.5811V17.7018ZM23.7224 17.7018H26.083V17.1175H23.7224V17.7018Z" fill="#CCCCCC"/>
<path fill-rule="evenodd" clip-rule="evenodd" d="M18.5802 18.2649H21.0409V17.7012H18.5802V18.2649ZM23.7216 18.2649H26.0822V17.7012H23.7216V18.2649ZM18.5802 18.8493H21.0409V18.2649H18.5802V18.8493ZM23.7216 18.8493H26.0822V18.2649H23.7216V18.8493ZM15.4863 19.4328H26.0822V18.8493H23.7216V18.9901H21.0409V18.8493H18.5802V18.9901H15.1992L15.4863 19.4328Z" fill="#CCCCCC"/>
<path fill-rule="evenodd" clip-rule="evenodd" d="M15.8522 19.9981H26.0822V19.4336H15.4863L15.8522 19.9981ZM16.2305 20.5817H26.0822V19.9981H15.8522L16.2305 20.5817Z" fill="#CCCCCC"/>
<path fill-rule="evenodd" clip-rule="evenodd" d="M16.6092 21.165H26.0821V20.5811H16.2305L16.6092 21.165ZM18.6803 21.7291H21.0009V21.4067H23.7817V21.7291H26.0821V21.165H16.6092L16.7399 21.3668H18.6803V21.7291Z" fill="#CCCCCC"/>
<path fill-rule="evenodd" clip-rule="evenodd" d="M18.6807 22.3138H21.0013V21.7295H18.6807V22.3138ZM23.7821 22.3138H26.0825V21.7295H23.7821V22.3138Z" fill="#CCCCCC"/>
<path fill-rule="evenodd" clip-rule="evenodd" d="M18.6807 22.897H21.0013V22.3135H18.6807V22.897ZM23.7821 22.897H26.0825V22.3135H23.7821V22.897ZM18.6807 23.4608H21.0013V22.897H18.6807V23.4608ZM23.7821 23.4608H26.0825V22.897H23.7821V23.4608Z" fill="#CCCCCC"/>
<path fill-rule="evenodd" clip-rule="evenodd" d="M18.6807 24.0453H21.0013V23.4609H18.6807V24.0453ZM23.7821 24.0453H26.0825V23.4609H23.7821V24.0453ZM18.6807 24.6296H21.0013V24.0453H18.6807V24.6296ZM23.7821 24.6296H26.0825V24.0453H23.7821V24.6296ZM18.6807 25.1933H21.0013V24.6296H18.6807V25.1933ZM23.7821 25.1933H26.0825V24.6296H23.7821V25.1933Z" fill="#CCCCCC"/>
<path fill-rule="evenodd" clip-rule="evenodd" d="M18.6807 25.7769H21.0013V25.1934H18.6807V25.7769ZM23.7821 25.7769H26.0825V25.1934H23.7821V25.7769Z" fill="#CCCCCC"/>
</svg>
