<svg width="40" height="41" viewBox="0 0 40 41" fill="none" xmlns="http://www.w3.org/2000/svg">
<path d="M28.28 14.98V2.28998C25.66 1.11998 22.9 0.5 20 0.5C17.86 0.5 15.79 0.839968 13.79 1.52997L28.27 14.98H28.28Z" fill="#FF2300"/>
<path d="M1.79004 28.7804C3.45004 32.4404 6.14002 35.5404 9.65002 37.6804V21.1904L1.79004 28.7804Z" fill="#6F6DC9"/>
<path d="M0 20.5696C0 22.2896 0.28001 24.0196 0.76001 25.7396C1.24001 25.3296 18.14 10.0096 18.49 9.66956C18.15 9.38956 11.18 2.97953 10.9 2.76953C4.13999 6.28953 0 13.0496 0 20.5696Z" fill="#C076C8"/>
<path d="M12.4199 39.12C14.2799 39.88 16.2099 40.29 18.1399 40.5H21.7999C28.6999 39.88 34.9099 35.81 37.9399 29.46H12.4199V39.12Z" fill="#00B137"/>
<path d="M39.11 26.7101C39.73 24.7801 40.01 22.5702 40.01 20.5702C40.01 13.8802 36.56 7.6702 31.04 3.9502V26.7101H39.11Z" fill="#FF9A00"/>
</svg>
