<svg width="304" height="373" viewBox="0 0 304 373" fill="none" xmlns="http://www.w3.org/2000/svg">
<g opacity="0.6">
<path fill-rule="evenodd" clip-rule="evenodd" d="M6.88764 238.457C5.98398 239.213 4.36558 240.07 5.29165 241.614C5.98473 242.736 8.13691 244.373 8.34635 244.221C11.548 241.645 14.2044 245.059 17.1354 244.651C17.4943 244.636 17.8326 244.119 18.458 243.59C17.8426 242.609 17.1524 241.559 16.5341 240.506C13.3764 235.387 11.1276 234.904 6.88764 238.457Z" fill="#333333"/>
<path fill-rule="evenodd" clip-rule="evenodd" d="M120.092 62.3399C120.089 62.2682 119.306 62.4441 119.028 62.6712C115.132 65.8506 114.605 70.5455 112.686 74.5786C114.013 75.3869 114.692 76.15 115.487 76.2611C116.279 76.3005 117.697 75.811 117.748 75.3056C117.988 74.1454 118.3 72.9823 118.543 71.8939C119.168 71.3649 119.719 70.7672 120.255 69.8106C119.81 69.4693 119.385 69.6305 119.035 69.8606C119.539 68.1144 120.117 66.4371 120.985 64.8197C121.32 64.2308 120.484 63.1148 120.092 62.3399Z" fill="#333333"/>
<path fill-rule="evenodd" clip-rule="evenodd" d="M0.359528 279.133C-0.0781485 280.732 1.51447 282.752 3.38654 282.819C6.84652 283.037 8.67451 282.027 8.72975 279.868C8.81149 278.355 6.22385 274.866 4.84833 274.635C3.54458 274.401 0.988984 276.95 0.359528 279.133Z" fill="#333333"/>
<path fill-rule="evenodd" clip-rule="evenodd" d="M-10.9518 252.273C-11.3048 252.431 -11.4995 252.942 -11.7748 253.241C-11.4042 253.514 -11.0218 254.073 -10.6629 254.058C-6.99938 253.98 -3.40749 253.905 0.25016 253.683C0.609042 253.668 1.23732 253.211 1.29733 252.921C1.35733 252.631 0.906092 252.146 0.604269 251.799C-2.48868 248.259 -3.21237 248.145 -7.35298 250.615C-8.47785 251.237 -9.75517 251.649 -10.9518 252.273Z" fill="#333333"/>
<path fill-rule="evenodd" clip-rule="evenodd" d="M15.7658 267.356C17.0007 267.665 18.2445 268.189 19.1876 266.64C18.8052 266.081 18.2527 264.881 18.0404 264.962C16.9067 265.368 15.8534 265.986 14.7974 266.533C15.0962 266.808 15.404 267.299 15.7658 267.356Z" fill="#333333"/>
<path fill-rule="evenodd" clip-rule="evenodd" d="M185.785 30.2406C185.752 29.451 185.071 28.6162 184.68 27.8413C184.353 28.6456 183.668 29.4646 183.7 30.2541C183.709 30.4695 183.862 30.6789 183.945 30.963C183.211 32.3592 182.495 34.186 183.303 34.5842C183.704 33.8488 184.194 33.5411 184.783 33.8765C185.173 32.8539 185.422 31.9091 185.464 31.1883C185.599 30.9671 185.728 30.6024 185.785 30.2406Z" fill="#333333"/>
<path fill-rule="evenodd" clip-rule="evenodd" d="M103.928 150.285C103.629 150.01 103.393 149.516 103.106 149.528C102.819 149.54 102.55 149.982 102.274 150.281C102.717 150.551 103.159 150.82 103.53 151.093C103.661 150.8 103.796 150.578 103.928 150.285Z" fill="#333333"/>
<path fill-rule="evenodd" clip-rule="evenodd" d="M115.576 104.729C116.635 104.254 116.824 103.599 116.085 103.126C115.864 102.991 115.508 103.078 115.149 103.093C115.018 103.386 114.673 103.759 114.751 103.9C114.909 104.253 115.435 104.806 115.576 104.729Z" fill="#333333"/>
<path fill-rule="evenodd" clip-rule="evenodd" d="M179.698 50.1196C179.988 50.1796 180.323 49.5907 180.601 49.3636C180.299 49.0165 180.001 48.7412 179.699 48.3941C179.352 48.6959 179.076 48.9948 178.729 49.2966C179.1 49.569 179.336 50.0626 179.698 50.1196Z" fill="#333333"/>
<path fill-rule="evenodd" clip-rule="evenodd" d="M185.141 40.8354C185.421 37.1571 187.148 35.4326 186.778 33.4347C186.377 34.1701 185.886 34.4778 185.298 34.1425C184.347 37.273 182.838 40.786 185.141 40.8354Z" fill="#333333"/>
<path fill-rule="evenodd" clip-rule="evenodd" d="M196.918 63.2889C197.519 62.1858 198.225 61.8692 198.934 61.6245C199.231 56.5795 199.812 54.974 199.731 51.2387C197.766 55.9207 198.226 56.6208 196.406 59.5713C199.101 58.6699 195.407 63.2789 196.918 63.2889Z" fill="#333333"/>
<path fill-rule="evenodd" clip-rule="evenodd" d="M121.078 82.8608C122.39 79.7873 123.832 78.1464 125.263 76.2184C120.515 74.4 130.145 69.0442 126.427 66.0332C125.944 68.2818 125.002 73.3532 122.637 71.7966C122.197 68.076 127.963 63.1662 124.761 62.2191C122.849 68.1931 121.497 72.059 117.846 75.9474C122.343 73.3904 118.849 79.3573 122.714 77.1857C122.148 79.1501 118.628 82.7455 121.078 82.8608Z" fill="#333333"/>
<path fill-rule="evenodd" clip-rule="evenodd" d="M120.139 187.941C121.83 190.604 124.401 186.688 124.666 184.376C122.843 187.255 121.959 184.99 120.139 187.941Z" fill="#333333"/>
<path fill-rule="evenodd" clip-rule="evenodd" d="M105.592 225.925C106.398 222.8 98.1484 230.256 97.4471 232.442C100.106 232.405 102.447 233.387 105.486 232.112C105.134 230.545 103.505 229.39 105.211 227.163C106.635 226.817 114.891 219.504 112.765 218.513C109.83 220.574 108.067 223.163 105.592 225.925Z" fill="#333333"/>
<path fill-rule="evenodd" clip-rule="evenodd" d="M144.976 50.249C144.973 50.1773 145.042 50.1027 145.039 50.031C144.97 50.1056 144.973 50.1774 144.901 50.1803L144.976 50.249Z" fill="#333333"/>
<path fill-rule="evenodd" clip-rule="evenodd" d="M-253.326 -587.75C-266.357 -586.425 -279.173 -585.108 -291.561 -583.882C-294.638 -583.54 -297.716 -583.198 -300.722 -582.859C-303.718 -582.305 -306.718 -581.822 -309.644 -581.271C-315.494 -580.168 -321.204 -579.143 -326.698 -578.127C-331.027 -575.001 -347.844 -574.815 -351.412 -568.917C-358.076 -568.356 -360.441 -568.187 -366.425 -565.066C-364.864 -569.084 -373.537 -563.193 -373.084 -566.159C-377.928 -563.3 -385.006 -564.088 -386.614 -561.218C-379.348 -562.882 -375.375 -565.921 -372.341 -563.817C-379.259 -562.455 -385.787 -558.592 -391.226 -559.735C-396.309 -557.442 -404.893 -551.122 -409.95 -551.706C-409.404 -548.924 -416.123 -549.727 -418.237 -546.908C-418.261 -545.757 -415.979 -546.21 -417.451 -545.287C-421.212 -542.328 -427.615 -542.425 -430.521 -539.646C-429.175 -540.133 -427.9 -540.616 -427.782 -539.471C-430.941 -537.616 -431.43 -539.034 -434.59 -537.178C-434.077 -535.186 -429.46 -538.323 -427.235 -538.415C-425.837 -541.132 -413.335 -546.606 -411.15 -545.905C-414.498 -543.395 -415.067 -541.502 -419.604 -541.675C-419.671 -539.803 -416.936 -541.497 -416.387 -540.369C-412.782 -541.883 -413.505 -543.723 -409.541 -545.252C-409.611 -543.451 -411.703 -541.856 -412.421 -540.101C-408.455 -541.557 -410.478 -543.56 -406.874 -545.073C-405.412 -544.486 -409.331 -541.881 -405.918 -542.812C-405.58 -543.329 -405.164 -543.706 -404.67 -543.941C-404.584 -543.585 -404.497 -543.23 -404.339 -542.877C-403.951 -542.174 -403.488 -541.402 -403.099 -540.699C-403.608 -540.822 -403.978 -541.094 -404.214 -541.588C-407.152 -539.598 -407.813 -539.93 -410.956 -539.442C-410.326 -538.102 -405.418 -539.381 -402.866 -540.277C-401.94 -538.733 -401.086 -537.186 -400.229 -535.568C-400.151 -535.427 -400.355 -535.131 -400.63 -534.832C-401.695 -534.501 -402.685 -534.101 -403.747 -533.698C-404.964 -533.576 -406.176 -533.311 -407.062 -532.124C-410.236 -530.628 -413.35 -529.422 -415.849 -530.757C-417.559 -526.877 -432.094 -521.895 -436.062 -522.235C-435.716 -520.812 -437.586 -519.081 -439.824 -517.552C-440.685 -517.516 -441.475 -517.484 -442.342 -517.592C-443.496 -517.689 -443.889 -516.738 -443.552 -515.529C-445.598 -514.583 -447.378 -514.15 -447.685 -514.641C-449.263 -512.779 -450.915 -510.986 -452.707 -509.115C-454.119 -508.481 -455.531 -507.848 -456.94 -507.144C-456.946 -507.287 -456.88 -507.434 -456.814 -507.58C-461.532 -505.158 -465.888 -502.678 -470.094 -500.061C-470.163 -499.987 -470.235 -499.984 -470.304 -499.909C-479.919 -494.194 -489.212 -487.63 -497.761 -480.449C-501.684 -477.916 -505.818 -475.302 -510.378 -472.527C-509.699 -471.764 -510.089 -470.741 -511.053 -469.695C-515.626 -469.004 -520.097 -464.076 -524.101 -460.029C-527.221 -458.966 -530.174 -457.335 -533.037 -455.277C-533.258 -455.411 -533.479 -455.546 -533.706 -455.824C-535.445 -454.387 -535.637 -453.804 -535.404 -453.382C-536.17 -452.776 -536.861 -452.1 -537.555 -451.497C-540.607 -448.783 -543.576 -445.785 -546.554 -443.003C-549.453 -440.08 -552.359 -437.301 -555.432 -435.09C-565.287 -428.215 -575.43 -421.328 -585.035 -413.601C-594.269 -405.601 -602.891 -396.692 -608.099 -385.19C-609.802 -382.892 -606.638 -382.878 -607.991 -380.809C-613.893 -373.953 -619.133 -364.966 -624.728 -355.894C-629.735 -346.485 -635.243 -337.057 -639.909 -328.094C-647.016 -315.58 -656.271 -304.56 -660.805 -290.641C-663.202 -282.491 -664.843 -275.162 -665.138 -268.319C-665.36 -261.48 -664.527 -255.187 -662.417 -249.306C-666.952 -237.185 -660.734 -220.545 -668.55 -209.512C-668.082 -206.871 -665.343 -206.695 -666.598 -202.258C-667.115 -199.073 -668.565 -199.373 -669.508 -197.825C-666.177 -197.243 -666.61 -199.022 -664.138 -196.607C-663.728 -205.899 -662.242 -209.986 -663.448 -218.348C-662.6 -220.468 -661.4 -221.021 -660.749 -224.427C-661.227 -243.1 -660.417 -265.421 -653.484 -289.216C-646.513 -312.078 -630.988 -331.479 -627 -348.179C-624.683 -351.294 -622.685 -348.141 -620.464 -350.101C-618.395 -359.245 -610.291 -363.244 -605.204 -372.44C-601.365 -378.78 -601.106 -386.484 -596.14 -393.374C-590.884 -400.204 -585.615 -404.95 -580.067 -409.922C-574.367 -414.685 -568.385 -419.604 -561.559 -426.714C-561.131 -426.804 -560.775 -426.89 -560.348 -426.98C-562.94 -423.566 -565.43 -421.163 -569.234 -415.759C-570.556 -416.423 -567.48 -418.563 -568.233 -419.395C-572.025 -415.429 -574.327 -411.955 -576.721 -408.981C-579.115 -406.007 -581.674 -403.529 -585.608 -401.283C-583.103 -399.804 -587.81 -395.369 -586.579 -393.406C-582.527 -398.03 -577.451 -403.99 -572.998 -404.101C-575.187 -399.625 -579.164 -400.181 -579.202 -397.591C-574.146 -400.531 -571.479 -403.876 -568.979 -407.789C-566.479 -411.702 -563.693 -415.627 -558.988 -420.133C-558.319 -419.586 -558.361 -418.865 -558.472 -418.069C-554.616 -420.456 -552.143 -425.015 -549.91 -428.414C-548.791 -429.179 -547.749 -430.085 -546.705 -430.918C-547.04 -430.329 -547.304 -429.743 -547.418 -429.02C-545.94 -429.799 -544.399 -430.797 -542.916 -431.433C-543.248 -430.772 -543.44 -430.19 -543.353 -429.834C-542.596 -430.655 -541.836 -431.406 -541.073 -432.084C-540.289 -432.26 -539.503 -432.364 -538.848 -432.175C-541.771 -426.304 -543.06 -420.93 -544.068 -415.712C-545.184 -414.876 -546.309 -414.254 -547.296 -413.783L-545.952 -412.544C-545.338 -413.36 -544.784 -413.886 -544.3 -414.337C-544.411 -413.541 -544.597 -412.815 -544.708 -412.019C-545.052 -411.646 -545.396 -411.272 -545.815 -410.967C-546.487 -411.587 -549.38 -410.246 -547.332 -409.395C-546.369 -410.441 -545.66 -410.686 -545.071 -410.351C-546.074 -408.512 -546.634 -406.404 -548.011 -404.91C-549.525 -403.266 -552.014 -402.589 -553.755 -401.223C-556.122 -399.329 -555.901 -393.946 -553.052 -392.84C-552.101 -392.448 -551.294 -392.049 -550.412 -391.582C-551.206 -389.896 -552.143 -388.204 -553.152 -386.509C-556.193 -387.032 -559.262 -386.474 -562.292 -384.984C-562.714 -384.751 -562.727 -383.312 -562.692 -382.451C-562.677 -382.092 -562.294 -381.533 -561.93 -381.404C-561.783 -381.338 -561.637 -381.272 -561.418 -381.209C-562.392 -378.653 -563.722 -376.01 -566.71 -375.241C-565.891 -374.555 -565.086 -374.229 -564.093 -374.557C-562.881 -376.548 -561.881 -378.458 -559.747 -380.774C-559.532 -380.783 -559.316 -380.792 -559.248 -380.867C-558.215 -381.988 -557.015 -382.54 -555.813 -383.021C-560.485 -377.725 -564.382 -372.82 -567.274 -367.956C-567.947 -366.85 -568.477 -365.75 -569.082 -364.718C-569.232 -364.856 -569.381 -364.993 -569.53 -365.131C-569.878 -364.829 -570.225 -364.528 -570.572 -364.226C-570.273 -363.95 -570.046 -363.672 -569.75 -363.469C-571.55 -360.016 -572.924 -356.724 -574.087 -353.513C-575.188 -352.317 -576.292 -351.193 -577.262 -350.291C-578.076 -349.107 -578.741 -347.786 -579.478 -346.461C-595.999 -326.803 -611.704 -301.283 -622.862 -273.576C-635.353 -243.299 -642.369 -211.017 -644.145 -184.198C-646.766 -177.979 -648.684 -172.149 -649.717 -165.78C-650.821 -159.407 -651.549 -152.619 -651.22 -144.58C-658.274 -136.023 -658.614 -119.76 -657.177 -104.002C-656.8 -100.063 -656.422 -96.1242 -656.051 -92.3288C-655.608 -88.5365 -655.096 -84.8188 -654.811 -81.3794C-654.31 -74.4259 -654.278 -68.3879 -655.603 -63.876C-645.891 -56.725 -647.146 -31.2221 -649.939 -22.1923C-646.522 -21.254 -644.861 -17.5834 -644.108 -13.2286C-643.282 -8.87679 -643.145 -3.77773 -643.267 0.253494C-644.547 0.593589 -647.6 -5.46434 -645.899 0.936627C-645.414 4.0083 -643.99 3.66229 -642.998 5.05955C-644.304 8.27657 -644.788 12.2508 -647.149 14.2888C-646.121 20.0703 -643.738 20.3321 -642.71 26.1136C-644.907 25.1252 -647.228 24.6452 -648.873 21.3336C-652.433 13.4271 -649.994 11.5296 -650.042 6.85827C-652.241 7.5955 -652.12 10.5383 -653.95 6.22766C-648.915 2.78581 -657.724 -3.39553 -653.692 -8.52176C-652.857 -5.68013 -651.904 -3.4904 -650.437 -2.75974C-652.759 -8.56003 -655.063 -15.6552 -656.998 -20.7525C-656.643 -19.1134 -656.687 -16.6671 -657.573 -19.0034C-657.481 9.53596 -651.222 35.953 -641.438 60.6438C-631.579 85.4034 -618.265 108.512 -602.576 131.666C-602.854 135.416 -600.121 140.696 -597.825 145.851C-586.687 157.976 -579.761 167.326 -569.441 164.746C-581.197 149.842 -591.932 138.779 -606.834 111.997C-607.969 105.357 -607.206 99.4304 -603.184 95.8144C-589.159 115.227 -580.583 140.255 -564.161 156.764C-561.764 159.111 -559.958 159.324 -557.92 161.685C-545.467 176.057 -540.661 184.559 -532.41 194.646C-516.292 214.26 -494.349 230.4 -474.654 246.057C-470.272 249.472 -468.126 256.214 -461.074 256.356C-466.158 251.604 -471.535 246.72 -476.877 242.697C-482.152 238.527 -487.123 234.777 -491.533 232.441C-496.284 227.028 -502.766 219.745 -509.951 212.85C-516.723 205.506 -524.204 198.408 -529.783 192.094C-532.018 188.447 -534.315 185.018 -536.607 181.733C-538.83 178.373 -541.044 175.229 -543.326 172.159C-548.033 166.097 -552.589 160.172 -557.367 154.113C-566.923 141.995 -576.739 128.809 -585.54 110.549C-582.406 106.322 -585.577 102.642 -588.342 96.5718C-583.4 94.356 -583.764 88.9786 -586.556 82.2629C-589.629 79.2254 -588.694 86.2331 -591.27 83.0314C-591.743 78.5213 -591.919 74.2147 -588.634 71.9231C-586.98 75.4501 -584.598 79.163 -584.863 81.4745C-581.613 78.3216 -586.025 70.6658 -581.23 68.3841C-577.6 74.4903 -573.486 80.1452 -569.452 85.5877C-565.137 90.875 -560.9 96.0216 -556.597 101.022C-547.847 111.016 -539.465 120.81 -532.232 132.376C-531.981 136.752 -533.697 140.489 -532.569 145.188C-527.757 145.062 -532.381 135.761 -529.932 132.354C-526.243 134.647 -522.57 138.307 -518.768 141.602C-517.579 142.56 -516.389 143.518 -515.271 144.478C-515.191 144.691 -515.11 144.903 -515.027 145.187C-513.767 149.593 -512.048 154.699 -507.3 156.518C-506.496 156.844 -505.761 157.245 -505.028 157.575C-502.306 160.842 -499.595 163.823 -496.897 166.516C-496.819 166.657 -496.741 166.797 -496.661 167.01C-496.218 167.279 -495.916 167.626 -495.546 167.899C-495.023 168.38 -494.494 169.006 -493.899 169.485C-490.953 172.959 -490.621 177.546 -490.501 182.215C-490.433 183.866 -489.465 184.689 -487.94 185.058C-487.067 185.309 -486.116 185.702 -485.447 186.25C-483.809 187.62 -480.956 188.797 -483.787 191.646C-483.11 194.134 -481.119 195.347 -479.002 196.123C-475.062 197.543 -472.246 199.584 -472.342 204.261C-472.378 205.126 -471.972 206.259 -471.374 206.81C-467.797 209.899 -465.449 214.548 -460.507 215.855C-457.31 216.658 -457.85 219.269 -457.406 221.336C-456.602 221.662 -455.513 221.905 -455.277 222.399C-452.833 229.416 -448.093 234.542 -442.719 239.355C-439.882 241.898 -437.127 244.23 -435.463 247.972C-433.173 252.983 -431.059 258.936 -423.277 257.61C-422.278 257.425 -420.915 259.095 -419.798 260.056C-418.004 261.708 -416.355 263.365 -414.699 265.167C-413.871 266.068 -411.97 266.852 -413.702 268.433C-414.881 269.488 -415.493 272.102 -418.016 270.192C-418.757 269.647 -419.708 269.255 -420.641 269.293C-421.502 269.328 -422.34 269.938 -423.118 270.257C-422.813 270.676 -422.583 271.026 -422.278 271.445C-419.78 274.506 -416.255 276.303 -412.675 275.94C-410.815 275.72 -409.472 275.162 -407.978 276.539C-405.584 278.813 -402.84 280.857 -402.755 284.664C-402.639 289.261 -400.193 285.782 -398.599 286.076C-395.555 286.67 -391.537 288.231 -390.142 290.69C-388.672 293.218 -386.804 294.939 -384.739 296.22C-387.49 295.758 -390.244 295.223 -392.944 294.256C-409.406 289.035 -427.431 275.539 -443.747 270.384C-446.407 263.376 -448.615 269.146 -454.821 261.564C-456.865 262.582 -460.765 263.893 -459.523 266.142C-459.769 267.159 -458.788 268.269 -457.808 269.379C-448.623 272.454 -443.157 277.766 -434.524 279.64C-416.457 295.939 -395.388 304.781 -372.777 310.9C-372.679 311.543 -372.583 312.114 -372.626 312.835C-371.696 312.725 -370.998 312.193 -370.594 311.529C-370.086 311.652 -369.649 311.778 -369.141 311.901C-366.961 312.459 -364.784 312.945 -362.608 313.43C-361.768 314.618 -361 315.809 -360.298 317.146C-359.122 319.542 -356.901 321.105 -353.524 321.038C-343.9 320.788 -343.82 321 -338.439 329.479C-337.979 330.179 -337.731 330.96 -337.484 331.74C-335.752 331.885 -334.709 332.777 -334.426 334.419C-332.138 334.109 -330.132 330.432 -327.464 334.133C-326.092 336.018 -324.155 337.665 -322.096 338.802C-321.214 339.269 -320.404 339.739 -319.59 340.281C-319.949 340.296 -320.233 340.38 -320.518 340.463C-319.937 340.583 -319.211 340.769 -318.556 340.958C-317.591 341.709 -316.691 342.607 -315.917 343.941C-314.37 346.61 -311.82 343.917 -309.926 342.761C-304.361 346.99 -296.579 342.142 -291.196 347.169C-287.389 347.085 -283.396 346.274 -279.769 347.06C-275.634 347.969 -271.891 349.829 -267.395 348.997C-264.114 348.359 -262.031 350.071 -260.968 353.191C-260.801 353.76 -258.977 354.404 -258.558 354.099C-255.554 351.963 -252.63 353.137 -249.655 353.806C-245.283 349.96 -239.793 350.597 -234.616 350.601C-229.511 350.607 -224.121 348.804 -219.369 352.492C-218.478 353.174 -216.5 352.302 -215.988 350.771C-215.344 348.948 -214.99 347.064 -212.472 347.104C-210.531 347.097 -208.668 346.948 -206.736 346.725C-198.861 345.899 -190.613 347.143 -183.167 342.883C-182.255 342.342 -180.428 343.058 -179.118 343.436C-177.952 343.819 -177.098 345.366 -175.578 343.866C-173.3 341.544 -170.262 341.994 -167.454 342.095C-161.407 342.278 -158.683 342.094 -156.298 340.631C-152.72 338.471 -148.765 336.727 -146.11 333.095C-145.089 331.687 -143.291 329.96 -141.715 329.823C-137.345 329.428 -133.361 328.402 -129.714 326.168C-122.214 326.723 -116.188 322.881 -110.076 319.395C-109.305 318.932 -107.899 318.155 -107.982 317.871C-109.644 312.403 -103.937 311.306 -102.281 307.859C-100.625 304.412 -99.1187 300.827 -97.6121 297.243C-96.0596 296.532 -94.435 295.818 -92.8106 295.104C-92.2994 295.299 -91.8748 295.138 -91.6112 294.552C-90.0556 293.913 -88.3566 293.268 -86.7293 292.626C-84.5653 294.551 -82.5714 295.835 -78.9991 293.532C-75.2173 291.076 -70.4408 290.089 -66.0378 288.758C-64.5452 288.337 -63.2708 287.854 -62.8961 286.472C-62.3325 284.436 -61.9518 283.198 -59.312 284.456C-57.261 285.378 -54.1953 284.749 -52.5603 286.048C-48.6178 289.266 -46.7189 284.73 -43.7909 284.251C-42.2894 284.046 -42.5329 281.611 -43.3637 280.639C-45.5541 278.068 -48.2264 276.021 -50.4138 273.522C-52.5266 271.093 -53.9031 272.587 -56.1676 273.471C-60.6248 275.235 -65.4722 274.499 -70.2359 274.048C-70.5977 273.991 -70.9053 273.5 -71.276 273.227C-70.9318 272.854 -70.5966 272.265 -70.2377 272.25C-66.4424 271.879 -65.1599 268.088 -62.3477 266.534C-61.0133 265.761 -58.6442 269.186 -57.9694 266.355C-56.9259 261.998 -54.0536 260.155 -50.3772 258.638C-46.0666 256.808 -41.753 255.049 -37.5977 252.937C-33.0175 250.665 -28.524 248.036 -24.0245 245.551C-22.8279 244.926 -21.4365 243.791 -20.2822 243.887C-15.3749 244.333 -11.8802 241.889 -9.36572 238.335C-6.71656 234.56 -3.19962 234.415 0.751059 234.325C3.12262 234.3 5.64944 234.556 7.36142 232.472C10.7166 228.38 15.8287 226.805 19.9487 223.832C21.7648 222.535 19.0255 222.36 18.0719 221.896C17.3394 221.566 16.7385 220.944 16.0719 220.468C16.419 220.166 16.8261 219.574 17.185 219.559C22.7895 219.473 28.2516 217.668 33.9019 220.456C37.7915 222.381 41.9732 220.915 45.8926 218.31C52.4 213.945 53.3843 213.402 55.2756 206.925C56.8492 201.468 57.8159 200.494 62.7626 200.147C67.0633 199.827 71.4623 200.15 74.3061 195.863C74.7791 195.125 75.7456 194.151 76.5351 194.118C83.2133 193.916 86.3808 188.754 90.1637 184.572C92.9828 181.437 96.7586 178.838 97.5751 174.203C101.868 171.942 104.73 168.086 108.344 165.062C112.378 161.733 112.403 155.333 118.083 153.59C119.007 153.337 118.673 152.2 117.433 151.748C116.557 151.424 115.555 151.537 114.676 151.142C114.383 151.01 114.087 150.806 113.794 150.675C115.497 148.376 117.188 145.79 118.811 143.279C117.159 145.072 114.155 147.209 111.584 149.399C111.366 149.336 111.217 149.198 111.001 149.207C108.687 148.871 108.04 150.623 107.548 152.656C107.239 153.891 106.155 155.517 105.096 155.992C104.319 156.312 103.69 156.769 102.987 157.157C102.979 156.942 103.038 156.652 103.098 156.362C102.473 156.891 102.204 157.333 101.934 157.775C98.2303 160.372 95.5811 164.147 91.9517 166.812C89.2978 168.719 86.697 171.917 83.8977 172.032C80.4554 172.245 76.9071 169.874 73.4059 168.651C72.0933 168.202 70.7836 167.824 69.4681 167.303C69.0315 167.177 68.6551 166.761 68.3532 166.414C67.2118 164.879 67.8331 166.004 69.3975 165.58C72.9539 164.644 73.7356 162.67 73.5314 159.443C73.333 156.36 74.8757 157.16 76.9178 157.867C80.1978 158.954 78.4745 155.502 79.4352 154.384C80.3241 153.269 81.2484 153.016 81.4479 154.374C81.9233 158.956 84.3108 157.563 86.7789 156.384C89.1011 158.661 91.9033 158.618 94.7449 157.783C95.1726 157.693 95.7321 157.311 95.861 156.946C95.9928 156.653 95.5384 156.096 95.2395 155.821C94.1935 154.857 93.1986 153.388 91.9666 153.151C86.4557 152.011 84.2389 148.795 84.0122 143.268C85.0034 141.143 85.4924 139.038 84.9222 137.407C86.2377 137.928 87.4695 138.166 88.8157 137.679C88.615 138.047 88.4803 138.268 88.4115 138.343C88.7586 138.041 89.0311 137.67 89.3782 137.368C90.0124 137.055 90.569 136.601 91.1826 135.784C91.7963 134.968 93.2435 135.197 94.5561 135.646C94.0831 136.385 93.5383 137.126 93.0712 138.008C90.6585 137.028 85.8313 142.043 88.7141 142.213C89.0882 137.308 91.3756 142.247 92.3392 141.201C93.1329 139.515 94.8714 138.078 96.5323 136.5C99.531 137.743 102.521 138.771 105.577 139.652C110.45 141.034 115.041 140.773 118.149 135.901C121.053 131.324 125.312 129.999 130.444 130.651C131.816 130.811 133.312 130.462 134.756 130.618C135.405 130.664 135.976 130.568 136.55 130.545C136.436 131.268 136.325 132.064 136.073 132.937C136.899 132.04 137.51 131.153 138.049 130.268C138.477 130.178 138.901 130.017 139.254 129.859C136.688 135.644 132.26 141.649 127.478 147.741C123.646 152.499 119.675 157.335 115.978 161.873C112.133 166.272 108.416 170.307 105.844 174.223C107.077 172.735 104.373 178.669 101.566 180.366C106.519 180.163 115.009 171.547 121.775 169.975C124.792 166.4 127.362 164.21 129.928 163.673C131.015 162.119 131.752 160.795 131.923 159.709C137.018 161.226 150.065 139.265 151.603 143.444C153.026 139.575 153.387 136.109 156.333 130.812C155.281 129.705 154.221 131.905 153.148 130.295C154.762 127.569 155.676 125.303 155.261 123.954C151.758 129.705 154.005 131.914 151.481 136.978C150.113 135.165 147.617 137.424 147.496 139.73C148.391 142.282 149.89 136.756 150.87 137.866C149.924 139.343 151.722 139.341 150.076 141.278C148.49 137.676 145.22 149.098 141.307 150.121C140.414 149.367 140.017 148.449 140.46 146.993C145.599 140.814 141.728 142.843 142.591 139.356C144.193 136.343 145.619 137.794 147.187 135.717C145.021 133.72 147.832 128.644 150.487 125.012C152.007 119.989 152.154 114.807 152.531 109.974C152.734 109.678 152.941 109.454 153.144 109.158C155.473 106.33 157.278 103.021 159.233 99.8492C159.706 99.1109 159.234 98.1237 158.011 98.1019C155.206 98.0732 151.926 96.9855 149.783 99.0864C146.881 101.938 142.731 104.193 143.38 109.487C143.498 110.632 142.708 112.39 141.732 113.149C140.338 114.213 138.869 115.208 137.475 116.271C137.322 116.062 137.164 115.709 137.075 115.281C136.748 116.085 136.413 116.674 136.077 117.263C133.842 118.865 131.533 120.397 129.226 122.002C125.291 120.725 121.291 119.595 117.419 118.1C116.029 117.51 114.794 117.201 113.447 117.688C113.094 117.846 112.547 118.516 112.547 118.516C116.996 123.582 110.931 124.693 109.165 127.21C107.877 129.132 105.584 129.298 103.424 129.243C102.221 126.201 108.129 124.736 106.549 121.278C106.824 120.979 107.168 120.606 107.441 120.235C110.16 118.182 113.467 114.668 115.967 110.755C118.676 106.689 121.035 102.854 122.541 100.994C121.907 101.308 120.96 99.2619 121.218 98.5324C124.153 96.4708 125.095 86.1509 126.01 90.9304C128.037 87.7558 126.974 86.3615 126.613 84.5788C123.982 92.3078 119.274 98.4683 118.855 104.022C115.447 105.096 113.491 109.993 111.342 113.676C110.465 115.078 109.725 116.331 108.902 117.299C108.807 116.728 108.418 116.025 108.179 115.46C108.099 115.247 107.375 115.133 107.166 115.285C106.322 115.751 105.708 116.567 104.859 116.89C103.585 117.374 102.023 117.869 101.097 116.325C100.401 115.131 100.058 113.78 101.007 112.375C101.753 111.266 102.28 110.094 102.878 108.919C104.308 108.716 105.968 108.864 106.943 108.105C107.85 107.421 108.213 105.752 108.375 104.451C108.583 102.502 108.288 100.572 108.786 98.6827C109.183 99.6011 109.08 100.612 110.278 98.262C110.243 97.4007 110.345 96.39 110.591 95.3733C110.792 95.0056 110.849 94.6438 110.906 94.2819C112.551 88.8222 117.098 82.2369 117.648 78.1162C116.1 80.6961 114.693 83.1983 113.211 85.6317C113.224 84.1932 113.165 82.7577 113.032 81.2533C113.017 80.8945 112.497 80.4844 112.132 80.3555C111.986 80.2896 111.423 80.6003 111.288 80.8216C110.007 82.8872 110.164 84.9658 111.539 86.9225C111.691 87.132 111.981 87.1919 112.274 87.3237C111.469 88.7228 110.589 90.0531 109.78 91.3804C108.794 90.1266 107.667 88.9506 107.89 87.3598C108.109 85.6971 107.967 83.9775 107.753 82.2607C109.198 80.6916 110.566 78.9818 111.351 77.0803C109.751 76.6426 112.648 73.648 110.486 73.521C109.975 73.3262 109.478 73.4904 108.987 73.7981C110.377 70.8652 110.047 68.0748 109.854 65.1349C109.656 62.0515 110.079 60.0929 113.692 58.7944C115.535 58.1436 116.915 56.721 117.628 54.8224C118.716 55.0654 119.964 53.9357 121.2 52.519C121.183 55.6113 124.173 56.6391 123.109 60.4932C123.905 58.8788 124.72 57.6951 125.716 57.4385C126.699 58.6204 125.516 61.3292 126.986 62.1316C127.704 58.5793 129.913 54.6062 132.999 50.9567C129.934 49.8601 133.314 44.6169 134.26 43.1401C135.407 44.8186 134.655 47.5097 132.808 49.8142C136.086 49.1046 132.103 53.6537 134.546 53.6253C136.78 50.2265 134.197 38.1099 140.545 35.1175C136.919 43.103 139.034 45.6045 138.316 50.8825C141.081 53.4293 143.199 52.4796 145.048 50.2468L143.443 49.6657C144.006 47.6294 144.859 47.3788 145.529 46.2009C145.777 46.9816 146.094 47.6876 146.696 46.5844C148.02 47.321 145.454 47.8577 145.183 50.0256C147.44 47.201 149.336 42.5937 151.742 39.9067C153.554 31.4924 160.712 20.1987 160.642 13.2275C159.031 16.0257 158.019 22.8974 154.496 22.898C152.222 20.0435 157.66 17.6636 155.359 15.8887C153.293 19.8558 154.102 22.0515 151.263 22.9588C151.644 21.7209 150.495 21.768 150.669 20.7543C152.535 17.1548 155.54 13.2929 157.091 14.3078C155.141 14.1002 159.44 11.9827 157.398 11.2755C156.443 12.5369 155.062 12.1622 153.851 12.4276C152.603 17.0801 150.777 19.8871 148.34 20.0589C147.59 14.0503 150.44 9.90723 150.685 5.36768C152.373 4.43573 153.907 3.29433 155.215 1.87465C156.385 0.604413 156.045 -0.675787 155.487 -2.01893C155.009 -3.14969 153.188 -3.72207 154.194 -5.48887C155.533 -7.91635 156.348 -10.8257 158.135 -12.8402C162.405 -17.401 165.211 -22.6207 167.198 -28.5259C167.195 -28.5976 167.267 -28.6006 167.338 -28.6035C167.56 -28.4688 167.784 -28.2623 168.074 -28.2023C167.436 -22.712 168.959 -18.892 166.311 -13.3193C166.805 -13.5552 167.003 -13.9947 167.347 -14.3683C166.77 -10.8936 166.269 -7.35008 165.77 -3.73478C169.602 -1.44745 165.53 -7.82307 168.628 -7.66255C169.297 -5.38927 167.955 2.21495 165.377 2.46447C166.096 0.709452 166.812 -1.11732 167.247 -2.78879C165.903 -2.23041 165.136 0.10178 164.357 2.14683L164.286 2.14976C164.289 2.22154 164.223 2.36801 164.226 2.43979C163.701 3.68354 163.174 4.8555 162.334 5.39327C162.722 6.0963 162.201 10.9347 163.262 8.73437C163.259 8.66259 163.322 8.44431 163.39 8.36959C162.106 15.612 159.939 22.3872 158.335 28.8519C155.94 37.0744 154.104 44.9146 154.434 52.9535C151.125 54.671 149.963 57.8821 149.811 61.1956C147.649 69.84 142.752 76.6553 138.556 81.285C141.898 83.88 133.378 88.2557 133.399 92.281C132.463 92.2475 131.916 92.9171 131.785 91.4845C131.561 100.049 122.254 101.006 119.607 110.102C122.05 106.551 120.672 115.019 124.196 108.044C123.617 106.199 120.936 109.185 122.062 106.838C125.164 108.867 128.516 101.181 132.778 99.9276C132.439 93.3989 138.117 89.8588 141.854 82.8034C143.212 82.6039 147.375 82.4332 146.674 79.3704C145.326 83.3081 145.027 77.7843 144.283 77.1678C145.853 73.3647 148.241 70.2471 150.34 67.0695C150.859 69.2051 151.578 70.973 152.265 71.9514C152.589 71.0754 152.844 70.274 153.167 69.398C153.816 69.4432 154.169 69.285 155.009 70.4728C157.572 66.3415 155.951 65.4014 156.144 63.0927C159.351 65.909 162.186 52.6356 165.528 49.9822C164.224 49.7481 164.106 48.6026 164.807 46.4169C165.482 47.1082 165.374 47.9754 166.556 46.9923C172.313 27.8473 176.622 10.1996 181.081 -7.31044C180.388 -13.6808 182.045 -31.1478 188.013 -29.3795C193.825 -50.6837 194.265 -73.2773 195.306 -96.9742C192.18 -104.827 193.215 -114.647 193.564 -121.923C193.465 -120.84 191.968 -124.014 192.604 -126.054C194.738 -133.618 197.694 -121.158 197.663 -114.901C197.367 -120.353 201.676 -115.21 203.156 -114.192C204.793 -102.324 204.688 -92.6137 206.194 -82.1785C205.95 -79.3646 204.383 -79.0127 204.3 -75.7739C206.645 -71.1967 202.386 -66.3488 202.466 -60.8879C202.452 -57.7239 204.926 -55.2371 204.622 -52.1331C204.336 -48.5984 201.508 -45.6784 201.198 -42.7179C200.984 -40.9117 201.763 -37.7083 201.681 -36.1951C201.675 -36.3386 200.566 -37.084 200.626 -37.3741C200.253 -34.1953 201.765 -32.388 201.59 -29.6487C201.539 -29.1434 199.673 -29.0668 199.61 -28.8485C197.891 -25.1832 200.116 -20.0259 199.497 -15.8306C197.165 -13.0747 197.463 -19.8453 196.284 -15.2675C198.252 -14.6291 196.996 -10.1919 198.006 -8.36401C194.077 -5.97412 195.835 3.58797 192.807 1.62716C192.527 5.3054 192.377 10.4162 191.428 15.3441C190.477 20.2002 189.38 24.9904 188.289 28.1986C188.744 27.0296 189.548 27.3561 190.35 27.6109C187.937 35.4027 187.179 37.9503 187.006 42.4869C186.423 42.2951 186.603 41.4249 186.157 41.0837C184.386 46.98 183.102 52.4968 181.212 57.2476C179.322 61.9985 177.48 66.1721 175.677 69.5533C176.017 70.8335 176.708 71.8837 176.701 73.4657C174.193 75.4379 174.516 76.2874 175.118 78.7072C173.242 80.294 171.299 78.5043 171.148 81.8178C174.197 79.0325 171.342 86.555 170.787 88.8066C169.69 88.3483 168.875 91.2576 167.667 89.8691C166.289 89.5662 168.327 86.6786 167.299 86.1456C164.621 92.7262 166.304 93.448 168.746 95.1453C170.677 93.1249 172.453 89.0977 174.371 86.7902C172.011 83.5798 178.501 73.5356 180.796 71.6441C180.275 72.9596 181.423 72.9126 181.04 74.0786C180.316 73.9645 179.497 73.2791 178.898 74.4541C179.916 81.7458 175.256 87.3292 171.405 95.1082C174.657 93.7526 172.235 97.8062 174.363 98.8692C177.844 90.8179 181.175 82.6288 184.4 75.3787C181.925 78.1404 183.963 71.7299 183.838 70.4409C185.496 68.7912 189.525 63.5932 189.382 61.8735C188.783 63.0484 188.048 62.6472 187.244 62.3207C191.783 59.043 192.577 52.1083 195.359 46.3143C192.896 52.8861 195.306 50.2709 194.363 55.3423C196.627 50.9356 198.255 48.5681 197.154 44.5151L198.901 45.0187C199.547 39.7438 201.949 33.4621 204.481 26.8156C205.709 23.458 207.081 20.0945 208.091 16.6739C208.955 13.1874 209.531 9.71274 209.752 6.32455C210.47 6.29511 211.426 6.83107 211.807 5.59321C211.967 -6.27635 219.571 -22.4774 217.882 -28.5913C220.32 -28.7632 220.265 -23.0811 218.353 -20.63C222.662 -20.7349 220.726 -27.6295 220.536 -30.4976C220.542 -30.354 221.756 -30.5476 221.765 -30.3323C221.652 -34.8571 219.114 -37.1257 219.35 -41.8806C219.606 -47.9304 222.998 -49.3636 222.743 -57.3338C219.667 -55.1945 223.34 -65.5545 221.994 -68.5908C221.305 -62.5952 220.876 -66.0286 221.182 -70.8582C221.343 -75.682 221.587 -82.0189 223.674 -81.9607C223.465 -78.2854 224.999 -77.7012 225.389 -75.2008C225.208 -81.3765 226.046 -78.4631 228.514 -79.6428C227.878 -84.6495 229.58 -85.2226 229.797 -88.6825C227.877 -88.1724 228.063 -83.6505 226.695 -81.9408C226.705 -83.4511 226.451 -84.3753 226.126 -85.2966C226.881 -87.9159 229.974 -89.6245 227.359 -92.0336C228.442 -91.9342 229.288 -92.3284 229.827 -93.2133C230.488 -84.1095 231.031 -77.8767 231.066 -71.7669C230.668 -65.7112 229.761 -59.7785 227.733 -51.3553C228.161 -46.1962 227.081 -40.9754 226.144 -35.7604C225.211 -30.4736 224.564 -25.1986 225.006 -19.6807C223.855 -19.7053 223.861 -16.0389 222.543 -16.6319C221.4 -2.42131 212.539 11.1711 213.829 23.3407C214.925 20.2761 215.314 15.7306 217.049 15.9471C216.4 19.4247 213.456 35.2909 210.391 30.6714C209.926 33.3507 209.742 35.8746 208.31 39.5282C210.276 41.8921 210.164 33.9161 211.773 34.5691C210.54 39.5805 208.203 50.9642 203.925 53.5841C201.099 63.5499 197.343 71.9002 194.129 79.4374C190.769 86.9087 187.298 93.4498 183.066 98.9438C185.661 100.85 180.9 100.471 180.124 102.587C179.524 105.488 183.3 102.889 182.374 104.868C181.841 105.896 182.215 106.24 181.891 107.116C180.333 111.206 178.632 110.054 177.073 112.347C177.945 114.324 174.829 118.981 172.831 122.874C168.319 121.549 167.013 130.015 164.657 133.922C160.171 142.014 153.252 150.351 147.193 158.651C140.911 166.746 135.418 174.808 130.832 180.46C139.277 172.493 139.818 168.157 147.616 161.941C150.38 155.717 154.801 149.568 159.507 143.336C163.991 136.969 168.317 130.249 171.712 123.639C172.971 124.522 174.201 122.961 175.499 123.052C175.635 124.628 174.306 127.271 174.373 128.922C177.689 125.622 180.057 113.231 186.828 108.28C185.334 106.903 188.021 104.061 189.222 101.783C186.928 96.7004 193.909 81.1 197.125 75.3601C198.088 76.0397 193.204 84.9395 195.605 82.1089C196.913 78.9637 198.217 75.6749 199.972 76.3938C199.549 78.3524 196.693 82.3519 197.868 82.9508C200.116 79.9108 201.972 72.5731 204.835 75.7629C207.101 71.4281 202.056 76.3802 203.877 71.7041C204.449 71.6088 204.928 71.014 205.308 69.7761C208.526 69.3566 207.298 72.7142 208.014 74.4103C211.507 70.1689 209.304 69.037 208.488 68.4234C211.394 65.6441 209.496 71.9769 211.917 69.6489C214.836 65.431 216.496 60.3302 217.257 57.8544C216.733 59.0982 216.027 59.4147 215.393 59.7283C216.396 57.8898 215.181 54.5604 217.179 54.1909C216.873 55.4976 216.085 57.3273 216.677 57.7345C220.252 51.9799 222.047 41.4093 225.952 38.4452C226.046 35.4935 223.57 39.9808 223.937 36.6585C225.03 29.9992 227.748 31.3975 229.372 27.1609C228.69 26.3261 225.944 27.7329 226.78 25.326C228.347 21.4512 228.333 14.1183 231.051 15.5167C231.247 16.8027 229.687 24.344 231.011 21.5576C231.311 14.8589 233.581 10.5958 231.577 7.29886C233.263 2.84396 234.584 8.75722 235.849 4.53535C235.853 2.88154 233.595 3.90882 233.94 1.80965C235.325 0.530587 240.378 -11.252 236.783 -5.99993C238.311 -10.8078 238.417 -11.7468 239.86 -18.6362C238.984 -18.9598 237.563 -18.542 237.642 -20.1269C240.342 -29.6562 240.902 -38.81 241.763 -47.6168C242.409 -56.4147 243.21 -64.9314 244.438 -73.5376C243.413 -73.9988 242.852 -71.8908 242.638 -73.6075C243.665 -80.1204 244.596 -85.4789 242.188 -89.8378C243.049 -89.8731 243.504 -89.3165 244.033 -88.6911C242.974 -93.4648 244.306 -99.5588 245.278 -103.912C247.707 -100.777 245.655 -94.7251 249.589 -93.4486C249.254 -101.631 244.226 -105.02 245.207 -114.407C243.778 -115.93 242.962 -111.295 242.769 -114.235C243.486 -117.787 243.302 -118.786 241.91 -121.173C243.991 -121.259 243.85 -124.704 244.467 -127.174C241.366 -136.178 244.647 -145.587 240.077 -153.596C239.957 -158.264 239.817 -163.435 239.166 -168.801C238.299 -174.157 237.283 -179.652 236.057 -184.994C233.675 -195.752 230.816 -205.845 228.087 -212.779C229.395 -214.198 226.961 -219.203 229.476 -219.234C225.428 -225.036 227.97 -229.669 223.932 -233.458C224.278 -232.034 224.546 -230.751 223.464 -230.851C222.138 -233.385 222.198 -233.675 220.493 -238.422C221.34 -238.816 222.557 -238.938 221.527 -241.268C216.687 -243.586 217.566 -253.688 216.404 -259.248C215.186 -259.126 215.765 -257.281 215.445 -256.333C213.833 -260.581 210.001 -268.116 212.571 -270.307C214.328 -267.791 211.689 -265.525 214.239 -264.695C213.744 -266.257 214.958 -266.45 215.057 -267.533C207.005 -278.059 201.151 -294.571 198.243 -302.36C197.052 -305.116 194.522 -305.443 193.895 -306.712C192.324 -309.954 193.388 -313.809 189.441 -318.895C190.125 -317.989 188.733 -320.376 187.189 -322.973C186.642 -324.029 179.689 -334.025 180.32 -337.933C181.418 -339.201 185.518 -330.382 184.731 -333.8C182.5 -337.376 181.169 -338.256 180.152 -342.025C179.054 -340.757 177.718 -341.781 176.789 -343.397C175.719 -344.934 174.838 -347.127 174.86 -348.35C177.768 -345.809 180.469 -341.319 182.927 -340.988C178.726 -346.999 168.555 -356.576 173.709 -358.872C173.219 -358.564 171.931 -360.165 172.407 -360.832C176.346 -357.686 176.324 -359.986 179.884 -357.328C173.428 -362.24 170.297 -368.438 166.892 -374.338C163.418 -380.163 160.159 -385.997 152.708 -388.854C153.459 -389.82 154.586 -388.644 155.343 -389.466C153.066 -392.392 151.762 -390.901 149.145 -395.107C150.201 -395.654 149.355 -396.985 150.265 -397.598C148.161 -399.812 145.896 -402.451 144.066 -403.239C147.604 -399.358 148.069 -396.789 146.997 -394.875C142.698 -401.529 138.192 -402.71 135.87 -410.236C138.478 -406.245 139.527 -408.733 142.066 -404.667C142.423 -406.479 144.754 -407.509 141.744 -410.765C140.972 -410.302 140.307 -408.98 139.184 -410.085C141.655 -411.193 132.572 -424.049 127.781 -428.67C125.292 -427.992 128.637 -425.326 126.806 -424.388C126.314 -425.877 124.362 -427.882 122.267 -429.881C125.03 -429.132 124.363 -429.608 125.719 -431.605C123.433 -434.746 123.141 -431.355 121.103 -433.716C122.839 -435.225 117.578 -439.036 118.216 -441.003C113.092 -443.238 113.213 -445.543 114.771 -446.11C110.376 -448.087 109.516 -449.777 105.886 -450.635C105.289 -452.911 106.511 -451.164 107.538 -452.428C103.455 -455.568 104.038 -455.376 101.959 -458.742C100.201 -459.533 98.6935 -459.471 96.7979 -460.112C95.983 -462.451 93.349 -463.566 97.0684 -462.28C87.7649 -471.749 79.9638 -469.128 76.0165 -474.215C72.692 -471.13 69.5461 -475.962 67.0097 -479.956C64.9282 -479.871 68.0268 -476.188 65.5787 -478.028C63.7983 -481.119 61.7152 -482.831 57.5986 -485.035C57.8691 -487.203 60.2395 -485.502 61.2897 -486.193C58.5298 -486.87 56.1034 -489.934 55.1045 -489.749C56.3059 -488.505 56.9301 -487.308 56.9742 -486.231C54.6785 -487.863 53.5478 -487.385 50.789 -489.788L51.8068 -491.268C41.6945 -494.16 31.7815 -504.467 26.6736 -504.545C23.2295 -506.129 25.4132 -507.225 23.6976 -508.736C23.2217 -508.07 23.4694 -507.289 23.7889 -506.511C20.8137 -507.18 10.82 -517.699 15.6815 -511.355C10.9612 -514.253 10.6253 -517.187 6.94412 -517.54C9.30571 -516.055 8.56619 -514.802 6.07576 -515.922C7.94487 -515.927 7.74839 -517.213 4.88435 -518.678C3.38879 -518.329 1.05087 -519.239 -1.13185 -519.869C2.39398 -519.798 -5.37614 -523.433 -7.11347 -523.722C-6.3722 -523.177 -5.05377 -522.584 -5.32027 -522.07C-7.51476 -522.986 -13.6293 -524.82 -14.6565 -527.079C-13.6664 -527.479 -10.6177 -525.016 -9.93817 -525.978C-13.0017 -528.8 -14.9702 -527.713 -18.7731 -529.283C-18.8032 -533.523 -30.5846 -531.53 -29.8428 -536.234C-25.9809 -533.229 -21.8032 -533.041 -18.2567 -532.467C-14.779 -531.819 -11.8011 -531.079 -10.3649 -527.614C-8.69118 -530.631 -6.09165 -526.855 -0.924948 -525.341C-1.23736 -527.701 1.35705 -525.794 2.26661 -526.407C-2.38774 -529.451 -1.01037 -527.423 -2.4547 -527.579C-3.1478 -528.701 -6.21246 -529.798 -4.82105 -530.933C-3.57439 -530.337 -1.8764 -529.257 -1.39456 -529.78C-6.00188 -531.676 -7.87562 -533.54 -8.02099 -535.332C-11.1457 -536.138 -13.4296 -537.482 -16.5207 -539.225C-19.7495 -540.818 -23.7108 -542.741 -29.9866 -545C-32.4269 -544.9 -29.1688 -542.589 -33.0976 -543.722C-46.463 -552.305 -61.3079 -553.134 -72.4239 -557.711C-75.3285 -556.657 -71.3977 -553.726 -76.9262 -555.297C-79.4402 -556.992 -78.3302 -557.972 -77.0135 -559.176C-88.1259 -560.158 -93.8192 -565.748 -105.364 -568.51C-111.246 -564.674 -126.182 -572.977 -134.127 -570.35C-128.579 -570.075 -121.618 -568.635 -119.353 -565.995C-124.121 -564.793 -137.721 -566.824 -135.359 -570.588C-142.01 -569.74 -146.77 -575.368 -149.44 -572.095C-150.122 -576.453 -163.555 -577.915 -171.37 -577.379C-170.221 -577.426 -173.059 -578.244 -176.016 -578.482C-183.807 -579.098 -192.544 -580.033 -201.124 -580.616C-207.814 -580.701 -214.486 -580.356 -220.564 -579.532C-220.59 -580.178 -220.548 -580.898 -220.296 -581.771C-227.597 -580.969 -234.825 -580.169 -241.982 -579.372C-241.845 -579.522 -241.779 -579.668 -241.937 -580.021C-245.485 -578.869 -246.789 -579.103 -250.141 -578.462C-252.573 -578.147 -254.936 -577.906 -257.367 -577.591C-260.432 -578.687 -265.925 -579.397 -269.023 -579.557C-266.732 -579.795 -267.73 -581.336 -264.489 -581.181C-259.285 -580.532 -252.912 -581.153 -249.274 -583.603C-246.816 -583.272 -246.72 -582.701 -247.977 -581.786C-234.258 -583.859 -223.914 -582.342 -211.388 -585.444C-214.46 -583.233 -199.743 -583.764 -203.068 -585.929C-195.03 -584.533 -184.764 -583.157 -174.605 -582.639C-169.488 -582.345 -164.449 -582.192 -159.709 -582.315C-157.338 -582.34 -155.041 -582.434 -152.89 -582.594C-150.734 -582.611 -148.725 -582.693 -146.79 -582.845C-152.708 -583.393 -163.185 -586.414 -168.357 -584.548C-165.362 -586.9 -173.575 -585.557 -174.398 -584.588L-174.256 -586.392C-199.967 -589.22 -227.116 -588.538 -253.326 -587.75ZM-578.179 -402.451C-579.269 -404.491 -576.164 -405.912 -574.545 -406.769C-573.637 -405.656 -577.401 -402.77 -578.179 -402.451ZM181.332 70.6875C178.165 70.6017 182.553 65.3889 181.745 64.9907C184.008 62.3096 182.877 68.0358 181.332 70.6875ZM200.36 35.0371C197.14 33.6593 201.227 31.6224 202.061 27.4181C203.245 28.2324 200.697 32.7226 200.36 35.0371ZM190.814 26.6572C189.214 26.2195 190.886 21.4057 192.134 20.2761C193.378 20.8002 191.025 24.7792 190.814 26.6572ZM218.596 -49.7583C218.196 -50.7485 218.203 -52.3305 218.414 -54.2085C219.284 -54.0285 220.151 -53.9202 220.388 -55.1522C221.646 -54.2691 220.237 -48.3158 218.596 -49.7583ZM223.901 -85.2054C222.208 -84.417 222.658 -87.4551 221.51 -87.408C219.715 -78.563 221.381 -69.5004 216.544 -66.498C218.388 -74.1228 216.538 -77.1386 215.364 -82.9859C215.951 -84.448 217.001 -85.1381 217.197 -87.375C218.632 -85.7082 218.098 -84.6799 217.783 -81.8629C220.119 -82.7496 221.362 -85.7483 221.518 -90.7156C223.782 -91.5993 224.175 -89.0272 223.901 -85.2054ZM-132.653 -546.685C-132.565 -548.055 -128.676 -546.129 -127.022 -546.125C-127.581 -545.743 -128.212 -545.357 -129.068 -545.178C-130.09 -545.568 -131.041 -545.96 -132.061 -546.278C-132.067 -546.421 -132.216 -546.559 -132.653 -546.685ZM-53.6574 -540.146C-49.4661 -537.874 -49.9951 -538.499 -45.026 -536.546C-43.5886 -534.808 -45.4499 -532.862 -49.3512 -535.075C-44.7593 -537.06 -54.2368 -536.744 -53.6574 -540.146ZM183.938 -254.969C185.457 -254.744 186.68 -249.473 187.641 -247.068C184.301 -247.866 185.478 -250.718 183.938 -254.969ZM211.681 -199.092C212.508 -192.943 211.765 -190.037 211.832 -183.137C208.472 -186.163 209.64 -192.754 207.294 -199.128C208.804 -199.118 209.931 -197.942 211.681 -199.092ZM213.495 -165.375C215.612 -164.599 213.72 -161.646 213.462 -160.916C212.119 -160.358 212.474 -163.967 211.257 -163.845C210.739 -167.707 214.082 -161.589 213.495 -165.375ZM212.161 -178.621C213.689 -178.181 214.453 -175.336 215.98 -174.896C214.472 -173.108 217.733 -165.477 215.468 -164.593C216.336 -169.734 211.966 -172.862 212.161 -178.621ZM203.812 -170.083C204.817 -166.601 206.095 -163.49 207.123 -157.708C204.14 -155.07 202.785 -160.047 200.947 -166.298C199.253 -172.556 197.93 -180.267 196.945 -183.246C197.612 -188.018 199.856 -189.405 201.906 -183.234C201.398 -183.357 201.076 -184.206 200.507 -184.039C201.864 -177.264 202.806 -173.564 203.812 -170.083ZM214.221 -159.941C216.629 -152.059 217.464 -133.472 214.123 -137.792C216.115 -143.554 212.732 -150.677 214.221 -159.941ZM198.86 -189.148C197.379 -188.44 196.842 -191.007 196.189 -192.921C197.756 -193.273 199.564 -191.262 198.86 -189.148ZM180.081 -196.502C181.46 -189.153 182.484 -181.718 183.509 -176.008C184.617 -173.537 185.969 -177.403 185.303 -179.605C187.199 -178.964 185.985 -175.247 186.561 -173.473C185.496 -173.142 185.081 -174.491 183.951 -174.013C182.685 -173.314 184.734 -168.941 184.75 -166.785C180.463 -173.151 178.748 -179.911 177.491 -187.768C176.898 -191.698 176.294 -195.916 175.609 -200.345C174.709 -204.766 173.366 -209.456 171.719 -214.565C172.574 -214.744 173.43 -214.923 173.164 -216.134C174.637 -213.534 175.984 -210.498 177.199 -207.169C177.841 -205.541 178.417 -203.768 178.921 -201.991C179.284 -200.136 179.717 -198.357 180.081 -196.502ZM117.741 50.5759C117.652 50.1481 117.703 49.6428 117.9 49.2033C118.047 49.2692 118.188 49.1915 118.337 49.3292C118.106 50.7047 117.989 51.3566 117.788 51.7243C117.771 51.2936 117.828 50.9318 117.741 50.5759ZM95.629 109.216C95.9279 109.491 96.2297 109.838 96.5286 110.114C96.3968 110.407 96.2651 110.7 96.1333 110.993C95.9121 110.858 95.6908 110.723 95.4697 110.589C95.2485 110.454 95.0272 110.319 94.806 110.184C95.0814 109.885 95.3566 109.587 95.629 109.216ZM-582.512 -47.0299C-581.69 -46.2727 -581.209 -45.0702 -580.989 -43.2099C-580.978 -42.9228 -580.966 -42.6357 -580.954 -42.3486C-581.209 -41.5472 -580.94 -40.2641 -580.744 -38.978C-582.213 -41.506 -582.613 -44.2218 -582.512 -47.0299ZM-362.581 -557.243C-359.958 -558.141 -358.783 -557.543 -357.676 -556.869C-360.871 -555.875 -364.236 -555.521 -367.424 -554.384C-368.073 -554.429 -368.651 -554.478 -369.087 -554.604C-362.423 -556.89 -362.888 -554.211 -362.581 -557.243ZM-356.972 -558.983C-354.906 -559.427 -353.413 -559.848 -352.061 -560.191C-352.127 -560.044 -352.196 -559.97 -352.187 -559.754C-352.743 -559.3 -353.303 -558.918 -353.865 -558.607C-355.708 -557.956 -357.341 -557.458 -356.972 -558.983ZM-204.86 -561.267C-206.445 -561.345 -207.366 -561.02 -207.92 -560.494C-210.585 -560.6 -213.111 -560.856 -215.001 -561.354C-214.301 -561.814 -213.526 -562.205 -212.751 -562.597C-213.834 -562.696 -215.395 -562.201 -216.825 -561.998C-216.972 -562.064 -217.19 -562.127 -217.336 -562.193C-217.62 -562.109 -217.976 -562.023 -218.332 -561.936C-218.838 -561.987 -219.277 -562.185 -219.582 -562.604C-217.435 -562.836 -217.568 -564.34 -213.878 -563.773C-209.332 -559.861 -211.884 -562.488 -204.86 -561.267ZM-581.29 -168.011C-581.117 -167.299 -581.318 -166.931 -581.596 -166.704C-581.757 -167.129 -581.85 -167.628 -582.014 -168.125C-581.655 -168.14 -581.293 -168.082 -581.29 -168.011ZM-477.298 -465.327C-477.365 -463.455 -477.802 -461.856 -480.093 -461.618C-480.165 -461.615 -480.165 -461.615 -480.237 -461.612C-479.354 -462.871 -478.399 -464.132 -477.298 -465.327ZM-239.912 -558.679C-241.7 -558.462 -243.56 -558.242 -245.421 -558.021C-245.567 -558.087 -245.714 -558.153 -245.857 -558.147C-247.239 -558.522 -248.437 -559.695 -249.633 -560.796C-247.766 -560.873 -245.829 -560.952 -243.965 -561.101C-239.808 -561.415 -235.8 -561.867 -232.023 -562.669C-231.913 -561.739 -232.081 -560.582 -229.718 -560.822C-229.541 -561.764 -230.171 -563.104 -228.667 -563.238C-225.276 -562.946 -222.519 -562.34 -220.321 -561.352C-225.798 -559.905 -232.674 -559.263 -239.912 -558.679ZM-256.081 -560.245C-255.794 -560.256 -255.435 -560.271 -255.151 -560.355C-255.504 -560.196 -255.791 -560.185 -256.081 -560.245ZM-450.089 -492.614C-451.469 -491.191 -453.49 -491.396 -454.925 -493.063C-455.002 -493.203 -455.08 -493.344 -455.089 -493.559C-452.731 -495.669 -450.008 -497.65 -446.924 -499.574C-446.315 -497.01 -447.189 -495.537 -450.089 -492.614ZM-458.333 -490.263C-458.822 -488.158 -460.13 -486.738 -462.182 -485.935C-461.02 -487.42 -459.784 -488.837 -458.333 -490.263ZM-206.912 -560.463C-205.557 -560.735 -204.047 -560.725 -202.528 -560.499C-203.964 -560.441 -205.471 -560.379 -206.912 -560.463ZM-313.051 -569.699C-313.924 -569.951 -314.875 -570.344 -315.757 -570.811C-313.822 -570.962 -312.159 -570.742 -311.481 -569.979C-311.981 -569.887 -312.552 -569.792 -313.051 -569.699ZM-324.261 -567.802C-324.62 -567.787 -325.123 -567.766 -325.413 -567.826C-324.928 -568.278 -324.153 -568.669 -323.163 -569.069C-323.435 -568.698 -323.777 -568.253 -324.261 -567.802ZM-336.457 -563.635C-333.093 -562.263 -329.234 -564.578 -329.709 -565.637C-328.195 -565.555 -327.675 -565.145 -327.583 -564.646C-328.208 -564.117 -328.834 -563.588 -329.462 -563.131C-329.887 -562.97 -330.315 -562.88 -330.742 -562.791C-331.437 -562.187 -332.056 -561.514 -332.604 -560.845C-333.235 -560.46 -333.795 -560.077 -334.148 -559.919C-335.347 -559.366 -337.057 -560.734 -336.903 -562.25C-336.846 -562.612 -336.792 -563.046 -336.663 -563.411C-336.597 -563.557 -336.526 -563.56 -336.457 -563.635ZM-368.908 -553.748C-368.977 -553.673 -369.121 -553.667 -369.261 -553.59C-369.755 -553.354 -370.114 -553.339 -370.547 -553.393C-369.979 -553.56 -369.408 -553.656 -368.908 -553.748ZM-581.29 -54.054C-581.333 -53.3333 -581.453 -52.7532 -581.716 -52.1672C-581.596 -52.7473 -581.479 -53.3992 -581.29 -54.054ZM186.193 -231.551C188.741 -232.518 186.899 -228.345 188.668 -225.541C186.832 -226.473 186.594 -228.764 186.193 -231.551ZM63.7889 -462.066C65.7515 -463.297 67.2919 -459.046 71.2709 -456.693C70.5108 -455.943 71.5657 -454.764 70.659 -454.079C68.1009 -456.85 65.3274 -459.612 63.7889 -462.066ZM56.31 -467.367C56.9324 -467.968 57.48 -468.637 56.5087 -469.532C57.6011 -470.943 62.4521 -466.612 63.0941 -464.985C61.6192 -464.134 59.2811 -465.044 56.31 -467.367ZM-138.259 -548.396C-138.124 -548.617 -138.061 -548.836 -137.927 -549.057C-136.246 -548.407 -136.091 -548.126 -136.292 -547.758C-137.018 -547.944 -137.604 -548.207 -138.259 -548.396ZM-184.45 -559.731C-185.38 -559.621 -186.239 -559.514 -187.022 -559.338C-187.396 -559.682 -187.698 -560.029 -187.856 -560.382C-186.777 -560.355 -185.616 -560.114 -184.45 -559.731ZM-191.863 -561.656C-193.289 -561.382 -195.147 -561.09 -197.151 -560.864C-198.816 -561.155 -200.341 -561.524 -202.533 -562.369C-197.425 -562.29 -195.753 -561.856 -192.03 -562.224C-191.952 -562.083 -191.872 -561.871 -191.863 -561.656ZM-292.083 -572.069C-294.906 -572.528 -297.714 -572.629 -301.138 -571.985C-299.913 -575.415 -291.815 -574.309 -288.873 -572.704C-289.944 -572.516 -291.012 -572.257 -292.083 -572.069ZM-309.199 -570.432C-307.951 -571.562 -305.466 -572.311 -302.543 -572.934C-301.091 -570.837 -307.306 -569.863 -309.199 -570.432ZM-365.764 -559.485L-365.021 -557.143C-366.924 -556.202 -370.21 -557.433 -370.63 -555.403C-374.56 -554.811 -369.758 -556.949 -370.069 -557.511C-371.588 -557.736 -372.417 -556.911 -373.524 -555.86C-373.901 -556.276 -374.274 -556.62 -374.648 -556.964C-372.341 -558.568 -369.443 -559.766 -365.764 -559.485ZM-385.096 -554.019C-385.136 -553.226 -387.199 -552.71 -388.833 -552.212C-388.836 -552.284 -388.838 -552.356 -388.841 -552.427C-388.937 -552.999 -389.388 -553.483 -389.905 -553.822C-386.737 -555.461 -386.954 -553.727 -385.096 -554.019ZM-396.034 -543.721C-396.186 -543.93 -396.138 -544.507 -395.934 -544.803C-394.656 -546.94 -392.989 -548.375 -390.426 -548.983C-389.214 -549.249 -388.825 -550.271 -388.8 -551.423C-387.876 -551.676 -386.877 -551.861 -385.585 -551.914C-385.418 -551.345 -384.419 -551.53 -384.042 -551.114C-389.22 -549.392 -387.308 -546.595 -384.94 -550.215C-384.228 -550.388 -383.516 -550.561 -382.805 -550.734C-382.797 -548.793 -382.717 -546.855 -382.853 -544.908C-382.901 -544.331 -384.302 -543.411 -384.953 -543.528C-386.694 -543.888 -388.481 -545.396 -389.908 -545.122C-391.547 -544.767 -392.682 -542.636 -394.853 -542.978C-395.283 -542.96 -395.729 -543.302 -396.034 -543.721ZM-433.161 -521.635C-433.491 -520.903 -433.748 -520.173 -433.36 -519.47C-434.419 -518.996 -435.26 -518.458 -436.032 -517.995C-436.744 -517.822 -437.53 -517.718 -438.248 -517.688C-436.716 -518.901 -434.834 -520.345 -433.161 -521.635ZM-537.049 -439.151C-536.564 -439.602 -536.011 -440.128 -535.526 -440.58C-535.379 -440.514 -535.161 -440.451 -535.012 -440.313C-535.411 -437.78 -538.663 -436.425 -541.759 -434.788C-540.164 -436.219 -538.569 -437.651 -537.049 -439.151ZM-548.62 -396.976C-548.486 -397.197 -548.204 -397.353 -547.923 -397.508C-548.118 -396.997 -548.313 -396.486 -548.436 -395.977C-548.731 -396.181 -548.89 -396.534 -548.62 -396.976ZM-579.254 -30.6991C-578.752 -30.7197 -578.249 -30.7403 -577.821 -30.8297C-577.868 -31.9782 -578.544 -32.6694 -579.423 -33.0648C-579.502 -35.0027 -579.51 -36.9436 -579.521 -38.9563C-577.912 -38.3033 -576.848 -36.9089 -575.859 -35.5835C-574.258 -33.3484 -575.052 -31.6623 -577.531 -30.7697C-577.212 -29.992 -576.961 -29.1394 -576.57 -28.3646C-574.476 -24.64 -574.492 -23.2733 -576.993 -21.1576C-577.062 -21.0828 -577.203 -21.0052 -577.272 -20.9305C-578.481 -24.1163 -578.972 -27.3315 -579.254 -30.6991ZM-573.653 -2.81704C-574.434 -6.09224 -574.851 -9.23867 -574.969 -12.1097C-574.293 -11.4184 -573.824 -10.503 -573.834 -8.99274C-573.796 -8.05965 -573.743 -6.76771 -573.151 -6.36062C-568.927 -3.29845 -572.089 2.00782 -569.358 5.49067C-567.46 7.92925 -568.335 9.40304 -569.648 10.6792C-571.416 6.15025 -572.684 1.52892 -573.653 -2.81704ZM13.7178 212.152C13.6637 212.586 12.3147 213.001 11.5941 212.958C11.2322 212.901 10.8646 212.701 10.4969 212.5C10.1291 212.3 9.83013 212.024 9.46241 211.824C10.1655 211.435 10.788 210.835 11.4999 210.662C12.6394 210.399 14.009 210.487 13.7178 212.152ZM49.2826 197.537C49.9345 197.654 50.4005 198.497 50.9953 198.976C50.6482 199.278 50.3845 199.864 50.0257 199.879C48.7396 200.075 47.4478 200.128 46.1588 200.253C46.1617 200.325 46.1647 200.397 46.1676 200.468C46.0958 200.471 45.9522 200.477 45.8804 200.48C45.6198 201.138 45.3592 201.796 45.0238 202.385C44.958 202.531 44.0877 202.351 44.0848 202.279C43.8048 200.709 44.8067 200.596 45.8804 200.48C45.8775 200.408 45.9464 200.334 45.9434 200.262C46.0152 200.259 46.087 200.256 46.1588 200.253C46.0734 198.172 47.1057 197.051 49.2826 197.537ZM56.8219 188.528C56.4206 189.263 56.0195 189.999 55.6212 190.806C55.1581 190.034 54.408 189.274 54.4474 188.482C54.415 187.692 55.1751 186.942 55.6452 186.132C55.9647 186.91 56.4306 187.753 56.8219 188.528ZM62.7563 182.461C63.8359 182.489 64.9153 182.516 64.6959 184.179C64.6989 184.251 63.8464 184.501 63.7687 184.361C63.3863 183.801 63.0728 183.167 62.7563 182.461C62.6845 182.464 62.5409 182.47 62.4691 182.473C62.4662 182.401 62.4632 182.329 62.4603 182.257C60.7406 182.4 59.0267 182.686 57.6041 181.306C56.7792 180.477 56.6644 177.678 57.4569 177.717C58.1776 177.76 59.0478 177.94 59.5679 178.35C60.904 179.374 62.5214 180.242 62.4632 182.329C62.535 182.326 62.6068 182.323 62.6786 182.32C62.6786 182.32 62.7533 182.389 62.7563 182.461ZM64.9469 171.011C69.623 172.833 73.3136 176.923 78.7863 177.13C79.0734 177.119 79.5747 178.824 79.3888 179.55C79.2029 180.277 78.1704 181.398 77.665 181.346C72.2259 180.203 67.1044 178.041 62.5159 174.85C62.1453 174.577 62.4423 173.055 62.6223 172.185C62.6223 172.185 62.6223 172.185 62.6194 172.113C62.8259 171.889 63.0324 171.665 63.2359 171.369C63.3765 171.292 63.4454 171.217 63.5113 171.07C64.0884 171.119 64.5792 170.811 64.9469 171.011ZM98.8565 126.555C99.9538 127.013 100.414 127.713 100.099 128.804C99.1543 128.555 98.3411 128.014 98.0669 126.587C97.608 124.161 99.0713 123.023 101.236 123.222C101.523 123.21 101.664 123.132 101.879 123.123C101.122 123.945 100.156 124.92 98.8565 126.555ZM102.571 108.428C102.643 108.425 102.789 108.491 102.861 108.488L102.654 108.712C102.651 108.64 102.648 108.569 102.571 108.428C102.352 108.365 102.134 108.302 101.916 108.239C102.051 108.018 102.114 107.8 102.251 107.65C102.407 107.931 102.49 108.216 102.571 108.428ZM174.246 8.35581C170.52 17.4238 166.785 26.2765 165.28 36.9071C163.842 40.4171 161.755 43.8819 159.608 47.6366C159.336 48.0073 159.066 48.4497 158.869 48.8892C159.16 47.2236 159.451 45.5581 159.745 43.9643C160.445 39.9812 161.15 36.1418 162.143 32.2905C162.988 28.3734 164.116 24.301 165.877 19.9149C162.35 12.798 174.777 2.00709 173.561 -4.84518C169.294 -1.93812 172.406 -13.713 172.922 -20.4206C174.904 -19.4234 177.384 -20.316 180.884 -20.8909C180.243 -10.2238 177.246 -0.89813 174.246 8.35581ZM191.277 -126.862C189.825 -128.959 192.571 -130.366 191.766 -134.215C191.195 -134.12 191.46 -132.909 191.352 -132.041C190.482 -132.222 190.866 -135.113 189.864 -135C188.622 -133.727 190.276 -128.474 190.175 -125.666C186.987 -129.778 186.77 -140.337 184.69 -143.703C185.84 -145.476 187.879 -144.841 188.336 -144.212C190.299 -145.443 188.17 -146.506 189.096 -148.485C187.976 -151.243 188.229 -145.071 186.322 -145.999C185.424 -153.871 185.993 -155.763 183.699 -159.12C184.063 -162.515 184.775 -159.165 183.158 -165.281C187.205 -166.526 185.433 -158.904 187.041 -156.525C189.468 -160.435 182.416 -169.349 186.553 -170.166C187.044 -166.951 187.9 -163.607 188.762 -160.119C189.409 -156.622 190.133 -152.985 190.789 -149.274C192.025 -141.919 192.845 -134.188 191.277 -126.862ZM216.014 -130.249C217.921 -129.321 216.844 -132.799 216.836 -134.74C217.988 -131.193 218.517 -125.319 219 -118.796C219.056 -112.184 218.994 -104.92 219.69 -98.4774C214.85 -106.044 218.644 -118.709 216.014 -130.249ZM221.476 -95.2434C222.225 -101.529 221.732 -103.019 222.033 -109.718C219.202 -103.346 219.957 -123.509 221.325 -125.218C223.263 -120.049 223.157 -113.862 223.036 -108.033C222.988 -102.208 222.921 -96.8125 224.513 -93.0672C222.613 -92.0547 222.645 -94.7881 221.476 -95.2434ZM227.003 -91.9471C224.883 -92.7949 226.339 -95.8742 226.989 -97.5545C228.436 -97.3263 227.336 -92.6078 227.003 -91.9471ZM227.271 -167.809L225.345 -167.443C225.509 -166.946 225.602 -166.447 225.766 -165.95C226.296 -163.528 226.687 -161.027 227.155 -158.386C228.015 -153.173 228.816 -147.67 229.405 -142.086C230.513 -130.844 231.576 -118.952 229.95 -107.742C230.144 -106.527 231.203 -107.002 231.19 -105.564C231.012 -102.896 230.448 -100.86 229.959 -98.7548C228.081 -98.9654 228.94 -104.321 228.727 -107.763C227.863 -107.8 226.999 -107.836 226.908 -106.538C226.174 -117.437 225.436 -137.178 220.398 -153.076C220.679 -156.755 221.037 -160.292 222.387 -162.433C221.537 -165.633 220.559 -161.423 219.387 -161.95C218.698 -164.726 220.961 -167.407 218.967 -168.691C218.903 -171.996 219.629 -170.084 221.133 -170.218C219.184 -175.674 217.658 -179.566 217.365 -183.22C215.179 -183.922 217.153 -179.617 217.241 -177.464C214.456 -180.513 213.705 -188.319 214.356 -191.725C216.456 -193.105 219.347 -187.472 218.296 -193.828C221.424 -189.426 219.824 -175.844 222.918 -174.03C222.774 -182.795 217.58 -197.249 220.239 -202.535C225.45 -191.173 224.023 -180.402 227.271 -167.809ZM210.596 -218.532C209.525 -218.344 209.731 -216.843 208.582 -216.796C206.689 -220.888 209.362 -220.566 207.469 -224.659C208.725 -223.847 209.518 -220.285 210.596 -218.532ZM198.333 -247.579C200.959 -234.385 204.872 -223.114 208.156 -209.66C209.215 -210.135 207.429 -213.369 208.039 -214.257C209.894 -214.621 211.101 -207.984 209.246 -207.62C211.084 -204.892 211.664 -204.772 213.821 -206.514C212.735 -201.436 211.197 -200.367 209.763 -202.033C208.254 -203.769 206.989 -208.318 205.366 -214.579C204.767 -213.404 205.516 -210.918 205.814 -208.917C204.129 -207.914 203.894 -213.656 202.453 -213.74C202.176 -215.239 203.692 -215.085 204.466 -215.477C200.744 -225.605 200.212 -226.302 196.451 -237.364C198.16 -239.519 194.795 -242.688 196.4 -245.63C194.996 -248.305 196.119 -241.952 194.135 -244.746C192.241 -252.362 193.973 -252.217 189.856 -259.669C188.223 -259.171 193.282 -253.267 190.31 -253.864C189.24 -258.925 187.226 -262.437 184.642 -265.854C185.827 -266.766 186.84 -266.591 187.869 -266.058C186.893 -268.822 185.661 -269.059 184.332 -268.142C181.542 -273.061 182.692 -274.833 183.094 -277.294C189.423 -273.743 193.342 -253.557 198.333 -247.579ZM167.4 -346.175C164.248 -345.902 163.775 -350.412 160.801 -352.807C162.629 -353.816 165.233 -348.171 167.4 -346.175ZM159.352 -377.623C163.878 -375.94 158.561 -375.865 161.051 -373.02C160.195 -372.841 158.95 -375.162 157.886 -376.557C158.658 -377.02 159.361 -377.408 158.665 -378.602C159.377 -378.775 159.633 -377.779 159.352 -377.623ZM150.315 -373.586L147.715 -377.362L149.179 -378.5C150.194 -376.529 151.795 -374.294 150.315 -373.586ZM146.54 -377.961C145.281 -377.118 143.213 -380.197 141.247 -382.561L142.639 -383.696C144.524 -381.545 146.263 -379.459 146.54 -377.961ZM143.665 -376.189C148.076 -370.331 152.205 -364.317 154.987 -361.339C152.46 -361.595 148.372 -366.604 143.884 -372.603C139.327 -378.528 133.88 -385.135 129.962 -389.503C133.866 -387.219 138.905 -381.818 143.665 -376.189ZM132.798 -418.522C131.52 -416.385 131.606 -416.029 128.927 -416.494C128.692 -418.713 129.553 -422.272 132.798 -418.522ZM127.633 -421.761C127.674 -420.757 128.956 -419.299 127.831 -418.678C127.428 -419.74 127.025 -420.802 126.319 -420.485C125.557 -421.533 126.622 -421.864 125.567 -423.043C126.363 -422.932 127.158 -422.821 127.709 -423.418C128.542 -422.374 128.906 -420.519 127.633 -421.761ZM118.63 -437.929C117.78 -437.606 116.184 -439.698 114.842 -440.865C114.51 -440.204 115.999 -438.971 116.979 -437.861C116.972 -436.279 113.053 -438.922 115.252 -436.136C113.808 -436.293 113.257 -440.944 113.121 -442.52C116.256 -439.701 116.392 -441.647 118.63 -437.929ZM82.1062 -457.209L83.2704 -458.623L87.7389 -454.852C86.8705 -453.234 84.0106 -456.352 82.1062 -457.209ZM89.2342 -463.972C86.4055 -464.575 88.6353 -462.797 91.164 -460.744C88.4719 -459.771 85.8559 -465.703 83.3154 -468.043C84.3538 -469.02 87.3928 -465.047 89.2342 -463.972ZM73.371 -466.844C78.5713 -466.267 83.3645 -465.097 88.4226 -457.468C85.0167 -458.119 80.0569 -465.106 75.8533 -462.417C68.9526 -469.395 62.2384 -473.578 59.4208 -477.416C64.1609 -477.539 71.3912 -471.293 73.371 -466.844ZM48.6905 -486.61C53.3773 -482.776 54.5453 -480.596 59.2066 -479.133L57.4375 -476.688C52.8649 -481.246 45.0348 -484.591 39.6403 -489.906C43.0855 -490.047 45.5018 -485.473 48.6905 -486.61ZM-28.1325 -531.343C-28.1218 -529.331 -30.6869 -530.52 -30.6733 -528.435C-31.8953 -530.183 -38.0611 -531.511 -36.1279 -533.46C-38.5153 -532.068 -43.145 -536.264 -46.8851 -538.052C-39.9133 -534.599 -33.0798 -534.52 -28.1325 -531.343ZM-7.92385 -532.963C-8.46275 -532.078 -7.84744 -531.097 -6.58895 -530.214C-7.33436 -529.105 -9.7619 -530.443 -12.3388 -531.919C-9.97316 -532.088 -12.6159 -533.418 -10.2502 -533.587C-12.1005 -534.877 -16.9714 -536.187 -15.0118 -537.489C-14.0139 -535.949 -10.7161 -534.43 -7.92385 -532.963ZM-20.962 -538.827C-24.6137 -538.462 -25.4052 -540.227 -28.6488 -542.179C-24.994 -542.472 -24.2055 -540.779 -20.962 -538.827ZM-64.3421 -541.218C-65.5477 -540.809 -67.4974 -541.017 -70.1973 -541.985C-69.909 -543.722 -65.5583 -542.822 -64.3421 -541.218ZM-80.6659 -539.542C-83.7494 -539.344 -84.8218 -540.953 -89.5973 -541.692C-88.9531 -543.516 -82.0138 -540.853 -80.6659 -539.542ZM-105.32 -544.642C-103.812 -546.43 -100.946 -543.168 -97.3657 -543.531C-97.0473 -541.027 -102.718 -544.318 -105.32 -544.642ZM-86.1439 -545.141C-90.424 -544.319 -92.4691 -545.098 -99.0449 -545.906C-97.1934 -546.342 -91.123 -545.584 -97.3299 -547.918C-95.1155 -550.022 -90.2793 -546.05 -86.1439 -545.141ZM-136.313 -551.783C-125.09 -549.871 -120.9 -551.121 -115.508 -551.127C-112.903 -550.73 -114.636 -549.149 -112.599 -548.586C-113.809 -551.772 -105.32 -549.891 -99.6592 -548.613C-100.585 -546.634 -100.54 -545.557 -101.686 -545.439C-102.663 -546.477 -106.646 -547.176 -108.429 -546.816C-105.61 -544.702 -112.192 -545.655 -112.564 -544.202C-114.758 -545.118 -114.71 -545.695 -113.223 -546.259C-121.725 -546.702 -131.654 -550.393 -140.079 -550.694C-139.818 -551.352 -137.889 -551.647 -139.793 -552.503C-138.47 -550.041 -143.621 -552.922 -143.413 -551.348C-142.16 -550.609 -142.498 -550.092 -143.492 -549.763C-146.111 -550.519 -148.73 -551.274 -151.415 -551.883C-152.296 -554.076 -146.562 -551.004 -146.627 -552.583C-151.618 -553.313 -159.331 -557.31 -161.109 -555.08C-156.175 -553.988 -154.096 -554.146 -151.705 -551.943C-151.852 -552.009 -151.995 -552.003 -152.142 -552.069C-156.49 -552.897 -160.972 -553.504 -165.592 -553.962C-165.631 -554.895 -166.094 -555.667 -166.772 -556.43C-166.7 -556.433 -166.7 -556.433 -166.626 -556.364C-164.256 -558.187 -161.083 -557.957 -157.824 -557.372C-154.561 -556.715 -151.278 -555.555 -148.35 -556.035C-145.704 -554.633 -145.959 -553.832 -145.35 -552.994C-143.189 -554.665 -132.702 -553.154 -130.445 -552.455C-130.219 -550.451 -135.573 -553.036 -136.313 -551.783ZM-79.8938 -554.025C-83.7774 -555.807 -85.7341 -554.433 -87.7604 -556.506C-88.3835 -559.429 -77.823 -556.123 -79.8938 -554.025ZM-90.2066 -556.55C-92.0323 -558.992 -96.7832 -560.882 -96.898 -563.681C-92.5749 -561.701 -88.3952 -559.716 -90.2066 -556.55ZM-285.945 -573.183C-285.945 -573.183 -285.874 -573.186 -285.802 -573.189C-285.802 -573.189 -285.874 -573.186 -285.945 -573.183ZM-291.082 -575.705C-292.897 -576.134 -286.153 -576.482 -281.801 -577.308C-282.909 -574.53 -288.247 -574.958 -291.082 -575.705Z" fill="#333333"/>
<path fill-rule="evenodd" clip-rule="evenodd" d="M248.735 -72.2042C250.239 -72.3378 250.681 -70.3428 250.966 -68.629C249.683 -68.3607 250.317 -63.4258 249.192 -62.8045C249.604 -61.5272 251.369 -62.3186 250.706 -59.1998C248.384 -38.6858 247.07 -23.3898 243.559 -9.0821C241.984 -1.89971 240.403 5.1391 238.768 12.6115C237.914 16.3133 237.065 20.1587 236.15 24.1505C234.945 28.0823 233.746 32.1578 232.416 36.5262C236.465 37.0791 230.7 40.2633 231.87 42.516C235.624 41.1398 235.8 38.4005 238.531 33.1119C236.959 31.5946 236.412 35.7871 235.123 35.9119C235.635 34.381 235.591 33.3043 235.552 32.3713C237.656 34.5857 238.995 26.9097 239.809 30.9745C241.762 22.4824 242.593 12.958 244.397 2.6027C245.262 -2.60934 246.193 -7.96789 247.252 -13.6912C247.783 -16.517 248.383 -19.4174 248.977 -22.4615C249.428 -25.4996 249.878 -28.5378 250.395 -31.7224C249.315 -31.75 248.912 -32.812 248.854 -34.2475C250.683 -36.9827 249.806 -37.3062 250.384 -42.5065C252.028 -40.9922 252.579 -41.59 253.678 -44.5828C253.02 -44.8435 251.956 -44.5122 251.968 -45.9507C252.58 -52.087 252.606 -60.2124 252.027 -67.3065C251.478 -73.6828 250.031 -79.1595 248.765 -81.9834C249.287 -79.7761 248.408 -74.9229 248.735 -72.2042Z" fill="#333333"/>
<path fill-rule="evenodd" clip-rule="evenodd" d="M155.339 82.0352C156.75 77.8792 159.651 73.2307 159.053 77.9285C160.684 75.6328 162.502 72.6105 161.351 70.8602C164.03 67.8026 168.537 67.2583 169.425 62.6204C170.445 62.9381 171.115 63.4859 171.299 64.4848C172.238 61.0672 171.09 59.3887 171.263 56.5776C172.266 54.7391 173.781 56.6182 174.578 53.2782C173.44 51.8151 174.58 46.3042 176.309 41.1286C176.608 41.4039 176.978 41.6763 177.268 41.7363C178.061 41.7757 178.827 41.1691 179.679 40.9184C179.156 40.4366 178.622 39.6677 178.119 39.6883C177.688 39.7059 177.189 39.7983 176.767 40.0313C178.903 34.2638 181.649 29.3342 182.951 31.2938C183.549 28.3216 184.576 25.3317 185.679 22.4106L185.682 22.4824C185.768 22.8383 186.285 23.1766 186.587 23.5237C187.188 24.1461 188.037 23.8237 188.275 22.5917C188.812 19.9095 187.898 16.9273 190.325 14.7427C188.502 12.373 189.207 10.2591 190.396 7.69395C191.055 6.229 190.292 5.18179 188.762 4.6694C188.681 4.45701 188.675 4.31344 188.595 4.10106C188.529 4.24755 188.463 4.39403 188.397 4.54052C187.889 4.41758 187.386 4.43819 186.737 4.39291C187.022 2.58379 187.443 0.553442 186.282 0.313434C186.048 1.61718 185.82 3.06449 185.589 4.44001C184.306 4.70832 182.535 5.35611 183.067 6.05327C183.826 7.0287 184.301 8.08769 184.632 9.15257C184.458 10.1663 184.281 11.1082 184.035 12.1249C182.905 16.1255 181.637 20.2756 180.292 24.2851C177.672 32.3012 175.113 40.0272 173.204 46.073C172.673 45.3758 172.207 44.5321 172.091 43.4584C172.9 40.4056 175.942 39.2024 174 37.4127C173.05 40.5433 171.745 42.0347 170.607 44.0945C172.035 45.6176 171.507 48.5152 170.545 51.3586C169.44 54.2079 168.047 57.069 168.339 58.9264C168.134 57.425 166.747 56.9066 165.493 57.8927C164.297 62.0399 161.428 67.4779 158.505 69.8266C157.764 69.2818 158.207 67.8257 157.606 67.2033C155.126 73.3443 156.309 75.8841 155.339 82.0352Z" fill="#333333"/>
<path fill-rule="evenodd" clip-rule="evenodd" d="M202.256 53.2204C202.667 47.4518 203.038 42.4757 206.762 36.8588C205.961 36.6041 205.329 36.9895 204.701 37.4466C205.273 35.6257 205.086 34.5549 204.485 33.9325C203.251 40.6695 201.727 43.8236 200.631 50.4112C202.783 43.277 202.26 51.5666 202.256 53.2204Z" fill="#333333"/>
<path fill-rule="evenodd" clip-rule="evenodd" d="M195.362 63.9268C194.646 65.7535 193.912 67.1497 193.08 67.9028C194.302 69.6501 198.896 64.2132 196.652 65.5993C195.047 68.541 196.358 63.6702 195.362 63.9268Z" fill="#333333"/>
<path fill-rule="evenodd" clip-rule="evenodd" d="M200 87.6078C203.488 90.2687 205.712 77.8831 208.924 77.32L207.758 76.9364C208.019 76.2787 208.208 75.6238 207.633 75.6474C206.226 78.1496 205.007 81.7225 202.6 86.1351C201.655 85.8863 200.692 85.2068 200 87.6078Z" fill="#333333"/>
<path fill-rule="evenodd" clip-rule="evenodd" d="M228.878 122.082C228.975 120.928 227.823 117.38 226.625 119.73C227.607 122.637 225.509 124.089 226.253 126.431C227.253 124.521 228.082 123.696 229.009 123.514C228.166 127.503 227.224 127.326 225.089 131.368C225.983 132.122 226.932 130.717 227.888 131.253C225.084 134.748 225.656 138.175 224.766 141.016C226.353 137.643 227.812 138.159 229.471 134.783C228.87 130.638 231.345 127.876 233.829 120.081C232.6 119.916 233.385 118.015 233.128 117.019C231.741 120.023 230.258 120.659 228.878 122.082Z" fill="#333333"/>
<path fill-rule="evenodd" clip-rule="evenodd" d="M114.178 96.9517C114.652 94.4878 117.629 93.4311 116.52 92.6857C114.229 96.4464 113.57 94.3884 112 94.6685C112.581 96.5858 112.022 96.9683 114.178 96.9517Z" fill="#333333"/>
<path fill-rule="evenodd" clip-rule="evenodd" d="M245.161 28.2382C243.536 30.6775 242 33.5444 240.613 36.5491C237.843 42.6301 235.757 49.6178 235.812 56.23C240.854 56.4546 241.413 61.3207 240.389 67.9053C237.603 66.5816 236.109 73.9764 233.623 74.7255C236.302 75.1908 233.596 79.3279 235.097 79.1226C234.033 79.4538 232.994 80.4311 231.976 81.9108C234.952 82.5796 230.853 89.5779 229.528 94.0899C231.714 94.7911 231.658 93.4273 232.96 95.387C236.941 90.7662 242.08 79.3395 244.158 75.6594C244.543 63.9963 257.596 50.951 260.363 36.0267C262.11 26.0333 257.539 19.75 249.439 22.0953C248.137 23.6585 246.712 25.7301 245.161 28.2382Z" fill="#333333"/>
</g>
</svg>
