<svg width="48" height="48" viewBox="0 0 48 48" fill="none" xmlns="http://www.w3.org/2000/svg">
<rect width="48" height="48" rx="8" fill="#E5E8E8"/>
<path fill-rule="evenodd" clip-rule="evenodd" d="M26.811 11.2542C27.2542 11.371 27.6254 11.6734 27.8318 12.0846C28.6046 13.6318 29.1822 14.571 29.763 15.3326C30.3518 16.1038 30.9726 16.7342 31.9198 17.6798C34.1054 19.867 35.1998 22.7358 35.1998 25.5998C35.1998 28.4638 34.1054 31.3326 31.9198 33.5198C27.5454 37.8926 20.4542 37.8926 16.0798 33.5198C13.8942 31.3326 12.7998 28.4638 12.7998 25.5998C12.7998 22.7358 13.8942 19.867 16.0798 17.6798C16.5374 17.2222 17.2254 17.0862 17.8238 17.3342C18.4222 17.5806 18.811 18.1646 18.811 18.811C18.811 20.603 18.923 21.9678 19.4478 23.0574C19.7358 23.6558 20.1854 24.2414 20.9598 24.7646C21.1454 23.067 21.4846 20.9982 21.9422 19.0366C22.3022 17.491 22.7502 15.9486 23.2846 14.6622C23.5518 14.0174 23.8542 13.4062 24.1966 12.8766C24.5294 12.3614 24.9582 11.8382 25.5118 11.4686C25.8942 11.2142 26.3678 11.1358 26.811 11.2542ZM27.3934 32.1933C25.5198 34.0685 22.4798 34.0685 20.6062 32.1933C19.6686 31.2573 19.1998 30.0286 19.1998 28.7998C19.1998 28.7998 20.6062 29.5998 23.1998 29.5998C23.1998 27.9998 23.9998 23.1998 25.1998 22.3998C25.9998 23.9998 26.4574 24.4686 27.3934 25.4062C28.331 26.3422 28.7998 27.571 28.7998 28.7998C28.7998 30.0286 28.331 31.2573 27.3934 32.1933Z" fill="#008001"/>
</svg>
