<svg width="48" height="48" viewBox="0 0 48 48" fill="none" xmlns="http://www.w3.org/2000/svg">
<rect width="48" height="48" rx="8" fill="#E5E8E8"/>
<path fill-rule="evenodd" clip-rule="evenodd" d="M18.6753 11.0579C18.5654 10.6479 18.2972 10.2985 17.9296 10.0863C17.562 9.87419 17.1252 9.81676 16.7153 9.92666C16.3054 10.0366 15.9559 10.3048 15.7438 10.6724C15.5317 11.04 15.4742 11.4767 15.5841 11.8867L15.9985 13.4323C16.1084 13.8422 16.3767 14.1917 16.7443 14.4038C17.1118 14.6159 17.5486 14.6734 17.9585 14.5635C18.3685 14.4536 18.7179 14.1853 18.9301 13.8177C19.1422 13.4502 19.1996 13.0134 19.0897 12.6035L18.6737 11.0579H18.6753ZM11.8865 15.5843C11.6832 15.5288 11.4709 15.5141 11.2619 15.541C11.0529 15.5678 10.8512 15.6357 10.6685 15.7407C10.4858 15.8457 10.3256 15.9858 10.1972 16.1529C10.0687 16.3199 9.97458 16.5108 9.92011 16.7143C9.86563 16.9179 9.85191 17.1302 9.87972 17.3391C9.90754 17.548 9.97636 17.7494 10.0822 17.9316C10.1881 18.1138 10.3289 18.2734 10.4966 18.401C10.6643 18.5287 10.8555 18.6219 11.0593 18.6755L12.6049 19.0899C13.0141 19.1973 13.4492 19.1383 13.815 18.9258C14.1808 18.7133 14.4476 18.3646 14.5569 17.9559C14.6663 17.5473 14.6094 17.1119 14.3986 16.7451C14.1878 16.3783 13.8403 16.1099 13.4321 15.9987L11.8865 15.5827V15.5843ZM25.9889 14.6739C26.1375 14.5252 26.2553 14.3487 26.3357 14.1546C26.416 13.9604 26.4573 13.7523 26.4573 13.5421C26.4572 13.3319 26.4157 13.1239 26.3352 12.9297C26.2547 12.7356 26.1368 12.5592 25.9881 12.4107C25.8395 12.2621 25.663 12.1443 25.4688 12.0639C25.2746 11.9836 25.0665 11.9423 24.8564 11.9423C24.6462 11.9424 24.4381 11.9839 24.244 12.0644C24.0499 12.1449 23.8735 12.2628 23.7249 12.4115L22.5937 13.5427C22.4451 13.6913 22.3272 13.8678 22.2467 14.062C22.1663 14.2563 22.1248 14.4644 22.1248 14.6747C22.1248 14.8849 22.1663 15.0931 22.2467 15.2873C22.3272 15.4815 22.4451 15.658 22.5937 15.8067C22.7424 15.9553 22.9189 16.0732 23.1131 16.1537C23.3073 16.2341 23.5155 16.2756 23.7257 16.2756C23.936 16.2756 24.1441 16.2341 24.3384 16.1537C24.5326 16.0732 24.7091 15.9553 24.8577 15.8067L25.9889 14.6739ZM14.6753 25.9891L15.8065 24.8579C16.107 24.5579 16.2759 24.1508 16.2762 23.7262C16.2765 23.3016 16.1081 22.8943 15.8081 22.5939C15.5081 22.2934 15.101 22.1245 14.6765 22.1242C14.2519 22.1239 13.8446 22.2923 13.5441 22.5923L12.4113 23.7235C12.1111 24.0237 11.9424 24.4309 11.9424 24.8555C11.9424 25.28 12.1111 25.6872 12.4113 25.9875C12.7116 26.2877 13.1187 26.4564 13.5433 26.4564C13.9679 26.4564 14.3751 26.2877 14.6753 25.9875V25.9891ZM19.7953 17.7155C19.5046 17.5991 19.186 17.5706 18.8792 17.6335C18.5724 17.6965 18.2908 17.8481 18.0694 18.0695C17.8479 18.291 17.6963 18.5726 17.6334 18.8794C17.5705 19.1862 17.5989 19.5047 17.7153 19.7955L24.1153 35.7955C24.23 36.0818 24.425 36.3289 24.6769 36.507C24.9287 36.6851 25.2267 36.7866 25.5349 36.7993C25.8431 36.812 26.1484 36.7353 26.414 36.5785C26.6797 36.4217 26.8943 36.1914 27.0321 35.9155L29.2401 31.5011L34.0689 36.3331C34.3692 36.6331 34.7763 36.8015 35.2007 36.8014C35.6251 36.8012 36.0321 36.6325 36.3321 36.3323C36.6321 36.032 36.8006 35.6249 36.8005 35.2005C36.8003 34.7761 36.6316 34.3691 36.3313 34.0691L31.5009 29.2371L35.9169 27.0307C36.1924 26.8925 36.4221 26.6778 36.5784 26.4122C36.7348 26.1467 36.8111 25.8416 36.7983 25.5338C36.7854 25.2259 36.684 24.9283 36.506 24.6767C36.3281 24.4251 36.0813 24.2302 35.7953 24.1155L19.7953 17.7155Z" fill="#008001"/>
</svg>
