<svg width="48" height="48" viewBox="0 0 48 48" fill="none" xmlns="http://www.w3.org/2000/svg">
<rect width="48" height="48" rx="8" fill="#E5E8E8"/>
<path d="M25.6002 12.8002C25.6002 12.3758 25.4316 11.9689 25.1316 11.6688C24.8315 11.3688 24.4245 11.2002 24.0002 11.2002C23.5758 11.2002 23.1689 11.3688 22.8688 11.6688C22.5688 11.9689 22.4002 12.3758 22.4002 12.8002V14.4002C22.4002 14.8245 22.5688 15.2315 22.8688 15.5316C23.1689 15.8316 23.5758 16.0002 24.0002 16.0002C24.4245 16.0002 24.8315 15.8316 25.1316 15.5316C25.4316 15.2315 25.6002 14.8245 25.6002 14.4002V12.8002ZM33.0514 17.2114C33.3428 16.9096 33.5041 16.5055 33.5005 16.086C33.4968 15.6664 33.3286 15.2651 33.0319 14.9685C32.7353 14.6718 32.334 14.5036 31.9144 14.4999C31.4949 14.4963 31.0908 14.6575 30.789 14.949L29.6578 16.0802C29.3663 16.382 29.2051 16.7861 29.2087 17.2056C29.2124 17.6252 29.3806 18.0265 29.6773 18.3231C29.9739 18.6198 30.3752 18.788 30.7948 18.7917C31.2143 18.7953 31.6184 18.634 31.9202 18.3426L33.0514 17.2114ZM36.8002 24.0002C36.8002 24.4245 36.6316 24.8315 36.3316 25.1316C36.0315 25.4316 35.6245 25.6002 35.2002 25.6002H33.6002C33.1758 25.6002 32.7689 25.4316 32.4688 25.1316C32.1688 24.8315 32.0002 24.4245 32.0002 24.0002C32.0002 23.5758 32.1688 23.1689 32.4688 22.8688C32.7689 22.5688 33.1758 22.4002 33.6002 22.4002H35.2002C35.6245 22.4002 36.0315 22.5688 36.3316 22.8688C36.6316 23.1689 36.8002 23.5758 36.8002 24.0002ZM16.0802 18.3426C16.2278 18.4954 16.4043 18.6173 16.5995 18.7012C16.7948 18.785 17.0047 18.8291 17.2172 18.831C17.4296 18.8328 17.6403 18.7924 17.8369 18.7119C18.0336 18.6315 18.2122 18.5127 18.3624 18.3624C18.5127 18.2122 18.6315 18.0336 18.7119 17.8369C18.7924 17.6403 18.8328 17.4296 18.831 17.2172C18.8291 17.0047 18.785 16.7948 18.7012 16.5995C18.6173 16.4043 18.4954 16.2278 18.3426 16.0802L17.2114 14.949C16.9096 14.6575 16.5055 14.4963 16.086 14.4999C15.6664 14.5036 15.2651 14.6718 14.9685 14.9685C14.6718 15.2651 14.5036 15.6664 14.4999 16.086C14.4963 16.5055 14.6575 16.9096 14.949 17.2114L16.0802 18.3426ZM16.0002 24.0002C16.0002 24.4245 15.8316 24.8315 15.5316 25.1316C15.2315 25.4316 14.8245 25.6002 14.4002 25.6002H12.8002C12.3758 25.6002 11.9689 25.4316 11.6688 25.1316C11.3688 24.8315 11.2002 24.4245 11.2002 24.0002C11.2002 23.5758 11.3688 23.1689 11.6688 22.8688C11.9689 22.5688 12.3758 22.4002 12.8002 22.4002H14.4002C14.8245 22.4002 15.2315 22.5688 15.5316 22.8688C15.8316 23.1689 16.0002 23.5758 16.0002 24.0002ZM20.8002 33.6002V32.0002H27.2002V33.6002C27.2002 34.4489 26.8631 35.2628 26.2629 35.8629C25.6628 36.4631 24.8489 36.8002 24.0002 36.8002C23.1515 36.8002 22.3376 36.4631 21.7375 35.8629C21.1373 35.2628 20.8002 34.4489 20.8002 33.6002ZM27.2002 30.4002C27.2242 29.8562 27.533 29.3666 27.9634 29.0258C29.0077 28.2022 29.7695 27.0737 30.1428 25.7972C30.5162 24.5208 30.4826 23.1596 30.0467 21.9031C29.6109 20.6466 28.7944 19.5571 27.7107 18.786C26.6271 18.0149 25.3302 17.6006 24.0002 17.6006C22.6702 17.6006 21.3733 18.0149 20.2896 18.786C19.206 19.5571 18.3895 20.6466 17.9536 21.9031C17.5178 23.1596 17.4842 24.5208 17.8576 25.7972C18.2309 27.0737 18.9927 28.2022 20.037 29.0258C20.469 29.3666 20.7762 29.8562 20.7986 30.4002H27.2018H27.2002Z" fill="#008001"/>
</svg>
