<svg width="48" height="48" viewBox="0 0 48 48" fill="none" xmlns="http://www.w3.org/2000/svg">
<rect width="48" height="48" rx="8" fill="#E5E8E8"/>
<path fill-rule="evenodd" clip-rule="evenodd" d="M36.8002 24.0002C36.8002 27.395 35.4516 30.6507 33.0512 33.0512C30.6507 35.4516 27.395 36.8002 24.0002 36.8002C20.6054 36.8002 17.3497 35.4516 14.9492 33.0512C12.5488 30.6507 11.2002 27.395 11.2002 24.0002C11.2002 20.6054 12.5488 17.3497 14.9492 14.9492C17.3497 12.5488 20.6054 11.2002 24.0002 11.2002C27.395 11.2002 30.6507 12.5488 33.0512 14.9492C35.4516 17.3497 36.8002 20.6054 36.8002 24.0002ZM33.6002 24.0002C33.6002 25.589 33.2146 27.0866 32.5314 28.4066L30.093 25.9666C30.4581 24.8365 30.5013 23.6271 30.2178 22.4738L32.717 19.9746C33.2834 21.1986 33.6002 22.5602 33.6002 24.0002ZM25.3362 30.261L27.8642 32.789C26.6466 33.3251 25.3306 33.6014 24.0002 33.6002C22.6101 33.6019 21.2363 33.3005 19.9746 32.717L22.4738 30.2178C23.4125 30.4478 24.391 30.4626 25.3362 30.261ZM17.853 25.7874C17.5381 24.7032 17.5155 23.5551 17.7874 22.4594L17.6594 22.5874L15.2114 20.1346C14.6751 21.3527 14.3988 22.6693 14.4002 24.0002C14.4002 25.5266 14.757 26.9698 15.3906 28.2514L17.8546 25.7874H17.853ZM19.5938 15.4674C20.9558 14.7634 22.4671 14.3974 24.0002 14.4002C25.5266 14.4002 26.9698 14.757 28.2514 15.3906L25.7874 17.8546C24.559 17.4968 23.2516 17.5152 22.0338 17.9074L19.5938 15.469V15.4674ZM27.2002 24.0002C27.2002 24.8489 26.8631 25.6628 26.2629 26.2629C25.6628 26.8631 24.8489 27.2002 24.0002 27.2002C23.1515 27.2002 22.3376 26.8631 21.7375 26.2629C21.1373 25.6628 20.8002 24.8489 20.8002 24.0002C20.8002 23.1515 21.1373 22.3376 21.7375 21.7375C22.3376 21.1373 23.1515 20.8002 24.0002 20.8002C24.8489 20.8002 25.6628 21.1373 26.2629 21.7375C26.8631 22.3376 27.2002 23.1515 27.2002 24.0002Z" fill="#008001"/>
</svg>
