<svg width="20" height="20" viewBox="0 0 20 20" fill="none" xmlns="http://www.w3.org/2000/svg">
<g clip-path="url(#clip0_2_11731)">
<path d="M10 20C15.5228 20 20 15.5228 20 10C20 4.47715 15.5228 0 10 0C4.47715 0 0 4.47715 0 10C0 15.5228 4.47715 20 10 20Z" fill="url(#paint0_linear_2_11731)"/>
<path fill-rule="evenodd" clip-rule="evenodd" d="M4.52635 9.89397C7.44156 8.62386 9.38548 7.78653 10.3581 7.38197C13.1352 6.22688 13.7123 6.02623 14.0884 6.0196C14.1711 6.01814 14.3561 6.03865 14.4759 6.13587C14.5771 6.21796 14.6049 6.32885 14.6182 6.40668C14.6316 6.48451 14.6481 6.66181 14.635 6.80034C14.4845 8.38158 13.8333 12.2188 13.502 13.9898C13.3618 14.7392 13.0858 14.9905 12.8186 15.0151C12.2379 15.0685 11.7969 14.6313 11.2345 14.2626C10.3543 13.6856 9.85711 13.3265 9.00279 12.7635C8.01547 12.1129 8.65551 11.7553 9.21818 11.1709C9.36543 11.018 11.9241 8.69066 11.9736 8.47953C11.9798 8.45313 11.9856 8.35471 11.9271 8.30274C11.8686 8.25077 11.7823 8.26854 11.72 8.28267C11.6318 8.30271 10.2257 9.23203 7.50198 11.0706C7.10288 11.3447 6.7414 11.4782 6.41752 11.4712C6.06046 11.4635 5.37364 11.2693 4.86306 11.1034C4.23681 10.8998 3.73907 10.7922 3.78242 10.4465C3.80499 10.2664 4.05297 10.0822 4.52635 9.89397Z" fill="white"/>
</g>
<defs>
<linearGradient id="paint0_linear_2_11731" x1="10" y1="0" x2="10" y2="19.8517" gradientUnits="userSpaceOnUse">
<stop stop-color="#2AABEE"/>
<stop offset="1" stop-color="#229ED9"/>
</linearGradient>
<clipPath id="clip0_2_11731">
<rect width="20" height="20" fill="white"/>
</clipPath>
</defs>
</svg>
